<svg height="512pt" viewBox="0 -68 512 512" width="512pt" xmlns="http://www.w3.org/2000/svg"><path d="m486.398438 76.800781h-187.730469v-25.601562c-.03125-28.261719-22.9375-51.167969-51.203125-51.199219h-102.398438c-28.265625.03125-51.167968 22.9375-51.199218 51.199219v25.601562h-68.265626c-14.132812.015625-25.585937 11.46875-25.601562 25.597657v247.46875c.015625 14.132812 11.46875 25.582031 25.601562 25.597656h460.796876c14.132812-.015625 25.585937-11.464844 25.601562-25.597656v-247.46875c-.015625-14.128907-11.46875-25.582032-25.601562-25.597657zm8.535156 25.597657v51.203124h-102.398438v-59.734374h93.863282c4.710937.003906 8.53125 3.820312 8.535156 8.53125zm-384-51.199219c.019531-18.84375 15.289062-34.113281 34.132812-34.132813h102.398438c18.84375.019532 34.117187 15.289063 34.136718 34.132813v25.601562h-17.066406v-17.066406c-.015625-14.132813-11.46875-25.585937-25.601562-25.601563h-85.332032c-14.132812.015626-25.585937 11.46875-25.601562 25.601563v17.066406h-17.066406zm136.53125 25.601562h-102.398438v-17.066406c.003906-4.710937 3.824219-8.53125 8.535156-8.535156h85.332032c4.710937.003906 8.527344 3.824219 8.53125 8.535156zm-230.398438 25.597657c.003906-4.710938 3.824219-8.527344 8.535156-8.53125h349.863282v59.734374h-34.132813v-8.535156c-.015625-14.132812-11.464843-25.585937-25.597656-25.601562h-34.132813c-14.132812.015625-25.585937 11.46875-25.601562 25.601562v8.535156h-119.464844v-8.535156c-.015625-14.132812-11.46875-25.585937-25.601562-25.601562h-34.132813c-14.132812.015625-25.585937 11.46875-25.601562 25.601562v8.535156h-34.132813zm281.601563 51.203124c-4.714844 0-8.535157 3.820313-8.535157 8.53125v25.601563h-8.53125c-4.710937-.003906-8.53125-3.824219-8.535156-8.535156v-34.132813c.003906-4.710937 3.824219-8.527344 8.535156-8.53125h34.132813c4.710937.003906 8.527344 3.820313 8.53125 8.53125v34.132813c-.003906 4.710937-3.820313 8.53125-8.53125 8.535156h-8.535156v-25.601563c0-4.710937-3.820313-8.53125-8.53125-8.53125zm-204.800781 0c-4.714844 0-8.535157 3.820313-8.535157 8.53125v25.601563h-8.53125c-4.710937-.003906-8.53125-3.824219-8.535156-8.535156v-34.132813c.003906-4.710937 3.824219-8.527344 8.535156-8.53125h34.132813c4.710937.003906 8.527344 3.820313 8.53125 8.53125v34.132813c-.003906 4.710937-3.820313 8.53125-8.53125 8.535156h-8.535156v-25.601563c0-4.710937-3.820313-8.53125-8.53125-8.53125zm-76.800782 196.265626v-179.199219h34.132813v8.53125c.015625 14.132812 11.46875 25.585937 25.601562 25.601562h34.132813c14.132812-.015625 25.585937-11.46875 25.601562-25.601562v-8.53125h119.464844v8.53125c.015625 14.132812 11.46875 25.585937 25.601562 25.601562h34.132813c14.132813-.015625 25.582031-11.46875 25.597656-25.601562v-8.53125h34.132813v187.730469h-349.863282c-4.710937-.003907-8.53125-3.820313-8.535156-8.53125zm477.867188 0c-.003906 4.710937-3.824219 8.527343-8.535156 8.53125h-93.863282v-187.730469h102.398438zm0 0"/><path d="m435.199219 264.535156h17.066406c14.132813-.015625 25.585937-11.46875 25.601563-25.601562v-8.535156c0-4.710938-3.820313-8.53125-8.535157-8.53125-4.710937 0-8.53125 3.820312-8.53125 8.53125v8.535156c-.003906 4.710937-3.824219 8.527344-8.535156 8.53125h-17.066406c-4.710938-.003906-8.527344-3.820313-8.53125-8.53125v-8.535156c0-4.710938-3.820313-8.53125-8.535157-8.53125-4.710937 0-8.53125 3.820312-8.53125 8.53125v8.535156c.015626 14.132812 11.464844 25.585937 25.597657 25.601562zm0 0"/><path d="m59.734375 324.265625h-17.066406c-4.714844 0-8.535157 3.820313-8.535157 8.535156 0 4.710938 3.820313 8.53125 8.535157 8.53125h17.066406c4.710937 0 8.53125-3.820312 8.53125-8.53125 0-4.714843-3.820313-8.535156-8.53125-8.535156zm0 0"/><path d="m213.332031 324.265625h-119.464843c-4.714844 0-8.535157 3.820313-8.535157 8.535156 0 4.710938 3.820313 8.53125 8.535157 8.53125h119.464843c4.714844 0 8.535157-3.820312 8.535157-8.53125 0-4.714843-3.820313-8.535156-8.535157-8.535156zm0 0"/></svg>