<svg height="512pt" viewBox="0 0 512.01914 512" width="512pt" xmlns="http://www.w3.org/2000/svg"><path d="m256.023438 68.273438c-103.683594 0-187.734376 84.050781-187.734376 187.734374 0 103.679688 84.050782 187.734376 187.734376 187.734376 103.679687 0 187.730468-84.054688 187.730468-187.734376-.113281-103.632812-84.097656-187.617187-187.730468-187.734374zm0 358.402343c-94.257813 0-170.667969-76.410156-170.667969-170.667969 0-94.257812 76.410156-170.667968 170.667969-170.667968 94.253906 0 170.664062 76.410156 170.664062 170.667968-.105469 94.210938-76.453125 170.558594-170.664062 170.667969zm0 0"/><path d="m256.023438 102.40625c-84.832032 0-153.601563 68.769531-153.601563 153.601562 0 84.832032 68.769531 153.597657 153.601563 153.597657 84.828124 0 153.597656-68.765625 153.597656-153.597657-.09375-84.792968-68.808594-153.507812-153.597656-153.601562zm0 290.132812c-75.40625 0-136.535157-61.125-136.535157-136.53125s61.128907-136.535156 136.535157-136.535156c75.402343 0 136.53125 61.128906 136.53125 136.535156-.085938 75.367188-61.164063 136.445313-136.53125 136.53125zm0 0"/><path d="m256.023438 181.992188c4.710937 0 8.53125-3.820313 8.53125-8.535157v-19.050781c0-4.710938-3.820313-8.53125-8.53125-8.53125-4.714844 0-8.535157 3.820312-8.535157 8.53125v19.050781c0 4.714844 3.820313 8.535157 8.535157 8.535157zm0 0"/><path d="m333.898438 178.132812c-3.332032-3.332031-8.734376-3.332031-12.066407 0l-13.472656 13.46875c-2.199219 2.148438-3.078125 5.3125-2.292969 8.285157.78125 2.972656 3.105469 5.292969 6.078125 6.078125 2.972657.78125 6.136719-.09375 8.28125-2.296875l13.472657-13.46875c3.332031-3.332031 3.332031-8.734375 0-12.066407zm0 0"/><path d="m190.214844 178.132812c-2.148438-2.203124-5.3125-3.078124-8.285156-2.296874-2.972657.785156-5.292969 3.105468-6.078126 6.078124-.78125 2.972657.09375 6.140626 2.296876 8.285157l13.46875 13.46875c3.34375 3.261719 8.6875 3.226562 11.992187-.074219 3.300781-3.300781 3.335937-8.648438.074219-11.992188zm0 0"/><path d="m227.691406 187.625c2.089844-.867188 3.753906-2.527344 4.621094-4.617188.867188-2.089843.867188-4.4375 0-6.53125l-7.289062-17.597656c-1.855469-4.265625-6.785157-6.253906-11.085938-4.476562-4.296875 1.777344-6.378906 6.671875-4.679688 11l7.289063 17.601562c.859375 2.09375 2.519531 3.757813 4.613281 4.625 2.089844.867188 4.441406.867188 6.53125-.003906zm0 0"/><path d="m357.773438 213.867188c-.863282-2.09375-2.523438-3.757813-4.613282-4.625-2.09375-.867188-4.441406-.867188-6.535156.003906l-17.597656 7.285156c-2.875 1.128906-4.914063 3.71875-5.339844 6.777344-.421875 3.054687.839844 6.105468 3.300781 7.96875 2.457031 1.863281 5.734375 2.253906 8.5625 1.023437l17.601563-7.289062c2.089844-.863281 3.753906-2.523438 4.621094-4.617188.867187-2.089843.867187-4.4375 0-6.527343zm0 0"/><path d="m298.164062 154.257812c-2.089843-.871093-4.441406-.871093-6.53125-.003906-2.09375.867188-3.753906 2.53125-4.613281 4.625l-7.289062 17.597656c-1.234375 2.832032-.84375 6.105469 1.023437 8.566407 1.863282 2.460937 4.910156 3.71875 7.96875 3.296875s5.648438-2.464844 6.773438-5.335938l7.289062-17.601562c.867188-2.089844.867188-4.441406 0-6.53125-.867187-2.089844-2.53125-3.75-4.621094-4.613282zm0 0"/><path d="m183.019531 216.53125-17.601562-7.285156c-4.328125-1.699219-9.222657.382812-11 4.679687-1.777344 4.296875.210937 9.226563 4.476562 11.085938l17.597657 7.289062c4.332031 1.695313 9.222656-.386719 11-4.683593 1.78125-4.296876-.210938-9.226563-4.472657-11.085938zm0 0"/><path d="m281.421875 247.074219c-12.6875 0-16.839844-28.484375-16.867187-42.277344-.035157-.882813-.210938-1.757813-.523438-2.589844-.074219-.230469-.054688-.496093-.144531-.714843-.878907-2.082032-2.546875-3.734376-4.640625-4.585938s-4.441406-.835938-6.523438.042969c-.21875.089843-.375.273437-.582031.382812-.769531.363281-1.476563.839844-2.105469 1.417969-.226562.28125-.433594.578125-.621094.886719-.476562.539062-.878906 1.136719-1.203124 1.78125-.128907.417969-.226563.84375-.292969 1.277343-.214844.597657-.355469 1.21875-.425781 1.851563v.253906c-.027344 13.792969-4.183594 42.273438-16.867188 42.273438-4.714844 0-8.535156 3.820312-8.535156 8.535156 0 4.710937 3.820312 8.53125 8.535156 8.53125 6.210938.078125 12.222656-2.167969 16.863281-6.296875v59.46875c-11.753906 4.15625-18.804687 16.175781-16.699219 28.464844 2.109376 12.289062 12.765626 21.273437 25.234376 21.273437s23.121093-8.984375 25.230468-21.273437c2.109375-12.289063-4.941406-24.308594-16.699218-28.464844v-59.320312c4.667968 4.0625 10.679687 6.253906 16.867187 6.148437 4.714844 0 8.535156-3.820313 8.535156-8.535156 0-4.710938-3.820312-8.53125-8.535156-8.53125zm-25.398437 102.800781c-4.714844 0-8.535157-3.820312-8.535157-8.535156 0-4.710938 3.820313-8.53125 8.535157-8.53125 4.710937 0 8.53125 3.820312 8.53125 8.53125-.003907 4.710937-3.820313 8.527344-8.53125 8.535156zm0 0"/><path d="m490.964844 274.269531-13.691406-2.597656c.363281-5.183594.617187-10.394531.617187-15.664063 0-6.585937-.34375-13.085937-.910156-19.523437l13.625-2.835937c13.953125-2.964844 22.914062-16.625 20.074219-30.605469-2.933594-13.980469-16.621094-22.953125-30.609376-20.074219l-13.628906 2.835938c-3.722656-11.140626-8.332031-21.960938-13.777344-32.367188l11.539063-7.859375c11.75-8.089844 14.792969-24.132813 6.820313-35.960937-8.054688-11.796876-24.140626-14.851563-35.960938-6.828126l-11.601562 7.898438c-7.6875-8.863281-16.0625-17.105469-25.042969-24.652344l7.679687-11.710937c7.761719-11.972657 4.433594-27.960938-7.457031-35.839844-11.960937-7.808594-27.984375-4.476563-35.839844 7.453125l-7.652343 11.667969c-10.496094-5.28125-21.394532-9.714844-32.597657-13.257813l2.589844-13.621094c1.332031-6.699218-.117187-13.65625-4.007813-19.269531-3.804687-5.769531-9.796874-9.742187-16.59375-10.992187-14.042968-2.65625-27.582031 6.5625-30.253906 20.601562l-2.601562 13.6875c-5.179688-.363281-10.390625-.613281-15.660156-.613281-6.585938 0-13.085938.339844-19.527344.910156l-2.832032-13.625c-2.96875-13.957031-16.625-22.914062-30.609374-20.074219-13.976563 2.933594-22.953126 16.621094-20.070313 30.609376l2.835937 13.628906c-11.140624 3.722656-21.964843 8.332031-32.367187 13.78125l-7.859375-11.542969c-8.089844-11.75-24.132812-14.792969-35.964844-6.820313-11.800781 8.054688-14.851562 24.140626-6.824218 35.960938l7.898437 11.601562c-8.863281 7.6875-17.109375 16.0625-24.65625 25.042969l-11.714844-7.679687c-11.960937-7.808594-27.984375-4.476563-35.839843 7.457031-7.757813 11.96875-4.433594 27.953125 7.453124 35.839844l11.667969 7.648437c-5.28125 10.496094-9.714843 21.394532-13.257812 32.597656l-13.613281-2.589843c-14.042969-2.65625-27.585938 6.566406-30.261719 20.609375-1.328125 6.699218.121093 13.648437 4.011719 19.261718 3.800781 5.769532 9.792968 9.734376 16.589843 10.988282l13.6875 2.597656c-.363281 5.183594-.613281 10.390625-.613281 15.664062 0 6.582032.339844 13.085938.90625 19.523438l-13.621094 2.832031c-13.980468 2.933594-22.957031 16.621094-20.074218 30.609375 1.339843 6.699219 5.335937 12.566406 11.078124 16.269532 4.1875 2.839843 9.132813 4.359374 14.199219 4.355468 1.789063 0 3.578125-.1875 5.332031-.554687l13.628907-2.832031c3.722656 11.136718 8.332031 21.960937 13.777343 32.367187l-11.535156 7.851563c-11.800781 8.054687-14.855468 24.140624-6.828125 35.960937 3.800781 5.675781 9.738281 9.570313 16.460938 10.792969 1.683593.34375 3.402343.519531 5.125.519531 5.132812-.007813 10.144531-1.570313 14.378906-4.484375l11.597656-7.898438c7.691407 8.863282 16.0625 17.109376 25.046875 24.65625l-7.679687 11.714844c-7.816407 11.960938-4.484375 27.988282 7.453125 35.839844 4.160156 2.753906 9.035156 4.230469 14.023437 4.25 1.789063 0 3.570313-.195312 5.3125-.582031 6.785157-1.308594 12.746094-5.324219 16.503907-11.121094l7.652343-11.667969c10.492188 5.28125 21.394531 9.714844 32.597657 13.257813l-2.589844 13.621093c-2.648438 14.039063 6.566406 27.578126 20.605468 30.257813 1.617188.308594 3.265626.464844 4.914063.464844 5.128906.019531 10.140625-1.542969 14.347656-4.480469 5.769531-3.800781 9.738281-9.789062 10.992188-16.582031l2.597656-13.691407c5.179687.363282 10.386719.617188 15.660156.617188 6.582031 0 13.085938-.34375 19.523438-.910156l2.835937 13.625c2.523438 11.980468 13.070313 20.570312 25.3125 20.621094 1.78125-.003907 3.554688-.1875 5.296875-.550782 13.953125-2.96875 22.910157-16.628906 20.070313-30.609375l-2.832032-13.628906c11.136719-3.722656 21.960938-8.328125 32.367188-13.777344l7.851562 11.539063c8.054688 11.800781 24.140626 14.855468 35.960938 6.824218 11.753906-8.082031 14.800781-24.128906 6.828125-35.960937l-7.890625-11.601563c8.863281-7.6875 17.105469-16.0625 24.65625-25.046874l11.710938 7.679687c4.160156 2.753906 9.035156 4.234375 14.023437 4.25 1.789063 0 3.570313-.195313 5.3125-.582031 6.785156-1.304688 12.746094-5.324219 16.503906-11.125 7.816407-11.960938 4.484375-27.988282-7.453125-35.839844l-11.667968-7.648438c5.28125-10.496093 9.714843-21.394531 13.257812-32.597656l13.613281 2.59375c1.625.308594 3.277344.464844 4.929688.464844 5.128906.023438 10.136719-1.542969 14.34375-4.480469 5.769531-3.800781 9.738281-9.792969 10.992187-16.585937 2.648438-14.042969-6.566406-27.578125-20.601562-30.257813zm-7.425782-74.589843c4.761719-.960938 9.414063 2.089843 10.425782 6.839843.488281 2.324219-.003906 4.75-1.367188 6.699219-1.238281 1.933594-3.214844 3.28125-5.46875 3.726562l-12.296875 2.558594c-.972656-5.832031-2.160156-11.589844-3.570312-17.265625zm-38.875-82.777344c4.03125-2.710938 9.492188-1.675782 12.246094 2.324218 1.34375 1.960938 1.816406 4.390626 1.304688 6.714844-.40625 2.261719-1.71875 4.261719-3.628906 5.535156l-10.445313 7.113282c-3.125-4.988282-6.417969-9.863282-9.917969-14.578125zm-67.59375-61.609375c2.679688-4.054688 8.128907-5.1875 12.203126-2.539063 1.992187 1.296875 3.359374 3.363282 3.777343 5.703125.492188 2.246094.046875 4.597657-1.234375 6.507813l-6.945312 10.597656c-4.773438-3.421875-9.664063-6.6875-14.710938-9.730469zm-86.023437-31.042969c.925781-4.773438 5.527344-7.90625 10.304687-7.015625 2.339844.4375 4.390626 1.820313 5.671876 3.828125 1.3125 1.886719 1.800781 4.226562 1.347656 6.476562l-2.34375 12.355469c-5.699219-1.320312-11.460938-2.457031-17.316406-3.328125zm-91.355469 4.238281c-.960937-4.761719 2.085938-9.414062 6.835938-10.425781 2.328125-.496094 4.753906 0 6.703125 1.363281 1.933593 1.242188 3.277343 3.21875 3.722656 5.472657l2.5625 12.296874c-5.835937.96875-11.589844 2.160157-17.269531 3.570313zm-82.777344 38.875c-2.710937-4.03125-1.675781-9.492187 2.324219-12.246093 1.960938-1.347657 4.390625-1.820313 6.714844-1.304688 2.261719.40625 4.261719 1.714844 5.535156 3.628906l7.117188 10.445313c-4.992188 3.125-9.867188 6.414062-14.578125 9.917969zm-61.597656 67.597657c-1.992187-1.296876-3.355468-3.363282-3.773437-5.703126-.492188-2.246093-.046875-4.597656 1.234375-6.507812 2.671875-4.066406 8.132812-5.203125 12.207031-2.539062l10.597656 6.949218c-3.421875 4.773438-6.6875 9.660156-9.730469 14.707032zm-31.046875 86.019531c-2.339843-.4375-4.390625-1.820313-5.671875-3.828125-1.3125-1.886719-1.800781-4.226563-1.351562-6.476563.929687-4.773437 5.53125-7.90625 10.308594-7.019531l12.351562 2.347656c-1.316406 5.699219-2.457031 11.460938-3.328125 17.316406zm4.230469 91.355469c-2.324219.484374-4.746094-.007813-6.699219-1.363282-1.933593-1.242187-3.28125-3.21875-3.722656-5.476562-.964844-4.761719 2.085937-9.40625 6.835937-10.421875l12.296876-2.558594c.972656 5.832031 2.160156 11.589844 3.570312 17.265625zm38.871094 82.785156c-1.957032 1.34375-4.386719 1.816406-6.703125 1.296875-2.261719-.402344-4.261719-1.714844-5.539063-3.628907-2.734375-4.023437-1.695312-9.503906 2.328125-12.25l10.445313-7.113281c3.125 4.988281 6.414062 9.863281 9.917968 14.578125zm67.605468 61.59375c-1.296874 1.992187-3.363281 3.359375-5.703124 3.777344-2.246094.488281-4.597657.042968-6.507813-1.234376-4.066406-2.675781-5.199219-8.136718-2.539063-12.207031l6.949219-10.597656c4.773438 3.417969 9.660157 6.6875 14.707031 9.726563zm86.019532 31.046875c-.4375 2.335937-1.824219 4.390625-3.828125 5.671875-1.886719 1.304687-4.226563 1.792968-6.480469 1.347656-4.78125-.914062-7.917969-5.523438-7.015625-10.308594l2.347656-12.351562c5.695313 1.316406 11.460938 2.457031 17.3125 3.328125zm91.355468-4.234375c.488282 2.328125-.003906 4.753906-1.367187 6.699218-1.238281 1.9375-3.21875 3.28125-5.472656 3.726563-4.761719.960937-9.410157-2.085937-10.421875-6.835937l-2.558594-12.300782c5.832031-.96875 11.589844-2.160156 17.265625-3.566406zm82.78125-38.871094c1.34375 1.960938 1.8125 4.386719 1.300782 6.707031-.402344 2.261719-1.714844 4.261719-3.628906 5.535157-4.023438 2.734374-9.503907 1.695312-12.25-2.324219l-7.113282-10.445313c4.988282-3.125 9.863282-6.417968 14.578125-9.917968zm-139.109374 16.152344c-113.109376 0-204.800782-91.695313-204.800782-204.800782 0-113.109374 91.691406-204.800781 204.800782-204.800781 113.105468 0 204.796874 91.691407 204.796874 204.800781-.128906 113.054688-91.742187 204.671876-204.796874 204.800782zm200.710937-83.75c4.0625 2.671875 5.199219 8.128906 2.542969 12.199218-1.300782 1.996094-3.363282 3.359376-5.703125 3.777344-2.25.492188-4.597657.046875-6.511719-1.234375l-10.59375-6.945312c3.417969-4.777344 6.6875-9.664063 9.726562-14.710938zm34.234375-70.050782c-1.886719 1.316407-4.226562 1.800782-6.480469 1.351563l-12.351562-2.347656c1.316406-5.699219 2.457031-11.460938 3.328125-17.316407l12.320312 2.335938c4.777344.914062 7.917969 5.523438 7.015625 10.304688-.441406 2.339843-1.828125 4.390624-3.832031 5.671874zm0 0"/></svg>