<svg height="512pt" viewBox="0 0 512.00374 512" width="512pt" xmlns="http://www.w3.org/2000/svg"><path d="m511.449219 230.132812c-3.25-32.945312-19.992188-63.078124-46.25-83.238281-1.527344-4.691406-3.753907-9.128906-6.597657-13.160156l1.769532-1.769531c2.15625-2.15625 2.996094-5.296875 2.210937-8.242188-.789062-2.945312-3.089843-5.246094-6.035156-6.035156s-6.085937.050781-8.242187 2.207031l-1.769532 1.769531c-5.933594-4.175781-12.71875-6.988281-19.867187-8.230468v-2.5c0-4.710938-3.820313-8.53125-8.535157-8.53125-4.710937 0-8.53125 3.820312-8.53125 8.53125v2.5c-6.28125 1.097656-12.285156 3.40625-17.683593 6.800781-1.253907-.058594-2.492188-.128906-3.753907-.140625l-.199218-.195312c-3.332032-3.332032-8.734375-3.332032-12.066406 0-.242188.3125-.460938.640624-.65625.988281-21.691407 2.824219-42.238282 11.394531-59.507813 24.824219v-68.910157h25.597656c0 4.714844 3.820313 8.535157 8.535157 8.535157 4.710937 0 8.53125-3.820313 8.53125-8.535157v-51.199219c0-4.710937-3.820313-8.53125-8.53125-8.53125-4.714844 0-8.535157 3.820313-8.535157 8.53125h-42.664062c-18.84375.019532-34.113281 15.292969-34.132813 34.132813v80.042969c-5.453125-3.519532-11.15625-6.632813-17.070312-9.308594v-113.398438c4.714844 0 8.535156-3.824218 8.535156-8.535156 0-4.710937-3.820312-8.535156-8.535156-8.535156h-51.199219c-4.710937 0-8.53125 3.824219-8.53125 8.535156 0 4.710938 3.820313 8.535156 8.53125 8.535156v103.25c-5.722656.214844-11.421875.816407-17.066406 1.792969v-36.777343c-.019531-18.84375-15.289063-34.113282-34.132813-34.132813h-42.667968c0-4.714844-3.820313-8.535156-8.53125-8.535156-4.714844 0-8.535157 3.820312-8.535157 8.535156v51.199219c0 4.710937 3.820313 8.53125 8.535157 8.53125 4.710937 0 8.53125-3.820313 8.53125-8.53125h25.601562v41.160156c-13.40625 9.53125-24.773438 21.648438-33.421875 35.640625h-51.910156c-23.554688.027344-42.6406252 19.113281-42.667969 42.664063v34.132812c.0273438 23.554688 19.113281 42.640625 42.667969 42.667969h48.917969c5.707031 10.339843 12.898437 19.789062 21.34375 28.046875l67.039062 72.902344c-1.289062 4.175781-.917969 8.6875 1.035156 12.597656 6.460938 12.84375 16.882813 23.261718 29.726563 29.71875 2.890625 1.660156 6.28125 2.21875 9.550781 1.578125l55.5 60.390625c4.820312 5.171875 11.574219 8.105468 18.648438 8.097656 7.070312-.003906 13.820312-2.949219 18.632812-8.132812l123.074219-133.894532 3.015625 3.011719c6.445312 6.570313 15.921875 9.171875 24.820312 6.820313 8.898438-2.355469 15.847656-9.304688 18.199219-18.203126 2.355469-8.898437-.25-18.375-6.820313-24.820312l-4.550781-4.550781 12.710938-13.863281c18.296875-21.542969 28.390625-48.863282 28.488281-77.128907.027344-2.734375-.085938-5.46875-.339844-8.191406-.003906-.976563-.074218-1.949219-.210937-2.914063zm-93.316407-35.570312c-17.910156 0-32.425781-14.519531-32.425781-32.425781 0-17.910157 14.515625-32.429688 32.425781-32.429688 17.910157 0 32.425782 14.519531 32.425782 32.429688-.019532 17.898437-14.523438 32.40625-32.425782 32.425781zm-108.863281 191.511719-.003906.007812c-4.714844 4.742188-10.320313 8.503907-16.5 11.070313l-.105469.019531-.089844.0625c-11.441406 4.621094-24.15625 5.015625-35.863281 1.109375l14.726563-23.042969c.546875.035157 1.078125.171875 1.632812.171875 14.140625 0 25.601563-11.460937 25.601563-25.601562 0-14.136719-11.460938-25.597656-25.601563-25.597656-14.136718 0-25.601562 11.460937-25.601562 25.597656 0 .546875.132812 1.070312.171875 1.613281l-23.046875 14.738281c-3.976563-11.6875-3.582032-24.414062 1.109375-35.832031l.0625-.109375.019531-.09375c5.226562-12.488281 15.160156-22.414062 27.648438-27.632812 12.546874-5.128907 26.605468-5.140626 39.160156-.03125l.070312.042968.097656.023438c6.179688 2.5625 11.789063 6.324218 16.507813 11.070312l.007813.007813.007812.003906c4.742188 4.71875 8.503906 10.324219 11.070312 16.5l.019532.109375.070312.113281c5.105469 12.496094 5.101563 26.496094-.011718 38.984375l-.058594.085938-.019532.09375c-2.5625 6.183594-6.324218 11.792968-11.070312 16.511718zm-36.183593-27.796875c-.828126-1.863282-1.980469-3.566406-3.40625-5.019532-1.484376-1.453124-3.226563-2.613281-5.140626-3.429687.152344-4.609375 3.9375-8.269531 8.550782-8.257813 4.613281.011719 8.382812 3.6875 8.511718 8.296876-.1875 4.605468-3.910156 8.28125-8.515624 8.410156zm89.105468-98.453125c-4.816406 4.789062-7.519531 11.308593-7.5 18.101562.011719 1.558594.164063 3.109375.453125 4.636719-5.492187-3.515625-9.085937-9.335938-9.769531-15.820312-.679688-6.480469 1.621094-12.925782 6.257812-17.507813 8.589844-8.109375 22.011719-8.109375 30.601563 0 1.128906 1.148437 2.132813 2.421875 2.984375 3.789063-8.324219-1.625-16.917969.914062-23.027344 6.800781zm-63.523437-217.15625h42.664062v17.066406h-34.132812c-4.710938 0-8.53125 3.820313-8.53125 8.535156v92.425781c-1.460938 1.515626-2.976563 3.050782-4.292969 4.519532-4.007812-4.421875-8.273438-8.605469-12.773438-12.519532v-92.960937c.007813-9.421875 7.644532-17.054687 17.066407-17.066406zm-68.269531-25.597657v107.109376c-5.589844-1.5625-11.296876-2.683594-17.066407-3.351563v-103.757813zm-93.863282 68.265626h-34.136718v-17.066407h42.667968c9.421875.007813 17.058594 7.644531 17.066406 17.066407v41.007812c-5.851562 1.902344-11.554687 4.234375-17.066406 6.972656v-39.449218c0-4.710938-3.820312-8.53125-8.53125-8.53125zm-59.421875 162.132812h-25.914062v-17.066406h26.164062c-.328125 3.574218-.5625 7.179687-.5625 10.835937 0 2.09375.203125 4.152344.3125 6.230469zm-34.445312 34.132812c-14.132813-.015624-25.585938-11.46875-25.601563-25.601562v-34.132812c.015625-14.128907 11.46875-25.582032 25.601563-25.597657h43.132812c-2.273437 5.539063-4.125 11.246094-5.53125 17.066407h-29.070312c-9.421875.007812-17.054688 7.644531-17.066407 17.066406v17.066406c.011719 9.421875 7.644532 17.058594 17.066407 17.066406h27.910156c1.195313 5.804688 2.824219 11.507813 4.875 17.066406zm51.199219-40.363281c1.046874-58.425781 49.175781-104.988281 107.605468-104.105469 11.667969.085938 23.21875 2.355469 34.054688 6.695313l.171875.074219c11.59375 4.644531 22.371093 11.113281 31.917969 19.167968 7.40625 6.171876 14.132812 13.113282 20.066406 20.707032 1.617187 2.066406 4.09375 3.273437 6.714844 3.273437h.054687c2.640625-.015625 5.125-1.253906 6.730469-3.351562 3.683594-4.757813 7.6875-9.265625 11.972656-13.488281.839844-.816407 1.726562-1.527344 2.578125-2.316407v127.386719c-.132813.117188-.304687.15625-.425781.285156l-.414063.410156c-2.542969-1.984374-5.230469-3.785156-8.035156-5.386718l.21875-.523438c1.804687-4.355468-.261719-9.347656-4.617187-11.152344-4.355469-1.804687-9.347657.265626-11.148438 4.617188l-.230469.554688c-3.113281-.84375-6.28125-1.46875-9.480469-1.867188v-.617188c0-4.710937-3.820312-8.53125-8.535156-8.53125-4.710937 0-8.53125 3.820313-8.53125 8.53125v.617188c-6.039062.730469-11.953125 2.261719-17.589844 4.546875-1.398437.574219-2.738281 1.261719-4.089843 1.925781 4.992187-4.664062 9.257812-10.050781 12.65625-15.980468l.558593.234374c2.816407 1.164063 6.042969.742188 8.460938-1.113281s3.664062-4.863281 3.265625-7.882812c-.394531-3.023438-2.375-5.605469-5.191406-6.773438l-.5625-.230469c.859375-3.109374 1.492187-6.277343 1.898437-9.476562h.59375c4.710938 0 8.53125-3.820312 8.53125-8.535156 0-4.710938-3.820312-8.53125-8.53125-8.53125h-.597656c-.40625-3.199219-1.039062-6.363282-1.898438-9.472656l.5625-.230469c4.351563-1.804688 6.417969-6.796875 4.613282-11.152344-1.800782-4.351563-6.792969-6.421875-11.148438-4.617187l-.558594.230468c-1.605468-2.792968-3.402343-5.472656-5.386718-8.011718l.445312-.445313c2.226563-2.140625 3.125-5.316406 2.34375-8.304687-.777344-2.988282-3.109375-5.324219-6.097656-6.105469s-6.164062.113281-8.304688 2.335937l-.445312.449219c-2.542969-1.984375-5.21875-3.785156-8.015625-5.390625l.230469-.554688c1.167968-2.816406.742187-6.042968-1.113282-8.460937-1.855468-2.421875-4.859374-3.664063-7.882812-3.269531-3.023438.398437-5.601562 2.378906-6.769531 5.195312l-.234375.558594c-3.109375-.855469-6.277344-1.488281-9.476563-1.890625v-.597656c0-4.710938-3.820312-8.53125-8.535156-8.53125-4.710937 0-8.53125 3.820312-8.53125 8.53125v.597656c-3.199219.40625-6.363281 1.039063-9.472656 1.894531l-.234375-.558594c-1.800782-4.351562-6.792969-6.421874-11.148438-4.617187-4.355468 1.804687-6.421875 6.796875-4.617187 11.152344l.230469.558593c-2.792969 1.601563-5.472657 3.402344-8.015626 5.386719l-.441406-.445312c-2.140625-2.226563-5.316406-3.125-8.304687-2.34375-2.988281.777343-5.324219 3.109375-6.105469 6.097656-.78125 2.984375.113281 6.164063 2.335938 8.304687l.445312.445313c-1.980469 2.539063-3.78125 5.21875-5.386719 8.015625l-.558593-.230469c-4.351563-1.804687-9.34375.261719-11.148438 4.613281-1.804688 4.355469.261719 9.347657 4.617188 11.152344l.558593.230469c-.855469 3.113281-1.488281 6.28125-1.890625 9.480469h-.597656c-4.710938 0-8.535156 3.820312-8.535156 8.53125 0 4.714844 3.824218 8.535156 8.535156 8.535156h.597656c.40625 3.199219 1.039063 6.363281 1.894532 9.472656l-.558594.230469c-4.355469 1.804687-6.421875 6.796875-4.617188 11.152344 1.804688 4.351562 6.796875 6.417969 11.148438 4.617187l.558594-.234375c1.605468 2.796875 3.40625 5.476563 5.386718 8.015625l-.445312.445313c-2.222656 2.140625-3.121094 5.316406-2.34375 8.304687.78125 2.988282 3.113281 5.320313 6.101562 6.101563 2.984375.78125 6.160156-.109375 8.304688-2.335938l.445312-.445312c2.539063 1.984375 5.21875 3.785156 8.015625 5.386719l-.234375.558593c-1.164062 2.816407-.742187 6.042969 1.113282 8.460938 1.855468 2.417969 4.863281 3.664062 7.882812 3.265625 3.023438-.394532 5.605469-2.375 6.773438-5.191406l.230468-.5625c3.109375.859374 6.273438 1.492187 9.472656 1.898437v.59375c0 4.710937 3.820313 8.53125 8.535157 8.53125 4.710937 0 8.53125-3.820313 8.53125-8.53125v-.59375c7.542969-.949219 14.867187-3.164063 21.675781-6.546875-.558594.519531-1.148438.992188-1.691406 1.53125-4.289063 4.316406-7.988282 9.1875-10.988282 14.484375l-.527343-.21875c-2.816407-1.167969-6.039063-.742187-8.460938 1.113281-2.417969 1.855469-3.664062 4.859375-3.265625 7.882813.398438 3.023437 2.378906 5.601562 5.195313 6.769531l.542969.226562c-.847657 3.113282-1.476563 6.28125-1.875 9.484376h-.597657c-4.714843 0-8.535156 3.820312-8.535156 8.53125 0 4.714843 3.820313 8.535156 8.535156 8.535156h.597657c.398437 3.199218 1.027343 6.367187 1.875 9.480468l-.546876.226563c-4.351562 1.804687-6.417968 6.796875-4.617187 11.152344.171875.332031.367187.652343.582031.957031l-10.945312 6.996094-66.5625-72.371094c-19.980469-19.277344-31.285156-45.839844-31.316406-73.605469zm102.398437 48.898438c-28.277344 0-51.199219-22.925781-51.199219-51.203125 0-28.273438 22.921875-51.199219 51.199219-51.199219s51.199219 22.925781 51.199219 51.199219c-.027344 28.265625-22.933594 51.171875-51.199219 51.203125zm.027344 114.492187.085937-.117187 27.953125-18.042969c.121094-.054688.253907-.046875.378907-.109375.289062-.203125.566406-.425781.824218-.667969l31.660156-20.4375c.136719.007813.257813.054688.398438.054688l-39.238281 61.359375c-9.527344-4.789063-17.261719-12.519531-22.0625-22.039063zm104.230469 87.660156c-1.609376 1.628907-3.808594 2.550782-6.101563 2.554688-2.292969.007812-4.492187-.898438-6.113281-2.519531l-54.0625-58.832031 8.496094-13.292969c.296874.230469.609374.441406.9375.628906 2.089843.867187 4.441406.871094 6.535156.003906 2.089844-.863281 3.75-2.527343 4.613281-4.621093l.226563-.546876c3.109374.847657 6.277343 1.476563 9.480468 1.875v.597657c0 4.710937 3.820313 8.53125 8.53125 8.53125 4.714844 0 8.535156-3.820313 8.535156-8.53125v-.597657c3.199219-.402343 6.367188-1.03125 9.480469-1.878906l.226563.542969c1.804687 4.355469 6.796875 6.421875 11.148437 4.617187 4.355469-1.800781 6.421875-6.792968 4.617188-11.148437l-.214844-.523437c2.800781-1.601563 5.488281-3.402344 8.035156-5.386719l.410157.410156c.125.125.296874.171875.425781.285156v71.28125zm32.277343-35.117187v-73.324219l.070313.03125c4.355468 1.800782 9.347656-.265625 11.148437-4.617187 1.804688-4.355469-.261719-9.347657-4.617187-11.152344l-.542969-.222656c.847656-3.113281 1.476563-6.285157 1.875-9.484375h.597656c4.714844 0 8.535157-3.820313 8.535157-8.535156 0-4.710938-3.820313-8.53125-8.535157-8.53125h-.597656c-.398437-3.203126-1.027344-6.371094-1.875-9.484376l.542969-.226562c4.355468-1.800781 6.421875-6.792969 4.617187-11.148438-1.804687-4.355468-6.796875-6.421874-11.148437-4.617187l-.105469.042969c0-.058594.035156-.105469.035156-.167969v-25.101563l8.78125 2.929688c1.039063.949219 2.125 1.847656 3.261719 2.683594l-1.835938.917968c-4.214843 2.109376-5.925781 7.234376-3.816406 11.449219 2.105469 4.214844 7.234375 5.925781 11.449219 3.816407l18.636719-9.316407 38.574218 38.574219c-3.917968.773438-6.75 4.191406-6.785156 8.179688 0 4.714843 3.820313 8.535156 8.535156 8.535156 3.988282-.035156 7.40625-2.871094 8.179688-6.785156l6.273438 6.273437zm130.480469-96.257813c-3.332031 3.328126-8.730469 3.328126-12.0625 0l-9.539062-9.535156-.023438-.03125-.019531-.011718-67.378907-67.382813c-3.261718-3.34375-3.226562-8.6875.078126-11.992187 3.300781-3.300782 8.644531-3.335938 11.988281-.074219l76.957031 76.957031c3.328125 3.335938 3.328125 8.738281 0 12.074219zm7.445312-53.84375-12.003906 13.082032-53.261718-53.261719c.046874-.796875.214843-1.542969.214843-2.355469-.023437-2.253906-.246093-4.503906-.660156-6.722656l1.894531.628906c.867188.292969 1.777344.445313 2.695313.445313 4.1875.003906 7.761719-3.035157 8.433593-7.167969.667969-4.136719-1.761718-8.148438-5.738281-9.464844l-19.875-6.625c-1.066406-.980468-2.1875-1.898437-3.355469-2.753906l1.792969-.898438c2.726563-1.363281 4.519531-4.078124 4.703125-7.121093.179688-3.042969-1.273437-5.953125-3.816406-7.632813-2.546875-1.679687-5.792969-1.875-8.519531-.511718l-18.824219 9.414062c-1.417969.0625-2.832031.199219-4.238281.414062l.644531-1.933593c1.492188-4.46875-.925781-9.304688-5.394531-10.796875-4.472657-1.488282-9.304688.925781-10.796875 5.398437l-6.625 19.871094c-.980469 1.0625-1.902344 2.183594-2.757813 3.347656l-.890625-1.78125c-.414062-.734375-.933594-1.402343-1.546875-1.980469v-84.140624c12.667969-8.460938 27.027344-14.054688 42.082031-16.390626-2.671874 4.8125-4.515624 10.042969-5.453124 15.46875h-2.496094c-4.714844 0-8.535156 3.820313-8.535156 8.535157 0 4.710937 3.820312 8.53125 8.535156 8.53125h2.496094c1.246093 7.148437 4.058593 13.933593 8.234374 19.867187l-1.769531 1.769532c-3.332031 3.332031-3.332031 8.734374 0 12.070312 3.332031 3.332031 8.734375 3.332031 12.066407 0l1.769531-1.769531c5.9375 4.175781 12.71875 6.988281 19.871093 8.234375v2.496094c0 4.710937 3.820313 8.53125 8.53125 8.53125 4.714844 0 8.535157-3.820313 8.535157-8.53125v-2.496094c7.148437-1.246094 13.933593-4.058594 19.867187-8.234375l1.769532 1.765625c3.332031 3.335937 8.734374 3.335937 12.066406.003906 3.332031-3.332031 3.335937-8.738281.003906-12.070312l-1.769531-1.769532c4.0625-5.761718 6.839843-12.335937 8.140625-19.265625 15.78125 16.570313 25.550781 37.953125 27.746094 60.726563.085937.617187.132812 1.234375.140624 1.855468.171876 1.824219.191407 3.652344.222657 5.476563-2.746094-5.695313-6.875-10.613281-12.015625-14.300781 1.746094-4.332032-.324219-9.261719-4.636719-11.046875-4.316406-1.785157-9.261719.238281-11.089844 4.535156-4.171875-.691406-8.433593-.679687-12.601562.039063-1.832031-4.296876-6.78125-6.316407-11.097657-4.527344-4.3125 1.785156-6.386718 6.714844-4.644531 11.046875-3.460937 2.441406-6.484375 5.445312-8.945312 8.886719-4.332031-1.753907-9.265625.3125-11.054688 4.632812-1.789062 4.316406.238281 9.269531 4.539063 11.089844-.691406 4.175781-.679688 8.4375.039062 12.609375-4.324218 1.8125-6.371094 6.78125-4.574218 11.117187 1.792968 4.332032 6.753906 6.402344 11.097656 4.625 2.4375 3.457032 5.445312 6.480469 8.886718 8.941406-1.757812 4.335938.3125 9.28125 4.636719 11.066407 4.324219 1.789062 9.28125-.246094 11.097657-4.558594 10.703124 1.984375 21.734374-.898437 30.097656-7.863281-3.683594 7.714844-8.34375 14.921875-13.863282 21.449218zm-17.972656-31.640624c-7.855468-3.253907-12.980468-10.921876-12.980468-19.425782s5.121093-16.171875 12.980468-19.425781c7.855469-3.253906 16.898438-1.457031 22.914063 4.558594 6.011719 6.011719 7.8125 15.054687 4.558593 22.914062-4.457031 10.714844-16.746093 15.800781-27.472656 11.375zm0 0"/><path d="m196.265625 213.335938c-14.136719 0-25.597656 11.460937-25.597656 25.597656 0 14.140625 11.460937 25.601562 25.597656 25.601562 14.140625 0 25.601563-11.460937 25.601563-25.601562-.015626-14.128906-11.46875-25.582032-25.601563-25.597656zm0 34.132812c-4.710937 0-8.53125-3.820312-8.53125-8.535156 0-4.710938 3.820313-8.53125 8.53125-8.53125 4.714844 0 8.535156 3.820312 8.535156 8.53125-.007812 4.710937-3.824219 8.527344-8.535156 8.535156zm0 0"/><path d="m426.667969 162.136719c0 4.710937-3.820313 8.53125-8.535157 8.53125-4.710937 0-8.53125-3.820313-8.53125-8.53125 0-4.714844 3.820313-8.535157 8.53125-8.535157 4.714844 0 8.535157 3.820313 8.535157 8.535157zm0 0"/><path d="m468.683594 259.265625c1.804687-4.351563-.265625-9.34375-4.617188-11.148437-4.355468-1.800782-9.347656.265624-11.148437 4.621093-1.804688 4.351563.261719 9.34375 4.617187 11.148438 2.089844.867187 4.441406.867187 6.53125 0 2.089844-.867188 3.75-2.527344 4.617188-4.621094zm0 0"/><path d="m307.199219 204.800781c0 4.714844-3.820313 8.535157-8.53125 8.535157-4.714844 0-8.535157-3.820313-8.535157-8.535157 0-4.710937 3.820313-8.53125 8.535157-8.53125 4.710937 0 8.53125 3.820313 8.53125 8.53125zm0 0"/><path d="m307.199219 230.402344c0 4.710937-3.820313 8.53125-8.53125 8.53125-4.714844 0-8.535157-3.820313-8.535157-8.53125 0-4.714844 3.820313-8.535156 8.535157-8.535156 4.710937 0 8.53125 3.820312 8.53125 8.535156zm0 0"/><path d="m307.199219 256c0 4.714844-3.820313 8.535156-8.53125 8.535156-4.714844 0-8.535157-3.820312-8.535157-8.535156 0-4.710938 3.820313-8.53125 8.535157-8.53125 4.710937 0 8.53125 3.820312 8.53125 8.53125zm0 0"/><path d="m366.933594 401.070312c0 4.710938-3.820313 8.53125-8.535156 8.53125-4.710938 0-8.53125-3.820312-8.53125-8.53125 0-4.714843 3.820312-8.535156 8.53125-8.535156 4.714843 0 8.535156 3.820313 8.535156 8.535156zm0 0"/><path d="m349.867188 418.136719c0 4.710937-3.820313 8.53125-8.535157 8.53125-4.710937 0-8.53125-3.820313-8.53125-8.53125 0-4.714844 3.820313-8.535157 8.53125-8.535157 4.714844 0 8.535157 3.820313 8.535157 8.535157zm0 0"/><path d="m384 384c0 4.714844-3.820312 8.535156-8.535156 8.535156-4.710938 0-8.53125-3.820312-8.53125-8.535156 0-4.710938 3.820312-8.53125 8.53125-8.53125 4.714844 0 8.535156 3.820312 8.535156 8.53125zm0 0"/><path d="m401.066406 366.933594c0 4.714844-3.820312 8.535156-8.53125 8.535156-4.714844 0-8.535156-3.820312-8.535156-8.535156 0-4.710938 3.820312-8.53125 8.535156-8.53125 4.710938 0 8.53125 3.820312 8.53125 8.53125zm0 0"/><path d="m307.199219 469.335938c0 4.710937-3.820313 8.53125-8.53125 8.53125-4.714844 0-8.535157-3.820313-8.535157-8.53125 0-4.714844 3.820313-8.535157 8.535157-8.535157 4.710937 0 8.53125 3.820313 8.53125 8.535157zm0 0"/><path d="m307.199219 443.734375c0 4.714844-3.820313 8.535156-8.53125 8.535156-4.714844 0-8.535157-3.820312-8.535157-8.535156 0-4.710937 3.820313-8.53125 8.535157-8.53125 4.710937 0 8.53125 3.820313 8.53125 8.53125zm0 0"/></svg>