<svg height="510pt" viewBox="-7 0 510 510.97032" width="510pt" xmlns="http://www.w3.org/2000/svg"><path d="m487.667969 225.730469-.007813-.078125c-.183594-1.660156-.316406-3.292969-.523437-4.964844-1.902344-15.453125-4.785157-32.246094-8.558594-49.9375-1.59375-7.316406-3.375-14.816406-5.339844-22.589844-31.226562-124.066406-152.601562-153.332031-256.625-139.351562-8.875-2.878906-17.9375-5.152344-27.121093-6.808594-25.449219-4.679688-51.726563-1.097656-74.992188 10.21875-23.058594-11.394531-50.667969-8.125-70.421875 8.34375-23.632813 18.929688-38.851563 46.40625-42.363281 76.480469-2.027344 14.910156 2.113281 30.003906 11.464844 41.792969 3.164062 3.554687 6.515624 6.929687 10.042968 10.121093-.988281 1.527344-1.980468 3.066407-3.03125 4.703125-8.445312 13-13.574218 27.875-14.945312 43.320313-.433594.917969-.914063 1.792969-1.300782 2.75-3.214843 7.859375-4.214843 16.449219-2.890624 24.835937.765624 5.535156 4.203124 10.339844 9.195312 12.851563.425781 1.371093.773438 2.71875 1.25 4.09375 4.046875 11.808593 9.140625 23.210937 14.066406 34.234375 4.96875 11.128906 10.113282 22.640625 13.980469 34.21875 8.035156 23.863281 12.855469 48.6875 14.335937 73.820312.191407 3.222656.292969 6.5.402344 9.800782.660156 20.480468 1.417969 43.691406 20.632813 59.902343 13.875 11.191407 31.367187 16.925781 49.175781 16.113281 11.84375-.277343 23.652344-1.402343 35.339844-3.355468l5.941406-.847656c19.492188-2.683594 39.214844-5.898438 58.285156-9.015626 23.84375-3.890624 48.40625-7.847656 72.757813-10.839843.074219.53125.160156 1.035156.230469 1.574219 5.101562 36.3125 35.976562 63.445312 72.640624 63.84375 1.0625 0 2.128907-.035157 3.195313-.085938.621094.042969 1.238281.09375 1.84375.09375 7.449219-.457031 14.644531-2.890625 20.839844-7.054688 19.394531-10.761718 33.558593-35.082031 43.300781-74.339843 3.453125-10.625 8.3125-20.746094 14.441406-30.085938l4.050782-7.019531c5.300781-5.5625 9.851562-11.789062 13.542968-18.53125 15.523438-10.105469 26.164063-33.609375 26.164063-61.664062.113281-12.335938-2.152344-24.582032-6.675781-36.058594.382812-16.863282-.390626-33.730469-2.324219-50.484375zm-174.808594-93.972657c1.800781-6.386718 2.710937-12.996093 2.703125-19.632812 22.480469-1.542969 76.121094 3.25 146.910156 65.046875 2.34375 11.21875 4.316406 22.046875 5.886719 32.351563-73.984375-48.121094-131.21875-57.945313-163.65625-54.90625 3.1875-7.441407 5.914063-15.078126 8.15625-22.859376zm143.082031 17.925782c-66.226562-51.605469-116.972656-56.582032-142.230468-54.546875-5.148438-19.851563-16.460938-37.558594-32.308594-50.578125-9.640625-8.328125-20.175782-15.558594-31.410156-21.566406 87.691406-3.648438 179.519531 27.628906 205.949218 126.691406zm-269.449218-130.882813c8.957031 1.625 17.785156 3.886719 26.417968 6.773438.128906.042969.242188.09375.367188.128906 20.863281 6.75 40.199218 17.527344 56.910156 31.722656 11.148438 9.714844 36.023438 35.949219 26.28125 69.582031-9.5 32.792969-23.34375 53.121094-42.332031 62.148438-25.019531 11.894531-61.246094 6.570312-117.453125-17.277344-22.667969-9.617187-51.382813-27.484375-59.464844-58.007812-4.136719-15.089844-2.769531-31.164063 3.859375-45.335938 16.339844-32.410156 49.9375-52.457031 86.21875-51.445312 6.4375.003906 12.859375.578125 19.195313 1.710937zm-151.699219 143.695313c1.714843-2.664063 3.449219-5.328125 5.203125-7.992188 10.488281-3.820312 20.214844-9.46875 28.726562-16.691406 9.066406 15.195312 21.734375 27.921875 36.886719 37.058594-32.109375-9.226563-58.476563-9.289063-76.917969-.839844 1.765625-3.980469 3.804688-7.835938 6.101563-11.535156zm-16.074219-64.011719c3.199219-25.402344 16.128906-48.570313 36.066406-64.628906 11.3125-9.867188 26.703125-13.640625 41.296875-10.128907-13.019531 9.902344-23.46875 22.789063-30.464843 37.574219-8.339844 17.796875-10.078126 37.976563-4.898438 56.9375.25.949219.582031 1.84375.863281 2.773438-7.171875 7.359375-15.863281 13.0625-25.46875 16.714843-3.589843-3.179687-6.976562-6.582031-10.144531-10.183593-6.214844-8.324219-8.828125-18.792969-7.25-29.058594zm202.1875 341.050781c-18.964844 3.097656-38.578125 6.296875-57.871094 8.953125l-6.035156.859375c-25.382812 3.644532-51.648438 7.429688-71.082031-8.914062-13.398438-11.304688-13.972657-28.839844-14.578125-47.402344-.105469-3.441406-.21875-6.863281-.410156-10.207031-1.566407-26.648438-6.675782-52.96875-15.191407-78.269531-4.136719-12.371094-9.449219-24.265626-14.589843-35.765626-4.746094-10.628906-9.644532-21.617187-13.441407-32.644531 1.230469-.867187 2.339844-1.894531 3.304688-3.050781 16.289062-19.6875 53.566406-9.523438 64.605469-5.941406 25.957031 8.003906 51.199218 18.160156 75.464843 30.371094 11.609375 5.921874 22.78125 12.667968 33.429688 20.1875l4.132812 2.972656c26.960938 19.726562 48.9375 45.480468 64.167969 75.214844 10.722656 23.023437 17.828125 47.566406 21.066406 72.757812-24.523437 3.027344-49.109375 6.984375-72.972656 10.878906zm92.652344 5.3125c-.390625-3.03125-.847656-6.007812-1.3125-9.027344l-.160156-1.023437c-3.300782-29.96875-11.417969-59.203125-24.03125-86.585937-16.472657-32.171876-40.25-60.035157-69.425782-81.367188l-4.265625-3.070312c-11.292969-7.976563-23.140625-15.132813-35.453125-21.417969-25.085937-12.640625-51.191406-23.160157-78.03125-31.445313-17.457031-5.664062-60.503906-15.914062-82.957031 11.128906-.800781-5.265624-.210937-10.648437 1.707031-15.617187 12.609375-31.289063 61.34375-20.941406 81.699219-15.046875 28.929687 7.972656 57.207031 18.15625 84.582031 30.457031 12.933594 5.902344 25.457032 12.675781 37.472656 20.273438l4.648438 2.988281c29.558594 19.085938 54.179688 44.894531 71.851562 75.320312 17.242188 30.535157 22.359376 63.914063 27.78125 99.242188.703126 4.574219 1.414063 9.160156 2.140626 13.757812-.027344.289063-.039063.578126-.035157.871094 2.28125 18.492188 7.285157 36.542969 14.839844 53.574219-16.777344-8.375-28.382813-24.449219-31.050781-43.007813zm72.683594 44.511719c-3.84375 2.789063-8.441407 4.34375-13.1875 4.464844-.605469-.070313-1.199219-.214844-1.769532-.429688-4.722656-1.742187-16.527344-11.222656-24.519531-60.980469.023437-.265624.035156-.535156.035156-.800781-.78125-4.855469-1.523437-9.699219-2.265625-14.535156-5.410156-35.289063-11.007812-71.785156-29.789062-105.042969-19.035156-32.828125-45.578125-60.675781-77.453125-81.265625l-4.769531-3.066406c-10.40625-6.519531-21.171876-12.445313-32.242188-17.757813 8.003906 1.460938 16.117188 2.238282 24.25 2.328126 12.734375.246093 25.359375-2.386719 36.933594-7.699219 13.820312-6.914063 25.367187-17.640625 33.269531-30.917969 23.933594-7.023438 87.722656-3.070312 176.4375 58.324219.6875 6.867187 1.226563 13.636719 1.53125 20.242187-1.1875-.90625-2.433594-1.738281-3.71875-2.492187-13.84375-23.019531-34.292969-36.253907-56.53125-36.253907-40.5 0-73.445313 44.703126-73.445313 99.652344 0 55.003906 32.945313 99.757813 73.445313 99.757813 5.054687-.027344 10.082031-.738281 14.945313-2.113281-2.304688 4.703124-4.140626 9.621093-5.488282 14.683593-8.425781 33.933594-20.207031 55.3125-35.667968 63.90625zm56.945312-107.175781c-8.0625 8.394531-19.097656 13.289062-30.734375 13.625-31.085937 0-56.378906-37.089844-56.378906-82.6875 0-45.535156 25.292969-82.585938 56.378906-82.585938 12.707031.429688 24.644531 6.1875 32.890625 15.863282-20.421875 5.601562-35.484375 32.496093-35.484375 65.867187 0 33.414063 15.105469 60.332031 35.5625 65.882813-.746094 1.351562-1.492187 2.722656-2.234375 4.035156zm10.074219-19.992188c-12.457031 0-26.332031-20.5-26.332031-49.917968 0-29.421876 13.875-49.921876 26.332031-49.921876s26.339843 20.503907 26.339843 49.921876c0 29.421874-13.882812 49.921874-26.339843 49.921874zm0 0"/><path d="m95.539062 109.839844c2.148438 5.625 5.21875 10.855468 9.082032 15.476562.15625.183594.21875.417969.394531.59375.050781.050782.121094.0625.171875.113282 10.304688 11.402343 23.0625 20.324218 37.316406 26.085937 35.03125 15.558594 61.589844 23.125 81.183594 23.125 12.261719.6875 24.207031-4.015625 32.710938-12.871094 6.691406-7.824219 11.855468-16.835937 15.21875-26.566406 5.800781-11.65625 7.808593-24.835937 5.742187-37.6875-4.839844-22.1875-24.746094-36.496094-41.546875-46.488281-10.007812-6.058594-20.574219-11.15625-31.546875-15.222656-21.609375-8.992188-45.832031-9.425782-67.75-1.210938-15.945313 6.25-29.34375 17.652344-38.066406 32.386719-7.074219 12.996093-8.136719 28.425781-2.910157 42.265625zm165.148438-8.089844c1.238281 9.597656-.507812 19.347656-4.996094 27.921875-2.621094 7.699219-6.628906 14.855469-11.832031 21.113281-5.238281 5.414063-12.671875 8.136719-20.167969 7.382813-17.160156 0-41.449218-7.082031-74.257812-21.65625l-.195313-.09375 72.925781-72.925781c1.636719.914062 3.261719 1.808593 4.929688 2.800781 14.691406 8.738281 30.171875 19.777343 33.59375 35.457031zm-54.636719-46.273438-72.546875 72.546876c-3.742187-2.351563-7.265625-5.03125-10.535156-8.003907l69.503906-69.5c1.976563.597657 3.949219 1.1875 5.96875 1.921875 2.519532.917969 5.058594 1.9375 7.609375 3.035156zm-92.679687 20.382813c6.871094-11.308594 17.269531-20.046875 29.589844-24.871094 7.652343-3.089843 15.835937-4.644531 24.085937-4.582031 1.6875 0 3.421875.136719 5.148437.253906l-59.589843 59.589844c-.347657-.769531-.761719-1.519531-1.046875-2.296875-3.511719-9.183594-2.847656-19.4375 1.8125-28.09375zm0 0"/><path d="m453.320312 289.605469c-4.714843 0-8.535156 3.820312-8.535156 8.53125v25.601562c0 4.710938 3.820313 8.53125 8.535156 8.53125 4.710938 0 8.53125-3.820312 8.53125-8.53125v-25.601562c0-4.710938-3.820312-8.53125-8.53125-8.53125zm0 0"/></svg>