<?xml version="1.0" encoding="UTF-8"?>
<!DOCTYPE svg PUBLIC "-//W3C//DTD SVG 1.1//EN" "http://www.w3.org/Graphics/SVG/1.1/DTD/svg11.dtd">
<!-- Creator: CorelDRAW X5 -->
<svg xmlns="http://www.w3.org/2000/svg" xml:space="preserve" width="20.7274in" height="20.7274in" style="shape-rendering:geometricPrecision; text-rendering:geometricPrecision; image-rendering:optimizeQuality; fill-rule:evenodd; clip-rule:evenodd"
viewBox="0 0 21185 21185"
 xmlns:xlink="http://www.w3.org/1999/xlink">
 <defs>
  <style type="text/css">
   <![CDATA[
    .fil4 {fill:none}
    .fil3 {fill:#373435}
    .fil1 {fill:#1A1A1A}
    .fil2 {fill:#373435;fill-rule:nonzero}
    .fil0 {fill:#1A1A1A;fill-rule:nonzero}
   ]]>
  </style>
   <clipPath id="id0">
    <path d="M9717 9328c58,-469 364,-933 883,-933 518,0 825,464 883,933 27,221 22,467 -5,719 22,-18 45,-35 68,-50 310,-209 713,-174 979,89 38,38 72,79 101,122 75,-65 156,-125 243,-178 687,-420 1508,-300 2154,144 490,336 817,844 891,1435 7,58 13,117 16,176 44,779 -310,1505 -937,1967 -415,306 -916,473 -1432,473 -276,0 -550,-48 -810,-141 -245,102 -523,130 -799,64 -319,-76 -592,-298 -744,-588 -85,-162 -134,-337 -143,-511l-7 -6c-142,-129 -295,-247 -458,-347 -162,101 -314,218 -455,346l-8 7c-9,174 -58,349 -143,511 -151,290 -424,511 -744,588 -276,66 -554,38 -799,-64 -260,93 -533,141 -809,141 -516,0 -1017,-167 -1432,-473 -627,-462 -980,-1188 -937,-1967 3,-59 9,-117 16,-175 74,-592 401,-1100 892,-1436 646,-443 1467,-564 2154,-144 87,53 168,113 243,178 29,-43 62,-84 101,-122 266,-264 669,-299 979,-89 23,16 46,33 68,50 -28,-252 -32,-497 -5,-719zm894 7298c3332,0 6033,-2701 6033,-6033 0,-3332 -2701,-6033 -6033,-6033 -3332,0 -6033,2701 -6033,6033 0,3332 2701,6033 6033,6033z"/>
   </clipPath>
 </defs>
 <g id="Layer_x0020_1">
  <metadata id="CorelCorpID_0Corel-Layer"/>
  <path class="fil0" d="M9180 1379l57 362 -48 8 -57 -362 48 -8zm-274 50l57 362 -72 11 -126 -243c-12,-23 -20,-40 -26,-51 -2,14 -5,34 -10,61l-47 266 -65 10 -57 -362 46 -7 48 303 57 -320 43 -7 154 292 -49 -309 46 -7zm-559 117l95 354 -134 36c-24,6 -42,10 -55,11 -18,2 -34,0 -48,-5 -14,-5 -26,-14 -38,-27 -11,-13 -19,-28 -24,-45 -8,-30 -5,-58 8,-84 14,-26 46,-46 96,-59l91 -24 -39 -144 47 -13zm3 198l-92 25c-30,8 -50,20 -60,34 -10,15 -12,32 -6,53 4,15 11,27 21,35 10,9 22,13 35,13 8,0 23,-3 45,-9l91 -24 -34 -127zm-397 92c19,58 18,108 -2,151 -20,43 -55,72 -105,88 -32,10 -64,12 -95,5 -31,-7 -58,-22 -80,-45 -22,-23 -39,-52 -51,-87 -12,-35 -15,-69 -9,-102 5,-33 19,-60 40,-83 22,-23 47,-39 78,-49 33,-11 65,-12 96,-5 31,7 58,23 80,46 22,23 38,50 48,81zm-48 15c-14,-42 -36,-72 -66,-88 -31,-17 -63,-20 -97,-9 -35,11 -59,33 -74,65 -14,32 -15,70 0,115 9,28 22,52 39,70 16,18 36,30 58,36 22,6 45,5 68,-3 33,-11 57,-31 73,-61 16,-30 16,-71 -1,-124zm-536 -4l132 343 -152 58c-31,12 -55,18 -73,17 -18,0 -35,-6 -51,-18 -15,-12 -27,-27 -34,-46 -9,-24 -9,-48 0,-70 9,-23 30,-43 61,-60 -14,-1 -26,-3 -34,-7 -18,-7 -36,-17 -55,-31l-95 -70 57 -22 73 54c21,15 38,27 51,35 13,8 23,12 32,14 8,2 16,2 24,1 6,-1 14,-4 26,-8l53 -20 -58 -152 45 -17zm28 209l-97 37c-21,8 -36,16 -46,25 -10,9 -16,19 -19,31 -2,12 -2,23 3,34 6,16 17,27 33,33 16,6 36,4 62,-6l108 -42 -44 -113zm-577 15l132 296 110 -49 18 40 -266 118 -18 -40 111 -49 -132 -296 44 -20zm-331 154l167 327 -236 120 -20 -39 193 -98 -51 -100 -181 92 -20 -38 181 -92 -57 -111 -201 102 -20 -39 244 -124zm-427 226l178 321 -111 61c-25,14 -45,23 -60,27 -21,6 -41,7 -60,3 -25,-5 -48,-16 -68,-34 -21,-18 -39,-41 -55,-69 -14,-24 -23,-48 -27,-70 -5,-22 -6,-42 -4,-59 2,-17 6,-32 13,-45 7,-13 16,-25 29,-37 13,-12 29,-23 49,-34l116 -64zm-21 61l-69 38c-21,12 -37,23 -47,34 -10,11 -16,21 -20,33 -5,16 -5,34 -1,54 4,20 12,42 26,67 19,34 38,56 59,68 21,12 41,17 60,14 14,-2 33,-10 59,-24l67 -37 -136 -245zm-731 405l210 301 -203 142 -25 -35 163 -114 -65 -93 -141 99 -25 -35 141 -99 -96 -137 40 -28zm-367 267l226 289 -128 100c-26,20 -47,33 -65,38 -17,5 -35,4 -54,-2 -18,-7 -34,-18 -46,-34 -16,-21 -23,-43 -21,-67 2,-24 16,-49 41,-75 -14,3 -25,4 -34,4 -19,-2 -40,-6 -62,-14l-112 -39 48 -38 85 30c25,9 44,15 59,18 14,4 26,5 34,4 9,-1 16,-3 23,-6 5,-3 13,-8 22,-15l44 -35 -100 -128 38 -30zm88 191l-82 64c-17,14 -30,26 -37,37 -7,11 -10,23 -9,35 1,12 5,23 13,32 11,14 24,21 41,22 17,1 36,-7 57,-24l92 -71 -75 -96zm-360 260c39,47 57,94 54,141 -3,47 -24,88 -64,121 -26,22 -55,35 -86,40 -31,5 -62,1 -91,-12 -29,-13 -56,-34 -80,-62 -24,-29 -40,-59 -47,-91 -7,-32 -5,-63 6,-92 11,-29 29,-54 54,-75 27,-22 55,-36 87,-40 32,-5 62,-1 91,13 29,13 54,32 75,57zm-39 32c-28,-34 -60,-53 -94,-57 -35,-4 -66,5 -93,28 -28,24 -43,53 -44,88 -2,35 13,70 43,107 19,23 40,40 62,50 22,11 44,14 67,11 23,-3 43,-12 62,-28 26,-22 41,-50 45,-84 4,-34 -12,-72 -48,-114zm-487 200l250 268 -53 50 -241 -131c-22,-12 -39,-21 -50,-28 6,13 15,31 26,56l110 247 -48 45 -250 -268 34 -32 209 225 -132 -297 32 -30 291 156 -213 -228 34 -32zm-648 686l277 241 -83 95c-19,22 -34,37 -47,46 -17,13 -36,21 -55,23 -25,4 -50,1 -76,-8 -26,-9 -51,-25 -75,-46 -21,-18 -38,-37 -49,-56 -12,-19 -20,-37 -24,-54 -4,-17 -5,-33 -3,-47 2,-14 7,-29 15,-45 8,-16 19,-32 34,-49l87 -100zm1 65l-51 59c-16,18 -27,34 -32,47 -6,13 -8,26 -7,37 1,16 7,33 17,51 10,18 26,35 47,54 29,25 55,40 79,44 24,4 44,2 61,-8 12,-6 28,-21 47,-42l51 -58 -212 -184zm-327 333l297 216 -156 215 -35 -25 127 -175 -91 -66 -119 164 -35 -25 119 -164 -101 -73 -132 182 -35 -25 161 -222zm-281 388l308 200 -26 41 -271 -176 -98 152 -36 -24 125 -192zm-234 363l318 183 -24 42 -131 -75 -95 165 131 75 -24 42 -318 -183 24 -42 150 86 95 -165 -150 -86 24 -42zm-258 448l324 172 -23 43 -324 -172 23 -43zm-514 1115l340 137 -18 45 -340 -137 18 -45zm-89 259l347 119 -16 47 -335 88 272 94 -15 44 -347 -119 16 -47 335 -88 -273 -94 15 -44zm-157 488l353 101 -35 121c-8,27 -16,48 -23,61 -10,19 -24,34 -40,45 -21,14 -45,22 -72,24 -27,2 -56,-1 -88,-10 -27,-8 -50,-18 -68,-30 -19,-12 -34,-25 -45,-39 -11,-14 -18,-27 -23,-41 -4,-14 -6,-30 -6,-47 1,-18 4,-37 10,-58l36 -127zm28 59l-22 75c-7,23 -10,42 -9,57 1,14 4,27 9,37 8,14 20,27 37,39 17,12 39,21 65,29 37,11 67,13 90,6 23,-6 41,-17 53,-33 8,-11 17,-31 25,-58l21 -74 -269 -77zm-161 447l358 83 -11 47 -358 -83 11 -47zm-48 229l337 203 -9 52 -387 84 10 -55 117 -23 27 -151 -102 -59 9 -51zm130 130l-22 123 107 -20c32,-6 59,-10 79,-12 -22,-9 -44,-19 -66,-32l-99 -58zm-298 1151l367 13 -4 126c-1,29 -4,50 -8,65 -6,21 -15,38 -28,53 -17,19 -38,33 -64,41 -26,9 -55,13 -88,11 -28,-1 -52,-5 -74,-12 -21,-7 -39,-16 -53,-27 -14,-11 -24,-22 -32,-35 -8,-12 -13,-27 -17,-44 -4,-17 -5,-37 -4,-59l5 -132zm42 50l-3 78c-1,24 1,43 5,57 4,14 10,25 18,34 11,12 26,21 45,29 19,7 43,11 70,12 38,1 68,-4 89,-16 21,-12 35,-27 43,-44 5,-13 9,-34 10,-63l3 -77 -280 -10zm-60 464l367 -6 5 265 -43 1 -4 -217 -112 2 4 203 -43 1 -4 -203 -125 2 4 225 -43 1 -5 -274zm126 461l7 45c-18,3 -33,9 -44,18 -11,9 -20,22 -26,39 -6,17 -8,36 -7,57 1,19 5,35 12,48 7,14 15,24 25,30 10,6 21,9 32,8 12,-1 21,-5 29,-12 8,-7 15,-19 19,-34 3,-10 8,-32 13,-66 6,-34 12,-58 18,-72 8,-18 18,-32 31,-42 13,-9 28,-15 45,-16 18,-1 36,3 53,12 17,9 30,24 40,43 10,20 15,42 17,66 2,27 -1,51 -8,73 -7,21 -19,38 -35,51 -16,12 -35,20 -56,22l-7 -46c23,-4 40,-14 51,-29 11,-15 15,-37 13,-65 -2,-29 -9,-50 -21,-63 -12,-13 -25,-18 -40,-17 -13,1 -24,6 -31,17 -8,10 -15,35 -21,75 -6,40 -12,68 -18,83 -8,22 -20,39 -34,50 -14,11 -31,17 -51,19 -20,1 -38,-3 -56,-13 -18,-10 -32,-25 -44,-45 -11,-20 -17,-43 -19,-69 -2,-33 1,-61 9,-84 8,-23 21,-42 40,-56 18,-14 40,-22 64,-25zm-78 515l366 -26 3 48 -366 26 -3 -48zm199 426l43 -5 19 154 -135 17c-22,-21 -39,-44 -52,-68 -13,-24 -21,-49 -24,-76 -4,-36 -1,-69 11,-100 12,-31 31,-56 58,-74 27,-18 59,-30 94,-34 35,-4 69,-1 102,10 33,11 58,30 76,56 18,26 30,57 34,93 3,26 2,51 -4,73 -6,22 -16,40 -29,54 -14,14 -32,26 -56,35l-17 -42c18,-8 32,-16 41,-26 10,-9 17,-22 21,-38 5,-16 6,-33 3,-51 -3,-22 -8,-41 -17,-56 -9,-15 -19,-27 -31,-36 -12,-8 -25,-15 -39,-19 -24,-6 -49,-8 -75,-5 -32,4 -59,13 -79,27 -21,14 -35,32 -43,55 -8,23 -11,46 -8,70 3,21 9,41 20,60 10,19 21,33 31,42l68 -8 -13 -107zm-83 380l362 -57 8 49 -254 235 285 -45 7 46 -362 57 -8 -49 255 -235 -285 45 -7 -46zm107 503l354 -95 69 256 -42 11 -56 -209 -109 29 53 196 -42 11 -53 -196 -121 32 58 218 -42 11 -71 -265zm127 470l349 -113 39 120c9,27 14,48 15,64 2,21 -1,41 -8,59 -10,23 -25,44 -46,61 -21,17 -47,31 -79,41 -26,9 -51,13 -73,14 -22,0 -42,-2 -59,-7 -17,-5 -31,-12 -42,-21 -11,-9 -22,-21 -31,-36 -9,-15 -17,-33 -24,-54l-41 -126zm56 33l24 75c7,23 15,40 24,52 9,12 18,20 28,25 14,7 32,11 52,11 21,0 44,-4 70,-13 36,-12 63,-27 78,-45 16,-18 24,-37 25,-57 1,-14 -3,-35 -12,-62l-24 -73 -267 87zm242 805l343 -132 17 45 -343 132 -17 -45zm109 252l335 -149 20 46 -185 293 263 -117 19 43 -335 149 -20 -45 185 -293 -263 117 -19 -43zm404 788l321 -178 24 44 -159 308 252 -140 23 41 -321 178 -24 -44 159 -308 -252 140 -23 -41zm264 436l311 -194 141 225 -37 23 -115 -184 -95 60 108 172 -37 23 -108 -172 -106 66 119 191 -37 23 -145 -232zm301 457l229 -303 31 39 -155 192c-16,20 -33,40 -50,58 37,-17 58,-26 64,-29l238 -98 36 46 -114 156c-28,39 -56,73 -85,102 21,-11 46,-22 74,-35l221 -100 30 39 -351 147 -29 -37 173 -233c14,-20 23,-31 27,-36 -16,7 -29,13 -41,18l-268 111 -31 -39zm586 726l268 -250 86 92c19,21 33,38 41,51 11,19 17,38 18,57 1,25 -4,50 -16,75 -12,24 -30,48 -54,70 -20,19 -41,33 -61,43 -20,10 -39,16 -56,18 -17,2 -33,2 -47,-2 -14,-3 -29,-10 -43,-19 -15,-10 -30,-23 -45,-39l-90 -97zm65 6l53 57c16,18 31,30 44,37 13,7 25,11 36,11 16,1 34,-3 52,-12 19,-9 38,-22 58,-41 28,-26 45,-51 52,-74 7,-23 6,-44 -1,-62 -5,-13 -18,-30 -37,-51l-53 -56 -205 191zm291 368l255 -264 191 184 -30 31 -156 -151 -78 81 146 141 -30 31 -146 -141 -87 90 162 157 -30 31 -197 -190zm345 330l241 -277 37 32 -212 244 136 119 -28 33 -173 -150zm329 283l231 -285 38 31 -95 117 148 120 95 -117 38 31 -231 285 -38 -31 109 -134 -148 -120 -109 134 -38 -31zm412 320l216 -297 39 29 -216 297 -39 -29zm900 582l183 -318 230 133 -22 38 -188 -108 -56 97 176 102 -22 37 -176 -102 -62 108 195 113 -22 38 -237 -137zm469 117l42 18c-7,17 -9,33 -8,47 1,14 8,28 19,43 11,14 26,26 45,36 16,9 32,14 47,16 15,2 28,0 39,-5 11,-5 19,-13 24,-23 5,-10 7,-21 5,-31 -2,-11 -8,-22 -19,-35 -7,-8 -23,-24 -49,-47 -26,-23 -43,-41 -52,-53 -11,-16 -17,-33 -19,-49 -1,-16 2,-31 10,-46 9,-16 21,-29 38,-38 17,-9 36,-13 58,-11 22,2 44,9 65,21 24,13 43,28 57,45 14,17 22,36 24,57 2,20 -2,40 -11,60l-43 -19c9,-22 9,-41 2,-58 -7,-17 -23,-32 -48,-46 -26,-14 -47,-19 -64,-16 -17,3 -29,11 -36,25 -6,12 -7,24 -3,35 4,12 22,31 52,57 31,26 51,46 61,59 14,19 22,37 24,55 2,18 -2,36 -11,53 -9,17 -23,31 -41,41 -18,10 -38,14 -61,13 -23,-1 -46,-8 -69,-21 -29,-16 -52,-33 -67,-52 -15,-19 -24,-40 -26,-63 -2,-23 2,-46 13,-68zm478 360l137 -293 -110 -51 18 -39 264 123 -18 39 -110 -51 -137 293 -44 -21zm266 102l268 -287 48 20 2 397 -51 -21 2 -119 -142 -57 -79 88 -48 -19zm155 -100l115 47 2 -109c1,-33 2,-60 4,-80 -13,20 -28,39 -45,58l-78 85zm335 282l119 -347 130 45c26,9 47,20 60,32 14,13 22,28 26,45 4,18 3,35 -2,51 -5,15 -14,27 -27,38 -13,10 -28,17 -47,19 19,13 31,29 38,48 6,19 6,38 -1,58 -6,16 -14,30 -26,42 -12,12 -24,19 -37,24 -13,4 -27,5 -44,4 -17,-1 -36,-6 -58,-13l-132 -46zm115 -185l75 26c20,7 35,11 45,11 13,1 24,-2 32,-8 9,-6 15,-15 19,-27 4,-11 5,-23 2,-33 -3,-11 -8,-19 -17,-26 -9,-7 -26,-14 -51,-23l-69 -24 -36 105zm-55 160l86 30c15,5 25,8 32,9 11,2 21,2 30,0 9,-2 17,-6 24,-13 7,-7 13,-16 17,-27 4,-13 5,-25 2,-37 -3,-12 -10,-22 -21,-30 -10,-8 -27,-16 -49,-23l-80 -28 -41 119zm404 167l101 -353 47 13 -89 311 174 50 -12 42 -220 -63zm423 103l83 -358 47 11 -83 358 -47 -11zm276 -66l46 4c-1,18 1,34 7,47 6,13 16,24 31,35 15,10 33,17 54,20 18,3 35,3 50,0 15,-3 27,-9 35,-17 8,-8 14,-18 16,-29 2,-11 0,-22 -5,-31 -5,-10 -15,-19 -29,-27 -9,-6 -29,-15 -61,-29 -32,-14 -54,-25 -66,-35 -16,-12 -27,-26 -33,-40 -6,-15 -8,-31 -5,-47 3,-18 11,-34 24,-48 13,-14 30,-23 52,-28 21,-5 44,-5 68,-1 27,5 50,13 69,25 19,12 32,28 40,46 8,19 11,39 8,60l-46 -5c2,-23 -4,-42 -16,-56 -12,-14 -32,-24 -60,-29 -29,-5 -51,-4 -66,5 -15,8 -24,20 -27,35 -2,13 1,25 8,35 8,10 30,23 68,38 37,16 63,28 76,37 19,13 33,29 40,45 7,17 9,35 6,54 -3,19 -12,36 -26,51 -14,15 -32,25 -54,31 -22,6 -46,6 -72,2 -33,-6 -59,-15 -80,-29 -20,-13 -35,-31 -44,-52 -9,-21 -12,-44 -8,-68zm477 200l51 -363 48 7 -21 149 189 27 21 -149 48 7 -51 363 -48 -7 24 -171 -189 -27 -24 171 -48 -7zm507 54l32 -366 264 23 -4 43 -216 -19 -10 112 202 18 -4 43 -202 -18 -11 124 224 20 -4 43 -273 -24zm483 23l13 -367 126 4c29,1 50,4 65,8 21,6 38,15 53,28 19,17 33,38 41,64 9,26 13,55 11,88 -1,28 -5,52 -12,74 -7,21 -16,39 -27,53 -11,14 -22,24 -35,32 -12,8 -27,13 -44,17 -17,4 -37,5 -59,4l-132 -5zm50 -42l78 3c24,1 43,-1 57,-5 14,-4 25,-10 34,-18 12,-11 21,-26 29,-45 7,-19 11,-43 12,-70 1,-38 -4,-68 -16,-89 -12,-21 -27,-35 -44,-43 -13,-6 -34,-9 -63,-10l-77 -3 -10 280zm841 31l-32 -366 48 -4 32 366 -48 4zm276 -17l-51 -363 49 -7 231 258 -40 -285 46 -6 51 363 -49 7 -231 -259 40 286 -46 6zm1081 -210l8 43 -239 42c-2,-11 -2,-21 0,-32 3,-17 10,-35 21,-53 11,-18 27,-40 48,-65 34,-39 56,-69 66,-91 10,-21 14,-40 11,-57 -3,-18 -12,-31 -27,-41 -15,-10 -32,-13 -52,-9 -21,4 -37,13 -48,28 -11,15 -14,34 -10,57l-46 3c-3,-35 4,-63 22,-84 17,-21 43,-35 77,-41 35,-6 64,-1 87,14 24,16 38,38 43,66 3,14 2,29 -1,44 -3,15 -11,31 -22,49 -11,18 -30,43 -57,76 -23,27 -37,45 -43,55 -6,9 -11,18 -15,27l177 -31zm151 -181c-10,-42 -13,-77 -10,-105 3,-28 11,-51 25,-69 14,-18 34,-30 60,-36 19,-4 37,-4 53,0 16,4 31,13 44,25 13,12 24,28 34,48 10,20 19,47 28,83 10,42 13,77 11,105 -3,28 -11,51 -25,69 -14,18 -34,30 -60,36 -34,8 -64,2 -90,-18 -30,-24 -53,-70 -69,-137zm45 -10c14,59 29,96 48,112 18,16 37,22 58,17 20,-5 35,-18 44,-41 9,-23 7,-63 -6,-122 -14,-59 -30,-96 -48,-113 -18,-16 -38,-22 -58,-17 -20,5 -34,17 -42,37 -10,25 -8,67 5,126zm576 31l-43 12 -79 -276c-8,13 -18,27 -32,42 -14,15 -27,27 -39,35l-12 -42c21,-18 38,-38 52,-60 13,-21 22,-41 25,-58l28 -8 102 354zm222 -160l40 -18c10,18 22,30 34,35 13,5 27,5 42,0 13,-5 24,-11 31,-21 8,-9 13,-20 16,-32 3,-12 4,-28 2,-46 -2,-18 -5,-37 -12,-54 -1,-2 -2,-5 -3,-8 -4,16 -12,32 -24,45 -12,14 -26,23 -44,29 -29,10 -57,8 -84,-6 -27,-14 -46,-38 -58,-72 -12,-35 -12,-67 2,-96 13,-29 36,-48 67,-59 23,-8 45,-9 68,-3 23,6 43,18 60,37 17,19 33,50 48,93 15,44 23,81 22,111 -1,30 -8,54 -22,75 -14,20 -34,35 -60,44 -27,9 -52,9 -74,0 -22,-9 -40,-27 -53,-53zm122 -213c-8,-24 -22,-42 -39,-51 -18,-10 -36,-12 -54,-5 -19,7 -33,20 -41,40 -9,20 -9,43 0,67 8,22 21,38 39,47 18,9 37,10 56,4 20,-7 34,-19 42,-37 8,-18 8,-40 -1,-64zm989 -148l-48 -390 46 -25 305 254 -49 26 -90 -78 -136 72 17 117 -46 24zm23 -183l110 -58 -82 -72c-25,-22 -44,-40 -59,-55 7,23 12,47 15,71l15 114zm737 -230l-200 -308 208 -135 24 36 -167 108 62 95 144 -94 24 36 -144 94 91 140 -41 26zm330 -207l-102 -380 42 -31 337 209 -45 33 -100 -65 -124 90 33 114 -42 30zm-3 -184l101 -73 -91 -60c-28,-18 -49,-34 -66,-46 10,22 18,45 25,68l31 111zm430 -117l-231 -285 57 -46 231 147c21,14 37,24 48,31 -5,-13 -12,-32 -22,-58l-92 -254 51 -41 231 285 -36 29 -193 -239 110 306 -34 28 -279 -176 197 243 -36 29zm447 -362l-246 -273 36 -32 246 273 -36 32zm210 -179l-255 -264 35 -34 225 233 130 -126 30 31 -165 159zm358 -345l-114 -106 -251 -41 40 -43 130 23c24,4 48,9 71,15 -7,-21 -13,-46 -20,-74l-30 -126 39 -41 55 251 114 106 -33 35zm356 -640c-48,-38 -76,-80 -83,-127 -7,-47 5,-91 37,-132 21,-27 46,-46 76,-57 30,-11 60,-14 92,-7 32,7 62,21 91,44 29,23 51,49 65,79 14,30 18,60 13,91 -5,31 -17,59 -37,84 -21,27 -47,46 -77,58 -30,11 -61,13 -92,7 -31,-7 -60,-20 -85,-40zm31 -39c35,27 70,39 104,36 35,-3 63,-19 85,-47 23,-29 31,-60 25,-95 -6,-34 -27,-66 -64,-95 -23,-18 -47,-30 -71,-36 -24,-6 -46,-5 -68,3 -22,8 -40,21 -55,40 -21,27 -30,58 -27,92 3,34 27,68 70,102zm495 -337l-356 -131 29 -41 229 92c24,10 48,20 70,30 -27,-30 -42,-48 -46,-52l-163 -199 34 -48 182 63c45,16 86,33 123,51 -16,-17 -35,-37 -55,-61l-160 -182 28 -40 243 293 -27 38 -273 -97c-23,-8 -37,-13 -42,-15 12,13 21,24 29,34l184 224 -28 41zm321 -461l-311 -194 26 -42 346 -11 -244 -153 25 -39 311 194 -26 42 -347 11 245 153 -25 40zm266 -438l-318 -183 133 -230 38 22 -108 188 97 56 102 -176 37 22 -102 176 108 62 113 -195 38 22 -137 237zm231 -426l-327 -167 57 -113c13,-25 24,-44 34,-56 14,-17 30,-29 48,-36 23,-10 49,-13 76,-10 27,3 55,12 84,27 25,13 45,27 62,42 16,16 28,31 36,47 8,15 13,30 14,45 2,14 1,30 -3,47 -4,17 -11,36 -21,55l-60 118zm-17 -63l36 -70c11,-22 18,-40 20,-54 2,-14 2,-27 -2,-38 -5,-15 -15,-31 -29,-45 -14,-15 -34,-28 -59,-41 -34,-17 -63,-25 -87,-23 -24,2 -43,9 -58,22 -10,9 -22,27 -35,53l-35 69 250 127z"/>
  <path class="fil0" d="M19255 14035l-343 -132 49 -129c10,-26 22,-46 35,-59 13,-13 28,-21 46,-25 18,-3 35,-2 50,4 15,6 27,15 37,28 10,13 16,29 18,48 14,-18 30,-30 49,-36 19,-6 38,-4 58,3 16,6 30,15 41,27 11,12 19,25 22,37 4,13 4,28 3,44 -2,16 -7,36 -15,57l-50 131zm-181 -122l28 -74c8,-20 12,-35 13,-45 1,-13 -1,-24 -7,-33 -6,-9 -15,-16 -27,-20 -11,-4 -22,-5 -33,-3 -11,2 -20,8 -27,17 -7,9 -15,26 -25,50l-26 68 104 40zm158 61l33 -85c6,-15 9,-25 10,-31 2,-11 2,-21 1,-30 -2,-9 -6,-17 -12,-25 -7,-8 -15,-14 -26,-18 -13,-5 -25,-6 -37,-3 -12,3 -22,9 -30,20 -8,10 -17,26 -25,48l-30 79 118 45zm-81 -740l15 -46 202 66c35,11 62,24 80,39 18,15 30,34 36,59 6,25 4,54 -7,88 -11,33 -25,58 -43,75 -18,17 -39,27 -63,29 -24,2 -55,-3 -92,-15l-202 -66 15 -46 201 65c30,10 54,14 70,13 16,-1 30,-7 43,-18 12,-11 22,-27 28,-47 11,-34 11,-61 0,-80 -11,-19 -38,-36 -82,-50l-201 -65zm308 -160l8 -45c18,3 34,2 48,-3 13,-5 26,-14 37,-28 11,-14 20,-31 25,-52 5,-18 6,-34 5,-50 -2,-15 -6,-27 -14,-36 -8,-9 -17,-15 -28,-18 -11,-3 -22,-2 -32,2 -10,4 -20,13 -29,26 -6,9 -18,28 -34,58 -17,30 -30,51 -40,62 -13,15 -28,24 -43,29 -15,5 -31,5 -47,1 -18,-5 -33,-14 -46,-29 -13,-14 -21,-32 -24,-54 -3,-22 -1,-44 5,-68 7,-26 17,-48 31,-66 14,-18 30,-30 50,-36 19,-6 40,-7 61,-2l-9 46c-23,-4 -42,0 -57,11 -15,11 -26,30 -34,57 -8,28 -8,50 -1,66 7,16 18,26 32,30 13,3 25,2 35,-5 11,-7 25,-28 44,-64 19,-36 33,-60 44,-72 15,-18 31,-30 48,-36 17,-6 35,-6 54,-1 19,5 35,15 49,30 14,15 23,34 26,57 4,23 2,47 -4,72 -9,32 -20,58 -36,77 -15,19 -34,32 -56,40 -22,7 -45,8 -69,2zm233 -466l-359 -76 10 -47 359 76 -10 47zm56 -268l-361 -64 9 -49 317 -140 -284 -50 8 -46 361 64 -9 49 -317 140 284 50 -8 46zm80 -509l-364 -45 32 -263 43 5 -26 215 112 14 25 -201 43 5 -25 201 124 15 27 -224 43 5 -33 272zm-67 -473l-1 -46c18,-1 34,-5 46,-12 12,-7 23,-19 31,-35 8,-16 13,-35 15,-55 1,-19 0,-35 -5,-50 -5,-15 -11,-26 -20,-33 -9,-8 -19,-12 -31,-13 -12,-1 -22,2 -31,8 -9,6 -17,17 -24,31 -5,10 -12,31 -22,64 -10,33 -20,56 -28,69 -10,17 -23,29 -37,37 -14,8 -30,11 -47,10 -18,-1 -35,-8 -51,-19 -15,-12 -26,-28 -33,-49 -7,-21 -9,-43 -8,-68 2,-27 8,-51 18,-71 10,-20 24,-35 42,-45 18,-10 37,-15 59,-14l0 47c-23,1 -41,8 -54,22 -13,14 -20,34 -22,63 -2,29 2,51 12,65 10,14 22,22 37,23 13,1 24,-3 33,-12 9,-9 20,-32 31,-71 12,-39 21,-65 29,-79 11,-21 25,-36 41,-45 16,-9 34,-13 53,-12 20,1 37,8 54,21 16,12 29,29 37,51 8,22 11,45 9,71 -2,33 -9,61 -20,82 -11,22 -27,38 -47,50 -20,11 -43,17 -67,15zm27 -476l-3 -46c18,-2 34,-7 45,-14 12,-8 22,-20 29,-36 8,-17 11,-35 12,-56 0,-19 -2,-35 -7,-49 -5,-14 -13,-25 -22,-32 -10,-7 -20,-11 -31,-11 -12,0 -22,3 -30,10 -9,7 -16,17 -22,33 -4,10 -10,31 -19,65 -9,34 -17,57 -24,70 -9,17 -21,30 -35,39 -14,8 -29,12 -46,12 -18,0 -36,-6 -52,-17 -16,-11 -28,-26 -36,-47 -8,-20 -12,-43 -11,-68 0,-27 5,-51 14,-72 9,-21 22,-36 39,-47 17,-11 37,-17 58,-17l3 47c-23,2 -41,10 -53,25 -12,14 -18,35 -19,64 -1,29 4,51 15,65 11,14 23,21 39,21 13,0 24,-4 33,-14 9,-9 18,-33 27,-73 10,-39 18,-66 25,-81 10,-21 23,-37 38,-47 15,-10 33,-15 52,-14 20,0 38,6 55,18 17,11 30,28 39,49 9,21 14,45 13,71 -1,33 -6,61 -16,83 -10,22 -25,40 -45,52 -20,12 -42,19 -66,19zm71 -1296l-363 51 -19 -137c-3,-24 -5,-43 -4,-56 0,-18 4,-34 11,-47 7,-13 17,-25 31,-34 14,-9 30,-15 48,-18 31,-4 58,2 83,18 24,17 40,51 47,102l13 93 148 -21 7 48zm-197 -21l-13 -94c-4,-31 -13,-52 -27,-64 -13,-11 -31,-16 -52,-13 -15,2 -28,8 -37,17 -10,9 -15,20 -17,33 -1,8 0,23 3,45l13 93 130 -18zm131 -461l-360 70 -31 -160c-6,-32 -8,-57 -5,-75 3,-18 12,-33 26,-47 15,-13 32,-22 51,-26 26,-5 49,-1 69,12 21,13 37,37 48,70 4,-14 8,-25 12,-32 10,-16 23,-33 40,-49l86 -82 12 60 -66 62c-19,18 -33,33 -43,44 -10,11 -16,21 -19,29 -3,8 -5,16 -5,24 0,6 1,15 3,27l11 55 160 -31 9 48zm-210 -9l-20 -102c-4,-22 -10,-38 -17,-50 -7,-11 -16,-19 -27,-24 -11,-4 -22,-6 -34,-3 -17,3 -30,12 -38,27 -9,14 -10,35 -5,62l22 114 119 -23zm117 -494l-358 83 -60 -259 42 -10 49 211 109 -25 -46 -198 42 -10 46 198 122 -28 -51 -220 42 -10 62 267zm-117 -469l-353 101 -20 -70 226 -155c21,-14 37,-25 47,-32 -14,0 -35,-1 -62,-3l-270 -14 -18 -63 353 -101 13 45 -295 85 325 18 12 42 -271 188 300 -86 13 45zm-169 -552l-347 119 -16 -46 347 -119 16 46zm-524 -349l-18 -45 197 -79c34,-14 63,-21 86,-21 23,0 45,7 66,22 21,15 38,39 51,72 13,32 18,60 15,85 -3,25 -13,46 -30,63 -17,17 -44,33 -80,47l-197 79 -18 -45 196 -79c30,-12 50,-24 62,-35 12,-11 19,-25 21,-41 2,-16 -1,-34 -8,-54 -13,-33 -30,-54 -51,-62 -21,-8 -52,-3 -95,14l-196 79zm240 -389l-333 155 -31 -66 199 -188c19,-18 32,-30 42,-39 -14,2 -34,4 -62,7l-268 28 -28 -59 333 -155 20 42 -278 130 323 -33 19 40 -238 228 283 -132 20 42zm-521 -762l-26 -38c15,-11 25,-23 32,-36 6,-13 8,-28 6,-46 -2,-18 -8,-36 -19,-54 -9,-16 -20,-29 -32,-38 -12,-10 -24,-15 -35,-16 -12,-1 -23,1 -32,7 -10,6 -17,14 -21,24 -4,10 -5,23 -2,39 2,10 7,32 17,66 10,33 15,57 16,73 1,20 -3,37 -10,51 -7,14 -19,26 -33,34 -16,9 -34,13 -53,12 -19,-1 -38,-8 -55,-22 -17,-13 -32,-31 -44,-52 -14,-24 -22,-47 -25,-69 -3,-22 0,-43 9,-61 9,-18 23,-33 41,-45l26 39c-19,14 -30,30 -33,48 -3,18 2,40 17,64 15,25 30,41 46,48 16,6 31,6 44,-2 11,-7 18,-16 21,-29 3,-12 -2,-38 -14,-76 -12,-39 -19,-66 -20,-82 -2,-23 1,-43 9,-60 8,-16 21,-29 38,-39 17,-10 36,-14 56,-13 21,1 40,8 59,22 19,13 35,31 48,54 17,29 26,55 29,80 3,24 -1,47 -11,68 -10,21 -26,38 -47,50zm-293 -383c-51,33 -100,45 -147,37 -47,-9 -84,-35 -112,-78 -18,-28 -28,-58 -30,-90 -1,-32 6,-61 23,-89 16,-28 40,-52 71,-72 31,-20 63,-32 96,-36 33,-3 63,2 91,17 28,15 50,36 68,62 19,29 29,59 29,91 1,32 -7,62 -24,89 -17,27 -38,50 -65,68zm-27 -42c37,-24 60,-53 68,-87 8,-34 3,-66 -17,-96 -20,-31 -47,-49 -81,-55 -34,-6 -71,4 -111,30 -25,16 -44,35 -57,55 -13,21 -20,42 -19,65 0,23 7,45 20,65 19,29 45,47 78,55 33,8 73,-3 119,-33zm-139 -514l-297 216 -146 -200 35 -25 117 161 92 -67 -101 -139 35 -25 101 139 135 -98 29 39zm-331 -433l-252 204 76 94 -34 27 -183 -226 34 -27 76 94 252 -204 31 38zm-271 -330l-196 325 -35 -36 134 -207c14,-22 28,-43 43,-63 -35,20 -55,32 -60,35l-227 122 -41 -42 97 -167c24,-41 49,-78 74,-111 -20,13 -43,27 -70,42l-210 122 -34 -35 334 -183 33 34 -147 250c-12,21 -20,34 -23,38 15,-9 28,-16 38,-22l255 -138 34 36zm-351 -361l-353 172 -38 -36 140 -371 40 38 -44 110 112 105 105 -54 38 35zm-180 38l-91 -85 -41 100c-13,30 -23,55 -33,73 20,-14 40,-27 62,-38l103 -51zm-202 -398l-241 277 -123 -107c-25,-21 -41,-40 -50,-56 -9,-16 -11,-34 -8,-53 3,-19 12,-37 25,-52 17,-20 38,-31 62,-33 24,-2 52,6 81,25 -6,-13 -9,-24 -10,-33 -2,-19 -2,-40 2,-63l17 -117 46 40 -13 90c-4,26 -6,46 -7,61 -1,15 0,26 2,35 2,8 6,16 10,22 3,4 10,11 19,19l42 37 107 -123 37 32zm-171 123l-79 -68c-17,-15 -31,-24 -44,-29 -13,-5 -24,-5 -36,-2 -12,3 -21,9 -29,18 -11,13 -16,28 -14,45 2,17 14,34 34,52l88 76 80 -92zm-220 -455l-226 289 -209 -163 27 -34 171 133 69 -89 -160 -125 27 -34 160 125 77 -98 -178 -139 27 -34 216 169zm-1047 -732l-178 321 -64 -35 50 -269c5,-25 8,-44 11,-56 -10,10 -25,24 -46,42l-201 181 -57 -32 178 -321 41 23 -149 269 242 -217 38 21 -59 325 151 -273 41 23zm-463 -258l-292 263 -47 -24 33 -395 49 25 -12 118 137 70 86 -81 46 23zm-163 86l-111 -57 -12 108c-4,33 -7,59 -11,80 15,-19 31,-37 50,-53l85 -78zm-307 -318l-149 335 -115 -51c-26,-12 -45,-22 -58,-31 -17,-13 -30,-28 -39,-46 -11,-23 -16,-48 -14,-75 2,-27 9,-56 22,-86 11,-25 24,-47 39,-64 15,-17 30,-30 45,-39 15,-9 30,-14 44,-17 14,-3 30,-2 47,1 17,3 36,9 56,18l121 54zm-62 20l-72 -32c-22,-10 -40,-16 -55,-17 -14,-1 -27,0 -38,4 -15,6 -30,16 -43,31 -14,15 -26,35 -38,61 -16,35 -22,65 -19,88 3,24 12,43 25,57 10,10 28,21 54,32l70 31 114 -256zm-411 -218l-132 343 -248 -95 16 -40 202 78 40 -105 -190 -73 15 -40 190 73 45 -117 -210 -81 16 -40 256 98zm-810 -277l-95 354 -133 -36c-27,-7 -48,-17 -62,-28 -14,-12 -24,-26 -30,-43 -5,-17 -6,-34 -1,-51 4,-15 12,-28 24,-39 12,-11 27,-19 46,-22 -20,-12 -33,-27 -41,-45 -7,-18 -8,-38 -3,-58 4,-17 12,-31 23,-43 11,-12 22,-21 35,-26 12,-5 27,-7 43,-7 17,0 36,3 59,9l135 36zm-102 193l-77 -21c-21,-6 -36,-8 -46,-8 -13,0 -23,4 -32,10 -8,7 -14,16 -17,29 -3,12 -3,23 0,33 3,11 10,19 19,25 10,6 27,13 53,19l71 19 29 -107zm44 -164l-88 -24c-15,-4 -26,-6 -32,-7 -11,-1 -21,0 -30,2 -8,3 -16,8 -23,15 -7,7 -12,17 -15,28 -4,13 -3,26 1,37 4,12 12,21 23,28 11,7 28,14 50,20l82 22 33 -122zm-515 -167l-32 152 94 236 -58 -12 -48 -123c-9,-23 -17,-46 -24,-69 -15,17 -32,35 -53,55l-92 91 -55 -12 187 -176 32 -152 47 10zm-732 -129l-45 364 -48 -6 18 -150 -189 -23 -18 150 -48 -6 45 -364 48 6 -21 172 189 23 21 -172 48 6zm-466 -51l-166 356 -52 -4 -124 -377 55 4 35 114 153 11 48 -108 51 4zm-116 143l-124 -9 31 104c9,32 16,57 21,78 6,-23 15,-46 25,-69l48 -104zm-408 -174l-6 367 -50 -1 -188 -291 -5 288 -47 -1 6 -367 50 1 188 292 5 -288 47 1zm-513 1l6 367 -126 2c-29,0 -50,-1 -65,-4 -21,-4 -39,-13 -54,-25 -20,-16 -34,-37 -44,-62 -10,-25 -15,-54 -16,-87 0,-28 2,-53 9,-74 6,-22 14,-40 24,-54 10,-14 21,-26 33,-34 12,-8 26,-15 43,-19 17,-4 37,-7 59,-7l132 -2zm-48 44l-78 1c-24,0 -43,3 -57,8 -14,5 -25,11 -33,20 -11,12 -20,27 -26,47 -6,20 -9,43 -8,71 1,38 8,68 20,88 13,20 29,34 47,41 13,5 34,7 63,6l77 -1 -5 -280z"/>
  <path class="fil1" d="M833 10593c0,-5390 4370,-9760 9760,-9760 5390,0 9760,4370 9760,9760 0,5390 -4370,9760 -9760,9760 -5390,0 -9760,-4370 -9760,-9760zm20352 0c0,-5850 -4743,-10593 -10593,-10593 -5850,0 -10593,4743 -10593,10593 0,5850 4743,10593 10593,10593 5850,0 10593,-4743 10593,-10593z"/>
  <path class="fil1" d="M4578 10593c0,-3332 2701,-6033 6033,-6033 3332,0 6033,2701 6033,6033 0,3332 -2701,6033 -6033,6033 -3332,0 -6033,-2701 -6033,-6033zm-199 0c0,3442 2790,6232 6232,6232 3442,0 6232,-2790 6232,-6232 0,-3442 -2790,-6232 -6232,-6232 -3442,0 -6232,2790 -6232,6232z"/>
  <g id="_405163160">
   <path class="fil1" d="M13558 13816c-233,0 -467,-41 -692,-125l-57 -21c-448,-152 -1002,-501 -1478,-931 -1240,-1134 -2367,-719 -2378,-715l-17 5c-432,107 -697,550 -590,986 81,330 413,535 741,456 120,-29 228,-116 290,-234 91,-175 88,-345 -9,-468 -83,-106 -221,-154 -351,-121 -77,19 -154,-28 -173,-104 -19,-77 28,-154 104,-173 239,-59 492,28 645,222 167,212 181,503 37,778 -99,190 -277,332 -476,379 -480,115 -967,-184 -1085,-666 -143,-586 211,-1180 791,-1329 125,-45 1340,-437 2664,773 442,398 972,733 1382,873l61 23c540,201 1143,115 1612,-231 447,-330 686,-829 656,-1369 -2,-42 -6,-85 -12,-127 -48,-382 -260,-719 -595,-950 -480,-329 -989,-374 -1398,-124 -370,226 -573,651 -517,1084 29,222 156,427 349,562 291,204 600,236 847,86 221,-134 342,-387 309,-645 -17,-132 -84,-248 -188,-329 -103,-79 -231,-114 -359,-97 -80,9 -150,-45 -160,-123 -10,-78 45,-150 123,-160 205,-27 407,28 571,154 165,127 271,311 298,519 48,370 -127,733 -444,926 -343,207 -776,171 -1159,-97 -259,-181 -429,-458 -468,-760 -70,-544 186,-1079 651,-1364 502,-307 1141,-258 1709,132 404,277 659,685 717,1150 6,49 11,98 13,147 36,639 -245,1228 -771,1615 -352,260 -769,394 -1190,394z"/>
   <path class="fil1" d="M7640 13816c-421,0 -838,-134 -1190,-394 -526,-388 -807,-977 -771,-1615 3,-49 7,-98 13,-147 59,-464 313,-873 717,-1150 568,-390 1207,-439 1709,-132 466,285 721,820 651,1364 -39,302 -210,579 -468,760 -382,268 -816,304 -1158,97 -318,-192 -492,-556 -444,-926 27,-207 132,-392 298,-519 164,-126 366,-181 571,-154 78,10 133,82 123,160 -10,78 -81,133 -160,123 -128,-18 -256,17 -359,97 -105,81 -172,197 -188,329 -33,258 88,511 309,645 247,149 555,118 846,-86 193,-135 320,-340 349,-562 56,-432 -147,-858 -517,-1084 -409,-250 -919,-205 -1399,124 -336,230 -547,567 -595,950 -5,42 -9,85 -12,127 -30,541 209,1040 656,1369 469,346 1072,432 1612,231l57 -21c414,-141 944,-476 1387,-875 1323,-1210 2537,-818 2663,-773 580,149 934,743 791,1329 -118,482 -606,781 -1085,666 -199,-48 -377,-190 -477,-379 -144,-275 -130,-565 37,-778 153,-194 406,-281 645,-222 77,19 123,97 104,173 -19,77 -96,123 -173,104 -129,-32 -267,15 -351,121 -97,123 -100,294 -9,468 61,118 170,205 290,234 328,79 660,-126 741,-456 107,-436 -158,-878 -590,-986l-17 -5c-46,-17 -1145,-413 -2377,714 -477,430 -1031,779 -1483,933l-54 20c-225,84 -459,125 -692,125z"/>
   <path class="fil1" d="M10264 9395l1 0 -1 0zm335 -306c-76,0 -167,111 -193,323l0 0c-58,469 79,1049 193,1425 114,-377 251,-957 193,-1425 -26,-212 -117,-323 -193,-323zm0 2334c-58,0 -111,-36 -133,-90 -18,-46 -446,-1127 -344,-1956 49,-396 275,-574 477,-574 202,0 428,177 477,574 102,830 -326,1911 -344,1956 -22,54 -74,90 -133,90z"/>
   <path class="fil1" d="M11853 10453l80 118c-107,72 -190,221 -247,359 136,-57 283,-140 355,-247 35,-53 6,-91 -8,-105 -16,-17 -52,-40 -100,-7l-80 -118zm-387 842c-37,0 -74,-15 -101,-42 -35,-34 -49,-84 -39,-132 13,-58 133,-575 447,-787 150,-101 335,-85 462,41 126,125 144,316 44,466 -211,316 -724,438 -782,450 -10,2 -20,3 -31,3z"/>
   <path class="fil1" d="M9217 10555c-24,0 -42,13 -52,24 -14,14 -43,52 -8,105 72,108 218,191 354,248 -57,-138 -139,-287 -246,-359 -18,-12 -34,-17 -48,-17zm515 740l-31 -3c-58,-13 -572,-134 -782,-450 -100,-150 -81,-341 45,-466 127,-126 312,-142 462,-41 314,212 434,729 447,787 10,48 -4,97 -39,132 -27,27 -64,42 -101,42z"/>
  </g>
  <path class="fil2" d="M7423 16203l-762 1320 -175 -101 762 -1320 175 101zm-554 -286l-1020 1133 -154 -138 206 -1425 -801 889 -144 -129 1020 -1133 154 138 -206 1426 801 -890 144 129zm-1188 -1091l-1249 874 -301 -430c-68,-97 -114,-175 -138,-235 -34,-83 -47,-165 -39,-246 10,-105 46,-204 110,-297 64,-94 151,-179 262,-257 95,-66 187,-114 275,-143 89,-29 169,-44 242,-42 72,1 136,12 193,34 56,22 112,57 167,105 55,48 109,110 162,186l316 451zm-263 -62l-187 -267c-58,-82 -111,-142 -159,-178 -48,-36 -96,-58 -143,-67 -66,-12 -141,-5 -222,19 -82,25 -169,70 -264,136 -131,91 -216,183 -256,275 -40,92 -51,177 -31,255 14,56 55,134 124,232l184 263 954 -668zm-2399 -1643l-72 -189 822 -316c143,-55 263,-82 359,-82 97,0 187,32 272,97 85,64 154,165 207,302 51,133 70,251 57,353 -13,102 -56,189 -130,258 -73,70 -185,133 -336,191l-822 316 -72 -188 821 -315c124,-47 210,-94 260,-139 50,-45 80,-102 90,-170 10,-68 0,-143 -31,-224 -53,-138 -123,-225 -208,-260 -85,-35 -217,-18 -396,51l-821 315zm767 -1006l-40 -187c75,-18 134,-47 179,-85 45,-39 77,-94 99,-167 22,-72 27,-152 16,-238 -9,-76 -29,-142 -59,-198 -30,-56 -66,-96 -109,-119 -43,-24 -88,-33 -135,-27 -48,6 -87,25 -119,57 -32,32 -56,81 -72,147 -11,43 -25,135 -41,279 -16,143 -36,244 -59,304 -29,77 -69,137 -121,179 -52,42 -112,67 -182,76 -76,9 -150,-3 -222,-39 -72,-35 -130,-92 -175,-171 -44,-79 -73,-169 -86,-271 -14,-112 -8,-213 18,-304 25,-90 71,-162 135,-217 64,-54 141,-89 229,-104l38 190c-94,22 -162,66 -204,132 -42,66 -55,156 -41,272 15,121 48,207 99,257 51,50 108,71 170,63 55,-7 97,-32 127,-75 30,-43 54,-148 71,-315 17,-167 35,-283 55,-347 30,-93 73,-165 130,-214 57,-50 127,-79 208,-89 81,-10 159,4 236,41 77,37 140,97 191,178 50,81 82,176 95,284 17,137 11,254 -18,351 -28,98 -79,177 -153,240 -74,62 -161,101 -262,116zm364 -1984l-1339 -117 -44 500 -179 -16 105 -1203 179 16 -44 502 1339 117 -18 201zm110 -971l-1441 -496 220 -639c44,-129 91,-222 140,-280 49,-58 113,-96 192,-113 80,-17 159,-12 238,15 102,35 177,98 224,188 47,90 57,208 28,353 42,-42 79,-72 111,-90 70,-38 152,-69 246,-92l479 -116 -83 240 -366 87c-105,26 -188,49 -246,70 -58,20 -102,41 -130,63 -28,22 -51,47 -69,74 -12,20 -26,55 -43,104l-76 221 640 220 -66 191zm-739 -468l141 -410c30,-87 44,-158 43,-214 -1,-56 -17,-103 -48,-142 -31,-39 -69,-67 -116,-83 -68,-23 -133,-18 -194,16 -61,34 -110,105 -147,212l-157 456 477 164zm1329 -1041l-1358 -692 92 -180 1358 692 -92 180zm302 -552l-1201 -938 678 -868 142 111 -554 709 368 287 519 -664 141 110 -519 664 409 319 576 -737 142 111 -700 896zm1986 -2018l-620 -1392 278 -124 768 839c71,78 124,137 158,177 -7,-58 -15,-143 -25,-256l-98 -1117 248 -110 620 1392 -178 79 -519 -1166 114 1346 -166 74 -930 -1006 528 1185 -178 79zm2300 -1444l-31 -176 636 -113 98 557c-84,95 -174,171 -271,229 -97,57 -200,96 -309,115 -147,26 -287,18 -419,-24 -132,-42 -239,-117 -321,-226 -83,-109 -137,-237 -163,-384 -26,-146 -19,-288 20,-425 38,-138 110,-247 214,-329 104,-81 231,-135 380,-162 108,-19 210,-19 304,1 94,19 171,56 232,110 61,54 113,129 157,226l-171 81c-36,-73 -75,-128 -116,-166 -41,-38 -95,-64 -162,-80 -66,-15 -138,-16 -214,-3 -91,16 -167,44 -228,83 -62,39 -108,85 -141,137 -33,52 -55,107 -69,165 -22,99 -23,203 -4,312 24,134 66,242 128,324 62,82 141,137 237,165 96,28 193,34 292,16 86,-15 167,-47 243,-94 76,-47 132,-94 168,-139l-49 -280 -441 78zm1090 441l186 -1513 302 37 226 1115c21,104 36,181 45,233 24,-53 61,-131 110,-233l491 -1008 269 33 -186 1513 -193 -24 155 -1266 -595 1212 -181 -22 -279 -1342 -158 1288 -193 -24zm2180 428l415 -1279 -478 -155 56 -171 1149 373 -56 171 -480 -156 -415 1279 -192 -62zm707 279l97 -190 190 97 -97 190 -190 -97zm1974 749l137 133c-52,57 -85,114 -100,171 -15,57 -12,121 11,193 23,72 63,141 119,206 51,58 104,102 159,131 56,29 108,42 157,38 49,-5 91,-22 127,-53 36,-31 58,-69 67,-114 9,-44 1,-99 -22,-162 -15,-42 -55,-126 -122,-254 -66,-128 -107,-223 -121,-284 -19,-80 -19,-152 0,-216 19,-64 55,-119 108,-165 58,-50 126,-81 205,-92 79,-11 159,4 241,44 81,41 155,100 223,177 74,85 126,172 155,262 29,89 32,174 10,256 -23,81 -67,153 -132,214l-138 -136c66,-71 98,-146 95,-223 -2,-78 -42,-160 -118,-249 -80,-92 -155,-144 -226,-157 -70,-13 -129,2 -177,43 -42,36 -62,81 -63,133 -1,53 38,153 118,301 79,148 129,254 148,319 27,94 31,178 12,250 -20,73 -61,136 -122,190 -61,53 -134,86 -219,98 -85,12 -170,-2 -258,-41 -87,-40 -166,-100 -238,-182 -91,-104 -151,-205 -182,-301 -31,-97 -33,-192 -7,-285 26,-93 77,-174 152,-243zm1240 1099c223,-119 430,-152 620,-99 190,53 336,174 437,364 66,124 96,252 90,383 -7,131 -49,251 -127,360 -78,109 -185,199 -319,270 -137,73 -273,110 -410,112 -137,2 -260,-33 -369,-104 -109,-72 -195,-166 -257,-283 -67,-127 -97,-256 -89,-388 8,-132 51,-252 130,-360 78,-108 177,-193 295,-256zm95 185c-162,86 -267,198 -314,334 -47,137 -35,271 35,403 71,134 177,219 317,256 140,36 297,9 471,-83 109,-58 195,-128 257,-208 62,-80 97,-168 104,-263 7,-95 -13,-187 -60,-276 -67,-126 -168,-212 -303,-256 -135,-45 -304,-13 -506,94zm19 1776l1485 -343 231 1002 -175 40 -186 -805 -460 106 161 697 -175 40 -161 -697 -675 156 -45 -197zm296 1723l1344 -47 -18 -502 180 -6 42 1207 -180 6 -18 -504 -1344 47 -7 -201zm-55 1230l1576 -51 -47 202 -1026 1c-108,1 -214,-2 -318,-8 150,75 236,118 259,130l938 514 -55 237 -801 39c-199,10 -383,8 -552,-6 89,40 192,90 306,149l901 453 -46 198 -1391 -750 44 -189 1204 -52c101,-4 163,-7 185,-6 -65,-31 -119,-59 -164,-84l-1059 -576 46 -201zm-382 1515l1049 1251 -105 190 -1636 -193 111 -201 490 68 309 -557 -323 -370 104 -187zm334 688l-251 452 446 65c135,20 245,39 329,59 -76,-65 -148,-135 -215,-213l-310 -363zm-1164 736l1115 1040 -461 494c-93,99 -173,165 -241,199 -68,33 -142,41 -222,25 -80,-17 -150,-54 -211,-111 -79,-74 -122,-161 -128,-263 -7,-102 33,-213 118,-334 -55,22 -101,34 -139,37 -80,6 -167,1 -262,-16l-484 -89 173 -186 370 69c107,19 191,31 253,36 61,5 110,4 144,-5 35,-9 66,-22 93,-39 19,-14 46,-39 82,-77l160 -171 -495 -462 137 -147zm485 728l-296 317c-63,67 -105,127 -126,178 -22,51 -26,101 -14,149 12,48 36,89 72,123 53,49 114,71 184,64 70,-6 143,-51 220,-134l329 -353 -369 -344zm-1615 398l896 1233 -891 648 -106 -146 728 -529 -274 -378 -682 496 -105 -145 682 -496 -305 -420 -757 550 -106 -146 920 -669z"/>
  <path class="fil2" d="M8918 17319l82 -356 134 31c27,6 48,15 63,26 15,11 25,25 31,42 6,17 7,34 3,50 -4,15 -11,29 -22,40 -11,12 -26,20 -45,24 20,11 34,26 42,44 8,18 10,37 5,58 -4,17 -11,31 -21,44 -10,13 -22,22 -34,27 -12,5 -27,8 -43,9 -17,0 -36,-2 -59,-7l-136 -31zm95 -196l77 18c21,5 36,7 46,6 13,-1 23,-5 31,-12 8,-7 13,-17 16,-29 3,-12 2,-23 -1,-33 -4,-10 -10,-18 -20,-24 -10,-6 -27,-12 -53,-18l-71 -16 -25 108zm-38 165l89 20c15,4 26,5 33,6 11,1 21,-1 29,-4 8,-3 16,-8 23,-16 7,-8 11,-17 14,-28 3,-13 2,-26 -2,-37 -5,-11 -12,-20 -24,-27 -11,-7 -28,-13 -51,-18l-82 -19 -28 122zm439 137l30 -152 -98 -234 58 11 50 122c9,23 17,45 25,68 14,-17 32,-35 52,-56l90 -92 55 11 -184 179 -30 152 -47 -9zm562 68l32 -364 162 14c32,3 57,8 73,16 16,8 29,21 38,38 9,18 12,36 10,56 -2,26 -12,47 -31,63 -18,16 -45,25 -81,27 12,7 21,14 28,21 13,14 25,31 36,52l55 105 -61 -5 -42 -80c-12,-23 -22,-41 -30,-53 -8,-12 -15,-21 -22,-26 -7,-5 -14,-9 -21,-12 -5,-2 -14,-3 -27,-4l-56 -5 -14 162 -48 -4zm66 -199l104 9c22,2 39,1 52,-2 13,-3 23,-10 30,-19 7,-9 12,-20 13,-32 2,-17 -3,-32 -15,-44 -11,-12 -31,-19 -58,-22l-115 -10 -11 121zm527 201c-17,14 -34,23 -49,28 -16,5 -32,8 -50,7 -29,-1 -51,-9 -66,-24 -15,-15 -22,-33 -22,-55 0,-13 4,-25 10,-35 6,-11 14,-19 24,-25 10,-6 21,-11 33,-14 9,-2 22,-4 40,-5 36,-3 63,-7 81,-13 0,-6 1,-10 1,-12 1,-18 -3,-31 -11,-39 -11,-11 -28,-16 -51,-17 -21,-1 -37,2 -47,9 -10,7 -18,20 -24,39l-44 -8c5,-19 12,-34 21,-45 10,-11 23,-20 41,-25 17,-6 38,-8 60,-7 23,1 41,4 55,10 14,6 24,13 31,21 6,8 11,19 13,31 1,8 1,22 1,41l-2 60c-1,42 -1,68 0,79 1,11 5,22 10,32l-47 -2c-4,-9 -7,-20 -8,-33zm0 -100c-17,6 -41,11 -74,14 -19,2 -32,5 -39,8 -8,3 -14,8 -18,14 -4,6 -7,13 -7,21 0,12 4,22 13,30 9,8 22,13 39,13 17,1 33,-3 47,-10 14,-7 24,-17 31,-30 5,-10 8,-25 9,-45l1 -17zm216 128l-90 -262 46 -2 47 151 18 56c1,-3 5,-21 12,-55l37 -157 46 -2 45 152 15 50 13 -52 40 -155 44 -2 -74 268 -47 2 -48 -157 -12 -45 -46 206 -47 2zm371 2l44 3c3,13 9,23 18,28 12,7 27,10 47,8 21,-2 36,-7 47,-17 11,-9 17,-22 20,-37 2,-9 1,-29 -2,-58 -18,25 -41,38 -70,41 -36,3 -66,-7 -88,-32 -22,-24 -35,-55 -38,-92 -2,-25 0,-49 8,-71 7,-22 19,-40 35,-53 16,-13 36,-21 59,-23 31,-3 58,8 80,31l-3 -32 41 -4 20 228c4,41 2,71 -5,88 -7,18 -19,33 -36,44 -17,12 -39,18 -66,21 -31,3 -58,-2 -78,-15 -21,-12 -32,-33 -34,-62zm23 -162c3,35 12,59 27,74 15,15 33,21 54,19 21,-2 37,-11 50,-28 13,-17 17,-42 14,-76 -3,-32 -12,-56 -28,-71 -16,-15 -34,-22 -54,-20 -20,2 -36,11 -49,29 -13,17 -17,42 -15,74zm313 125l44 1c3,13 10,22 19,27 12,7 28,9 47,7 21,-3 36,-9 46,-18 10,-10 16,-22 18,-37 1,-9 0,-29 -4,-58 -17,25 -39,40 -69,43 -36,4 -66,-5 -89,-29 -23,-24 -37,-54 -41,-90 -3,-25 -1,-49 5,-71 7,-22 18,-40 34,-54 16,-14 35,-22 59,-25 31,-4 58,6 81,28l-4 -32 41 -5 28 227c5,41 4,71 -2,89 -6,18 -18,33 -35,45 -17,12 -39,20 -65,23 -31,4 -58,0 -79,-12 -21,-12 -33,-32 -36,-60zm17 -163c4,34 14,59 30,73 16,14 34,20 54,17 20,-3 37,-12 49,-30 12,-18 16,-43 12,-77 -4,-32 -14,-56 -30,-70 -16,-15 -35,-21 -55,-18 -20,2 -36,13 -48,30 -12,18 -16,43 -12,74zm492 26c-14,17 -28,30 -41,39 -14,9 -30,15 -47,18 -29,6 -52,3 -70,-8 -18,-11 -29,-27 -33,-49 -2,-13 -2,-25 2,-37 4,-12 10,-22 18,-30 8,-8 18,-15 29,-21 8,-4 21,-9 38,-14 35,-11 60,-21 76,-31 -1,-6 -2,-10 -2,-12 -3,-18 -10,-30 -20,-36 -13,-8 -31,-10 -53,-5 -21,4 -35,11 -44,20 -8,9 -13,23 -14,43l-44 2c0,-19 4,-35 11,-48 7,-13 18,-24 34,-34 16,-9 35,-16 57,-21 22,-4 41,-5 56,-3 15,3 26,7 35,14 8,7 15,16 20,27 3,7 6,21 10,40l11 59c8,41 14,67 18,77 4,11 10,20 17,29l-46 9c-6,-8 -11,-18 -15,-30zm-23 -98c-15,10 -38,20 -69,31 -18,6 -30,12 -37,16 -7,5 -12,11 -15,18 -3,7 -4,14 -2,22 2,12 9,21 19,27 10,6 24,7 41,4 17,-3 31,-10 43,-20 12,-10 20,-22 23,-36 3,-11 2,-26 -1,-45l-3 -16zm189 90l-64 -257 39 -10 10 39c5,-21 12,-35 19,-43 7,-8 16,-13 26,-16 15,-4 31,-3 48,3l-5 44c-12,-4 -24,-4 -34,-2 -10,2 -17,7 -24,15 -6,8 -10,17 -10,28 -1,17 1,34 5,53l34 135 -44 11z"/>
  <g>
  </g>
  <g style="clip-path:url(#id0)">
   <g>
    <path class="fil3" d="M8040 5125l5106 0c-97,-45 -195,-88 -294,-128l-4517 0c-100,40 -198,83 -294,128z"/>
    <path class="fil3" d="M14859 6327l-8532 0c-42,42 -84,85 -125,128l8781 0c-41,-43 -82,-86 -125,-128z"/>
    <path class="fil3" d="M15864 7657l-10543 0c-24,42 -47,85 -70,128l10682 0c-23,-43 -46,-86 -70,-128z"/>
    <path class="fil3" d="M16409 8987l-11634 0c-12,43 -23,85 -34,128l11701 0c-11,-43 -22,-86 -34,-128z"/>
    <path class="fil3" d="M16619 10317l-12053 0c-2,43 -3,85 -4,128l12062 0c-1,-43 -3,-86 -4,-128z"/>
    <path class="fil3" d="M16534 11647l-11882 0c8,43 16,86 24,128l11834 0c8,-43 16,-85 24,-128z"/>
   </g>
  </g>
  <path class="fil4" d="M9717 9328c58,-469 364,-933 883,-933 518,0 825,464 883,933 27,221 22,467 -5,719 22,-18 45,-35 68,-50 310,-209 713,-174 979,89 38,38 72,79 101,122 75,-65 156,-125 243,-178 687,-420 1508,-300 2154,144 490,336 817,844 891,1435 7,58 13,117 16,176 44,779 -310,1505 -937,1967 -415,306 -916,473 -1432,473 -276,0 -550,-48 -810,-141 -245,102 -523,130 -799,64 -319,-76 -592,-298 -744,-588 -85,-162 -134,-337 -143,-511l-7 -6c-142,-129 -295,-247 -458,-347 -162,101 -314,218 -455,346l-8 7c-9,174 -58,349 -143,511 -151,290 -424,511 -744,588 -276,66 -554,38 -799,-64 -260,93 -533,141 -809,141 -516,0 -1017,-167 -1432,-473 -627,-462 -980,-1188 -937,-1967 3,-59 9,-117 16,-175 74,-592 401,-1100 892,-1436 646,-443 1467,-564 2154,-144 87,53 168,113 243,178 29,-43 62,-84 101,-122 266,-264 669,-299 979,-89 23,16 46,33 68,50 -28,-252 -32,-497 -5,-719zm894 7298c3332,0 6033,-2701 6033,-6033 0,-3332 -2701,-6033 -6033,-6033 -3332,0 -6033,2701 -6033,6033 0,3332 2701,6033 6033,6033z"/>
  <path class="fil2" d="M9313 15054c22,-70 39,-135 51,-197 13,-62 19,-107 19,-137 0,-7 -1,-12 -4,-15 -2,-4 -6,-5 -11,-5 -8,0 -17,6 -28,18 -11,12 -22,29 -34,51 -17,34 -31,69 -40,103 -9,34 -14,67 -14,97 0,24 5,43 16,58 10,15 25,24 45,28zm-23 49c-35,-3 -64,-20 -84,-49 -21,-29 -31,-67 -31,-114 0,-41 7,-80 22,-119 15,-38 36,-74 64,-107 23,-27 46,-48 69,-62 23,-15 44,-22 64,-22 25,0 44,8 57,24 13,16 19,40 19,73 0,14 -1,32 -4,53 -3,21 -7,49 -14,83 -8,41 -16,78 -25,112 -9,34 -18,62 -27,85 -23,61 -52,107 -86,137 -34,30 -74,45 -120,45 -33,0 -59,-7 -78,-20 -19,-13 -29,-31 -29,-54 0,-12 2,-22 7,-30 5,-8 11,-12 18,-13 8,15 18,26 30,33 12,7 27,11 45,11 22,0 42,-6 60,-18 18,-12 32,-28 43,-50zm213 64c-11,11 -23,19 -37,25 -14,6 -30,9 -48,10l14 -49c26,-1 47,-13 65,-36 18,-23 34,-60 49,-111 7,-25 14,-54 22,-88 10,-45 25,-68 46,-68 19,0 33,1 41,3 8,2 12,6 12,12 0,4 -8,25 -23,62 -15,37 -28,74 -40,109 38,-62 73,-106 104,-135 32,-28 62,-42 93,-42 15,0 27,4 36,12 9,8 13,20 13,34 0,17 -14,60 -42,130l-9 23c-6,15 -11,29 -14,41 -4,13 -5,22 -5,27 0,9 3,15 10,19 7,4 20,6 41,7l-14 49 -8 0c-40,0 -69,-5 -88,-16 -19,-11 -28,-28 -28,-50 0,-10 3,-27 11,-48 7,-22 18,-49 32,-83l3 -7c12,-28 19,-44 19,-50 0,-4 -1,-7 -3,-9 -2,-2 -5,-3 -10,-3 -14,0 -36,18 -67,55 -30,36 -56,81 -79,133 -5,10 -10,23 -15,38 -10,28 -30,42 -60,42 -10,0 -17,-1 -20,-3 -4,-2 -6,-5 -6,-10 0,-2 1,-6 2,-10 1,-4 3,-9 6,-15zm311 36l14 -49c13,-1 25,-2 36,-5 11,-3 20,-6 29,-11 -1,-6 -2,-11 -3,-17 -1,-6 -1,-13 -1,-20 0,-28 5,-56 16,-84 11,-28 26,-53 45,-76 24,-28 49,-49 76,-64 27,-14 55,-22 84,-22 11,0 22,1 33,4 10,3 21,7 33,13l57 -158c2,-5 4,-11 7,-20 14,-39 33,-59 57,-59 20,0 33,2 42,6 8,4 12,10 12,20 0,4 -3,14 -11,29 -5,9 -8,17 -11,23l-66 152c-24,55 -44,107 -59,157 -15,49 -23,81 -23,95 0,13 4,22 11,27 7,5 22,9 43,10l-14 49 -7 0c-38,0 -65,-4 -81,-12 -16,-8 -23,-22 -23,-41 0,-8 1,-19 4,-31 3,-12 8,-28 15,-48 -25,45 -50,78 -76,101 -26,22 -53,33 -80,33 -14,0 -26,-2 -38,-7 -11,-5 -19,-11 -24,-19 -10,7 -23,13 -38,17 -16,4 -35,7 -59,8zm343 -279c-4,-2 -9,-3 -13,-4 -4,-1 -8,-1 -12,-1 -17,0 -35,6 -53,18 -18,12 -36,29 -54,52 -16,20 -28,41 -38,63 -10,22 -15,41 -15,55 0,11 3,20 8,26 5,6 12,10 21,10 21,0 45,-19 72,-57 27,-38 55,-92 83,-162zm65 279l14 -49c15,-1 29,-3 42,-7 13,-4 26,-9 39,-17 0,-2 0,-3 0,-5 0,-2 0,-4 0,-8 0,-24 13,-73 38,-147 5,-14 8,-25 11,-32 2,-7 6,-16 9,-28 13,-39 25,-58 38,-58 17,0 33,3 49,9 16,6 24,13 24,20 0,3 -6,16 -17,40 -12,24 -22,48 -31,70 -15,37 -26,65 -32,84 -6,19 -9,33 -9,42 0,8 2,13 6,17 4,4 9,6 16,6 17,0 35,-13 57,-40 21,-27 42,-63 61,-108 11,-25 21,-53 30,-87 10,-34 23,-51 40,-51 16,0 30,3 42,8 12,5 18,12 18,19 0,3 -6,16 -17,41 -11,25 -21,48 -30,70 -12,31 -21,57 -27,78 -6,21 -8,38 -8,51 0,12 3,21 10,25 6,5 19,7 38,8l-14 49 -7 0c-35,0 -59,-4 -72,-12 -13,-8 -20,-22 -20,-43 0,-8 1,-19 4,-31 3,-12 7,-28 13,-48 -36,53 -65,89 -86,107 -21,18 -44,27 -67,27 -16,0 -28,-3 -39,-8 -10,-5 -18,-13 -22,-24 -14,10 -29,17 -45,22 -16,5 -35,8 -56,10zm542 -92c9,3 17,9 24,16 7,7 12,16 16,27 23,-5 41,-16 54,-35 13,-19 20,-42 20,-70 0,-11 -1,-23 -3,-35 -2,-12 -6,-26 -10,-41 -9,21 -23,43 -40,67 -17,24 -37,47 -60,71zm-145 92l14 -49c23,-3 54,-25 91,-66 38,-41 77,-96 117,-165 -5,-5 -8,-10 -10,-16 -2,-6 -3,-12 -3,-20 0,-19 7,-35 22,-49 15,-14 32,-20 53,-20 12,0 22,3 29,10 7,6 11,15 11,26 0,10 -3,21 -9,31 -6,10 -15,21 -27,31 21,24 37,46 46,66 9,20 14,41 14,62 0,19 -3,38 -10,56 -7,18 -16,33 -28,46 5,3 12,5 19,6 7,1 16,2 26,2l8 0 -14 49 -11 0c-14,0 -27,-1 -39,-4 -12,-3 -25,-7 -37,-12 -15,6 -29,11 -43,14 -14,3 -27,4 -38,4 -19,0 -37,-3 -54,-9 -17,-6 -31,-15 -42,-26 -12,9 -25,16 -39,22 -14,6 -29,9 -46,12zm349 0l14 -49c27,-3 48,-12 64,-28 15,-16 29,-44 40,-86l31 -108 -35 0c-5,0 -9,-1 -11,-2 -2,-1 -3,-4 -3,-7 0,0 0,-1 0,-2 0,-1 1,-2 1,-4l6 -17c1,-5 4,-8 7,-10 3,-2 10,-2 21,-2l27 0 36 -118c2,-6 4,-15 7,-26 8,-32 23,-47 45,-47 16,0 29,2 38,6 9,4 13,10 13,17 0,5 -3,14 -8,28 -3,7 -5,13 -7,18l-42 123 61 0c5,0 8,1 11,2 2,1 4,3 4,6 0,1 0,2 0,3 0,1 0,2 -1,3l-6 18c-1,5 -4,8 -8,10 -4,2 -11,3 -20,3l-54 0 -36 118c-4,13 -7,25 -9,34 -2,10 -3,17 -3,24 0,14 7,25 20,33 13,8 33,12 59,14l-14 49 -9 0c-32,0 -60,-4 -81,-11 -22,-8 -38,-19 -47,-34 -16,13 -33,24 -52,32 -19,8 -38,12 -58,13zm247 0l14 -49c30,-5 58,-26 83,-62 25,-36 54,-98 87,-187 -6,-6 -10,-12 -12,-19 -3,-7 -4,-15 -4,-23 0,-17 5,-32 14,-44 10,-12 22,-17 36,-17 13,0 24,4 32,11 8,7 12,17 12,29 0,6 -1,11 -2,16 -1,5 -3,10 -6,15 12,8 28,17 48,28 36,19 54,38 54,57 0,16 -10,44 -29,85 -20,41 -29,68 -29,83 0,9 3,15 10,18 7,3 24,6 52,9l-14 49 -11 0c-44,0 -75,-5 -95,-15 -19,-10 -29,-26 -29,-49 0,-20 9,-50 28,-90 18,-40 28,-65 28,-76 0,-5 -3,-11 -9,-17 -6,-6 -17,-13 -32,-22 -33,94 -66,162 -101,203 -35,41 -76,63 -123,66zm346 0l14 -49c29,-1 53,-17 74,-48 20,-31 39,-81 57,-152 3,-11 6,-25 9,-43 7,-37 31,-55 72,-55 9,0 17,1 22,4 5,3 7,7 7,12 0,7 -4,22 -13,43 -8,21 -14,38 -18,49l-35 106 -1 4c-9,26 -13,42 -13,50 0,10 3,17 10,21 7,4 21,7 42,8l-14 49 -13 0c-31,0 -55,-4 -71,-12 -16,-8 -25,-21 -28,-39 -14,17 -30,29 -47,37 -17,8 -35,13 -56,14zm246 -458c-14,0 -25,-4 -33,-11 -8,-8 -11,-19 -11,-33 0,-18 6,-34 17,-46 11,-13 25,-19 41,-19 13,0 24,4 32,13 9,8 13,19 13,33 0,18 -6,33 -17,45 -11,12 -25,18 -42,18zm148 344c25,-16 47,-39 64,-67 17,-28 26,-53 26,-73 0,-10 -3,-18 -8,-24 -5,-5 -12,-8 -22,-8 -20,0 -38,12 -54,36 -16,24 -23,51 -23,83 0,12 1,22 4,31 3,9 7,16 13,23zm-38 77c-24,11 -47,20 -71,26 -24,6 -48,10 -72,11l15 -49c17,-1 32,-3 46,-7 14,-3 28,-8 41,-14 -9,-12 -16,-26 -20,-42 -4,-16 -7,-34 -7,-55 0,-49 17,-91 50,-127 33,-36 72,-54 118,-54 25,0 45,8 60,23 15,15 22,36 22,62 0,29 -10,60 -32,95 -21,35 -49,65 -84,92 10,9 21,16 33,20 12,4 27,6 44,6l5 0 -14 49 -10 0c-27,0 -51,-3 -72,-9 -21,-6 -39,-15 -54,-28z"/>
 </g>
</svg>
