<?xml version="1.0" encoding="UTF-8"?>
<!DOCTYPE svg PUBLIC "-//W3C//DTD SVG 1.1//EN" "http://www.w3.org/Graphics/SVG/1.1/DTD/svg11.dtd">
<!-- Creator: CorelDRAW X5 -->
<svg xmlns="http://www.w3.org/2000/svg" xml:space="preserve" width="2.8in" height="4.33333in" style="shape-rendering:geometricPrecision; text-rendering:geometricPrecision; image-rendering:optimizeQuality; fill-rule:evenodd; clip-rule:evenodd"
viewBox="0 0 2516 3894"
 xmlns:xlink="http://www.w3.org/1999/xlink">
 <defs>
  <style type="text/css">
   <![CDATA[
    .fil0 {fill:none}
    .fil5 {fill:#373435}
    .fil3 {fill:#1A1A1A}
    .fil1 {fill:#5E5858}
    .fil2 {fill:#373435;fill-rule:nonzero}
    .fil4 {fill:#1A1A1A;fill-rule:nonzero}
   ]]>
  </style>
    <clipPath id="id0">
     <path d="M707 3305c2,-14 11,-27 26,-27 15,0 24,14 26,27 1,6 1,14 0,21 1,-1 1,-1 2,-1 9,-6 21,-5 29,3 1,1 2,2 3,4 2,-2 5,-4 7,-5 20,-12 44,-9 63,4 14,10 24,25 26,42 0,2 0,3 0,5 1,23 -9,44 -27,57 -12,9 -27,14 -42,14 -8,0 -16,-1 -24,-4 -7,3 -15,4 -23,2 -9,-2 -17,-9 -22,-17 -2,-5 -4,-10 -4,-15l0 0c-4,-4 -9,-7 -13,-10 -5,3 -9,6 -13,10l0 0c0,5 -2,10 -4,15 -4,8 -12,15 -22,17 -8,2 -16,1 -23,-2 -8,3 -16,4 -24,4 -15,0 -30,-5 -42,-14 -18,-13 -29,-35 -27,-57 0,-2 0,-3 0,-5 2,-17 12,-32 26,-42 19,-13 43,-16 63,-4 3,2 5,3 7,5 1,-1 2,-2 3,-4 8,-8 20,-9 29,-3 1,0 1,1 2,1 -1,-7 -1,-15 0,-21zm26 213c97,0 176,-79 176,-176 0,-97 -79,-176 -176,-176 -97,0 -176,79 -176,176 0,97 79,176 176,176z"/>
    </clipPath>
 </defs>
 <g id="Layer_x0020_1">
  <metadata id="CorelCorpID_0Corel-Layer"/>
  <rect class="fil0" width="2516" height="3894"/>
  <g id="_527481496">
   <polygon class="fil1" points="374,2801 347,2801 347,2714 374,2714 "/>
   <polygon class="fil1" points="413,2801 387,2801 387,2714 413,2714 "/>
   <polygon class="fil1" points="524,2801 497,2801 497,2714 524,2714 "/>
   <polygon class="fil1" points="564,2801 537,2801 537,2714 564,2714 "/>
   <polygon class="fil1" points="2048,2794 1767,2794 1767,2770 2048,2770 "/>
   <polygon class="fil1" points="2048,2833 1767,2833 1767,2810 2048,2810 "/>
   <polygon class="fil1" points="789,2783 763,2783 763,2747 789,2747 "/>
   <polygon class="fil1" points="829,2783 803,2783 803,2747 829,2747 "/>
   <polygon class="fil1" points="874,2783 847,2783 847,2747 874,2747 "/>
   <polygon class="fil1" points="914,2783 887,2783 887,2747 914,2747 "/>
   <polygon class="fil1" points="959,2783 932,2783 932,2747 959,2747 "/>
   <polygon class="fil1" points="998,2783 972,2783 972,2747 998,2747 "/>
   <polygon class="fil1" points="1043,2783 1016,2783 1016,2747 1043,2747 "/>
   <polygon class="fil1" points="1083,2783 1056,2783 1056,2747 1083,2747 "/>
   <polygon class="fil1" points="1128,2783 1101,2783 1101,2747 1128,2747 "/>
   <polygon class="fil1" points="1167,2783 1141,2783 1141,2747 1167,2747 "/>
   <polygon class="fil1" points="1212,2783 1186,2783 1186,2747 1212,2747 "/>
   <polygon class="fil1" points="1252,2783 1225,2783 1225,2747 1252,2747 "/>
   <path class="fil1" d="M1974 2009l-2 2c7,6 10,15 10,24 0,8 -3,17 -9,23l0 0 0 0c-6,6 -15,10 -24,10 -8,0 -16,-3 -22,-8l0 0 -12 -11 -4 15 0 0c-2,7 -6,14 -11,19l0 0c-2,2 -4,4 -6,5l2 3 -2 -3 -6 4 2 7 0 0c1,3 1,5 1,8 0,4 -1,7 -2,10l0 0c-4,13 -17,22 -31,22 -3,0 -6,0 -9,-1l0 0 -15 -4 3 16 0 0c0,2 1,5 1,7 0,5 -1,10 -2,14l0 0c-6,18 -23,30 -42,30 -3,0 -5,0 -8,-1l0 0 -8 -1 -3 7c-7,15 -22,24 -38,24 -5,0 -9,-1 -13,-2l0 0 0 0c-12,-4 -21,-13 -26,-25l0 0 -2 -6 -6 -1 0 0c0,0 -1,0 -1,0l0 0 -9 -2 -3 7 0 0c-3,7 -9,13 -15,18l0 0 -2 1 -1 1 -1 5 3 1 -3 -1c-4,11 -14,19 -26,19 -3,0 -5,0 -8,-1l0 0 -12 -4 -2 12 0 0c0,1 0,2 -1,3l0 0c-1,3 -2,5 -5,6 -2,1 -5,2 -7,2 -1,0 -3,0 -4,-1l0 0 0 0c-3,-1 -6,-3 -7,-6l0 0c-1,-2 -1,-4 -1,-6 0,-1 0,-3 1,-4l0 0c2,-5 6,-8 11,-8l12 -1 -3 -12 0 0c-1,-2 -1,-5 -1,-8 0,-2 0,-4 1,-5l0 0 0 -2 0 -1 -2 -3 0 0c-4,-6 -6,-14 -6,-21 0,-4 1,-9 2,-13l0 0c6,-17 22,-28 39,-28 1,0 3,0 4,0l0 -3 0 3 8 1 3 -7 0 0c1,-3 3,-6 5,-9l0 0 2 -2 1 -1 -1 -4 0 0c-1,-3 -1,-6 -1,-9 0,-4 1,-8 2,-12l0 0c5,-16 20,-26 37,-26 4,0 8,1 12,2l0 0c4,2 9,4 12,7l0 0 8 6 7 -7 0 0c5,-6 12,-9 19,-11l0 0 9 -2 -1 -9 0 0c0,-1 0,-2 0,-3 0,-11 4,-21 12,-29l0 0c8,-8 18,-13 30,-13 8,0 15,2 22,6l0 0 7 4 6 -5 -2 -2 2 2c3,-2 5,-5 8,-6l0 0 3 -2 1 -1 1 -4 0 0c1,-7 5,-14 10,-19l0 0c7,-8 17,-12 28,-12 10,0 20,4 27,11l0 0c3,3 6,7 8,12l0 0 4 9 9 -4 0 0c4,-2 8,-3 13,-3 9,0 17,3 23,9l0 0 2 -2 2 -2c-7,-7 -17,-11 -28,-11 -5,0 -11,1 -15,3l0 0 -3 1 -1 -3 0 0c-2,-5 -6,-10 -10,-14l0 0c-9,-8 -20,-13 -32,-13 -12,0 -24,5 -33,14l0 0c-6,6 -10,14 -12,22l0 0 0 1 -1 1 0 0 0 0c-3,2 -6,4 -9,7l0 0 -2 2 -2 -1 0 0c-8,-5 -16,-7 -25,-7 -13,0 -25,5 -35,15l0 0c-9,9 -14,21 -14,34 0,1 0,2 0,3l0 0 0 3 -3 1 0 0c-9,2 -17,6 -23,13l-2 2 -3 -2 0 0c-4,-4 -9,-6 -15,-8l0 0c-5,-2 -10,-2 -15,-2 -19,0 -37,12 -43,31l0 0c-2,5 -2,10 -2,14 0,4 0,7 1,11l0 0 0 1 -1 1 0 0c-2,3 -4,7 -5,11l0 0 -1 2 -3 0 0 0 0 0c-2,0 -3,0 -5,0 -21,0 -39,13 -46,33l0 0c-2,5 -3,10 -3,15 0,8 2,17 6,24l0 0 1 1 0 1 0 0 0 0c0,2 -1,4 -1,7 0,3 0,6 1,10l1 4 -4 0c-7,1 -14,6 -16,13l0 0c-1,2 -1,4 -1,6 0,3 1,6 2,9l0 0c2,5 6,8 11,10l1 -3 -1 3c2,1 4,1 6,1 4,0 8,-1 11,-4 3,-2 6,-6 7,-10l0 0c0,-1 1,-2 1,-4l0 0 1 -4 4 1 0 0c3,1 7,2 10,2 15,0 28,-9 32,-23l0 0 1 -2 1 -1 0 0c8,-5 14,-12 18,-21l1 -2 3 1 0 0c1,0 1,0 2,0l0 0 2 0 1 2 0 0c5,14 16,25 30,29l0 0c5,2 10,3 15,3 19,0 36,-11 44,-28l1 -2 3 0 0 0c3,1 6,1 9,1 22,0 41,-14 48,-35l0 0c2,-5 3,-11 3,-16 0,-3 0,-6 -1,-9l0 0 -1 -5 5 1 0 0c4,1 7,2 11,2 17,0 32,-11 38,-27l0 0c1,-4 2,-8 2,-13 0,-3 0,-6 -1,-10l0 0 -1 -2 2 -1 0 0 0 0c3,-2 5,-4 7,-6l0 0c6,-6 10,-14 13,-22l1 -5 4 4 0 0c7,6 17,10 26,10 11,0 21,-4 28,-12l0 0c7,-8 11,-18 11,-28 0,-10 -4,-21 -12,-28l0 0 0 0 -2 2z"/>
   <path class="fil1" d="M263 2602l30 -9 0 49 161 -49 0 49 161 -49 0 184 103 5 0 -105 88 0 11 -111 17 0 5 -185 -7 -2c-1,0 -1,-1 -1,-1 0,-1 1,-1 1,-1l41 0c1,0 1,1 1,1 0,1 0,1 -1,1l-6 3 4 184 13 0 9 111 80 0 11 -111 12 0 6 -280 -9 -1c-1,0 -1,-1 -1,-1 0,-1 1,-1 1,-1l41 0c1,0 1,1 1,1 0,0 0,1 -1,1l-5 3 5 278 16 0 9 111 86 0 11 -111 11 0 7 -361 -7 -2c-1,0 -1,-1 -1,-1 0,-1 1,-1 1,-1l41 0c1,0 1,1 1,1 0,1 0,1 -1,1l-6 3 5 360 16 0 9 111 76 0 0 105 89 0 0 -11 31 0 2 -1c31,-16 53,-52 64,-104l1 -5 -4 -4c-12,-12 -20,-28 -22,-45l-1 -9 -7 0 0 -15 7 0 0 -140c0,-38 29,-71 66,-77l9 -1 0 -14 8 0 0 14 8 1c37,7 64,39 64,77l0 140 8 0 0 15 -8 0 -1 9c-2,15 -8,30 -18,41l-3 4 1 5c10,55 32,92 64,108l2 1 44 0 0 -51 46 0 0 -112c0,-17 13,-31 29,-33l3 0 3 0c17,1 31,16 31,33l0 112 78 0 0 -112c0,-17 13,-31 30,-33l3 0 3 0c17,2 30,16 30,33l0 112 134 0 0 89 55 0 0 91 41 0 3 -4c10,-13 27,-38 44,-75l0 -17c-19,45 -38,73 -49,88l-1 1 -31 0 0 -91 -55 0 0 -89 -134 0 0 -106c0,-21 -16,-38 -36,-40l-4 0 -4 0c-20,2 -36,19 -36,40l0 106 -65 0 0 -106c0,-21 -16,-38 -37,-40l-4 0 -4 1c-20,2 -35,20 -35,40l0 106 -46 0 0 51 -35 0 -1 0c-30,-15 -51,-51 -61,-103l0 -2 1 -1c11,-13 18,-28 20,-45l0 -3 9 0 0 -28 -8 0 0 -73 2 0 0 -9 -2 0 0 -51c0,-41 -29,-76 -70,-83l-3 0 0 -15 -21 0 0 15 -3 0c-41,6 -72,42 -72,84l0 51 -1 0 0 9 1 0 0 73 -7 0 0 28 7 0 0 3c2,19 11,36 24,49l1 1 0 2c-10,50 -31,84 -60,99l-1 0 -36 0 0 11 -75 0 0 -105 -77 0 -9 -111 -15 0 -5 -349 2 -1c3,-1 5,-4 5,-7 0,-4 -4,-8 -8,-8l-41 0c-4,0 -8,4 -8,8 0,4 2,7 6,8l2 1 -7 349 -11 0 -11 111 -74 0 -9 -111 -16 0 -5 -268 2 -1c2,-1 4,-4 4,-7 0,-4 -4,-8 -8,-8l-41 0c-4,0 -8,4 -8,8 0,4 3,7 7,8l3 0 -6 267 -11 0 -11 111 -67 0 -9 -111 -13 0 -4 -173 2 -1c3,-1 5,-4 5,-7 0,-4 -4,-8 -8,-8l-41 0c-4,0 -8,4 -8,8 0,4 2,7 6,8l2 1 -5 173 -16 0 -11 111 -88 0 0 105 -89 -5 0 -187 -161 49 0 -49 -161 49 0 -49 -37 11 0 7z"/>
  </g>
  <path class="fil2" d="M342 763c16,-50 28,-97 37,-141 9,-44 13,-77 13,-98 0,-5 -1,-8 -3,-11 -2,-3 -4,-4 -8,-4 -6,0 -12,4 -20,13 -8,9 -16,21 -24,37 -12,25 -22,49 -29,74 -7,25 -10,48 -10,70 0,17 4,31 11,41 7,11 18,17 32,20zm-17 35c-25,-2 -46,-14 -60,-35 -15,-21 -22,-48 -22,-82 0,-29 5,-57 16,-85 10,-27 26,-53 46,-76 17,-19 33,-34 50,-45 17,-10 32,-16 46,-16 18,0 32,6 41,17 9,11 14,29 14,52 0,10 -1,23 -3,38 -2,15 -5,35 -10,59 -6,29 -11,56 -18,80 -6,24 -13,44 -19,61 -17,44 -37,76 -61,98 -24,21 -53,32 -86,32 -24,0 -42,-5 -56,-14 -14,-9 -21,-22 -21,-38 0,-9 2,-16 5,-21 3,-6 8,-9 13,-9 6,11 13,19 21,24 9,5 19,8 32,8 16,0 30,-4 43,-13 13,-8 23,-20 31,-35z"/>
  <path id="1" class="fil2" d="M478 843c-8,8 -17,14 -27,18 -10,4 -22,7 -35,7l10 -35c18,-1 34,-9 46,-26 13,-16 24,-43 35,-80 5,-18 10,-39 16,-63 7,-32 18,-49 33,-49 14,0 24,1 29,2 6,2 9,4 9,8 0,3 -5,18 -16,45 -11,27 -20,53 -29,78 27,-44 52,-76 75,-97 23,-20 45,-30 66,-30 11,0 20,3 26,9 6,6 9,14 9,24 0,12 -10,43 -30,93l-7 16c-4,11 -8,21 -10,30 -3,9 -4,16 -4,19 0,6 2,11 7,14 5,3 15,4 29,5l-10 35 -6 0c-29,0 -49,-4 -63,-11 -13,-8 -20,-20 -20,-36 0,-7 2,-19 8,-34 5,-16 13,-35 23,-59l2 -5c9,-20 13,-32 13,-35 0,-3 -1,-5 -2,-7 -2,-1 -4,-2 -7,-2 -10,0 -26,13 -48,39 -22,26 -40,58 -57,95 -3,7 -7,17 -11,27 -7,20 -22,30 -43,30 -7,0 -12,-1 -15,-2 -3,-1 -4,-4 -4,-7 0,-2 0,-4 1,-7 1,-3 2,-7 5,-11z"/>
  <path id="12" class="fil2" d="M700 869l10 -35c10,-1 18,-2 26,-4 8,-2 14,-5 20,-8 -1,-4 -2,-8 -2,-12 0,-4 -1,-9 -1,-14 0,-20 4,-40 11,-60 8,-20 18,-38 32,-54 17,-20 35,-35 55,-45 19,-10 39,-15 60,-15 8,0 16,1 24,3 7,2 15,5 24,9l41 -113c1,-3 3,-8 5,-14 10,-28 23,-42 40,-42 14,0 24,1 30,4 6,3 9,7 9,14 0,3 -2,10 -8,21 -3,7 -6,12 -8,16l-47 109c-17,39 -31,77 -42,112 -11,35 -16,58 -16,68 0,9 3,16 8,20 5,4 16,6 31,7l-10 35 -5 0c-27,0 -47,-3 -58,-9 -11,-6 -17,-15 -17,-29 0,-6 1,-14 3,-22 2,-9 6,-20 10,-34 -18,32 -36,56 -54,72 -18,16 -38,24 -58,24 -10,0 -19,-2 -27,-5 -8,-3 -14,-8 -17,-14 -7,5 -16,9 -27,12 -11,3 -25,5 -42,6zm245 -199c-3,-1 -6,-2 -9,-3 -3,-1 -6,-1 -9,-1 -12,0 -25,4 -38,13 -13,8 -26,21 -39,37 -11,14 -20,29 -27,45 -7,16 -10,29 -10,40 0,8 2,14 6,19 4,5 9,7 15,7 15,0 32,-13 52,-40 19,-27 39,-66 60,-116z"/>
  <path id="123" class="fil2" d="M992 869l10 -35c10,-1 20,-2 30,-5 10,-3 19,-7 28,-12 0,-1 0,-2 0,-4 0,-1 0,-3 0,-6 0,-17 9,-52 27,-106 3,-10 6,-18 8,-23 2,-5 4,-11 7,-20 9,-28 18,-42 27,-42 12,0 23,2 35,7 11,4 17,9 17,14 0,2 -4,12 -12,29 -8,17 -16,34 -22,50 -11,26 -18,46 -23,60 -4,14 -7,24 -7,30 0,5 1,10 4,12 3,3 7,4 12,4 12,0 25,-10 41,-29 15,-19 30,-45 44,-77 8,-18 15,-38 22,-62 7,-25 17,-37 29,-37 11,0 22,2 30,6 9,4 13,8 13,14 0,2 -4,12 -12,30 -8,18 -15,34 -21,50 -9,22 -15,40 -19,56 -4,15 -6,27 -6,36 0,9 2,15 7,18 5,3 14,5 27,6l-10 35 -5 0c-25,0 -42,-3 -52,-9 -10,-6 -15,-16 -15,-31 0,-6 1,-13 3,-22 2,-9 5,-20 9,-34 -26,38 -46,64 -61,76 -15,13 -31,19 -48,19 -11,0 -20,-2 -28,-6 -7,-4 -13,-10 -16,-17 -10,7 -21,12 -32,16 -11,4 -25,6 -40,7z"/>
  <path id="1234" class="fil2" d="M1380 803c7,2 12,6 17,11 5,5 9,11 12,19 16,-3 29,-12 38,-25 9,-13 14,-30 14,-50 0,-8 -1,-16 -2,-25 -2,-9 -4,-19 -7,-29 -7,15 -16,31 -29,48 -12,17 -27,34 -43,51zm-104 66l10 -35c17,-2 39,-18 65,-47 27,-30 55,-69 84,-118 -3,-3 -6,-7 -7,-11 -2,-4 -2,-9 -2,-14 0,-14 5,-25 16,-35 10,-10 23,-15 38,-15 9,0 16,2 21,7 5,5 8,11 8,19 0,7 -2,15 -7,22 -4,7 -11,15 -20,22 15,17 26,33 33,47 7,14 10,29 10,44 0,14 -2,27 -7,40 -5,13 -11,24 -20,33 4,2 9,4 14,5 5,1 11,2 19,2l6 0 -10 35 -8 0c-10,0 -19,-1 -28,-3 -9,-2 -18,-5 -27,-9 -11,4 -21,8 -31,10 -10,2 -19,3 -28,3 -14,0 -26,-2 -39,-7 -12,-4 -22,-11 -30,-18 -8,6 -18,12 -28,16 -10,4 -21,7 -33,8z"/>
  <path id="12345" class="fil2" d="M1526 869l10 -35c20,-2 35,-8 46,-20 11,-11 21,-32 29,-61l22 -78 -25 0c-4,0 -6,0 -8,-1 -1,-1 -2,-3 -2,-5 0,0 0,-1 0,-1 0,-1 0,-2 1,-3l4 -12c1,-3 3,-6 5,-7 2,-1 7,-2 15,-2l19 0 26 -85c1,-5 3,-11 5,-19 5,-23 16,-34 32,-34 11,0 20,1 27,4 6,3 10,7 10,12 0,3 -2,10 -6,20 -2,5 -4,9 -5,13l-30 88 44 0c3,0 6,0 8,1 2,1 3,2 3,5 0,1 0,2 0,2 0,1 0,1 0,2l-4 13c-1,3 -3,6 -6,7 -3,1 -8,2 -15,2l-38 0 -26 84c-3,9 -5,18 -7,24 -1,7 -2,12 -2,17 0,10 5,18 14,23 9,6 23,9 42,10l-10 35 -6 0c-23,0 -43,-3 -58,-8 -16,-6 -27,-13 -34,-24 -11,10 -23,17 -37,23 -13,6 -27,9 -41,9z"/>
  <path id="123456" class="fil2" d="M1702 869l10 -35c22,-4 41,-18 59,-44 18,-26 39,-70 62,-134 -4,-4 -7,-8 -9,-13 -2,-5 -3,-10 -3,-17 0,-12 3,-23 10,-31 7,-8 16,-12 26,-12 10,0 17,3 23,8 6,5 8,12 8,21 0,4 0,8 -1,12 -1,4 -2,7 -4,11 9,6 20,12 34,20 26,14 38,27 38,41 0,11 -7,32 -21,61 -14,29 -21,49 -21,59 0,6 2,11 7,13 5,2 17,5 37,6l-10 35 -8 0c-31,0 -54,-4 -68,-11 -14,-7 -21,-19 -21,-35 0,-14 7,-36 20,-64 13,-28 20,-47 20,-55 0,-4 -2,-8 -7,-12 -5,-4 -12,-9 -23,-16 -23,67 -47,116 -72,145 -25,30 -54,45 -88,47z"/>
  <path id="1234567" class="fil2" d="M1950 869l10 -35c21,-1 38,-12 53,-34 15,-22 28,-58 41,-109 2,-8 4,-18 7,-31 5,-26 22,-39 52,-39 7,0 12,1 16,3 4,2 5,5 5,9 0,5 -3,15 -9,30 -6,15 -10,27 -13,35l-25 76 -1 3c-6,18 -9,30 -9,36 0,7 2,12 7,15 5,3 15,5 30,6l-10 35 -9 0c-22,0 -39,-3 -51,-9 -11,-6 -18,-15 -20,-28 -10,12 -21,21 -33,27 -12,6 -25,9 -40,10zm176 -328c-10,0 -18,-3 -23,-8 -5,-6 -8,-13 -8,-23 0,-13 4,-24 12,-33 8,-9 18,-13 29,-13 9,0 17,3 23,9 6,6 9,14 9,23 0,13 -4,24 -12,32 -8,9 -18,13 -30,13z"/>
  <path id="12345678" class="fil2" d="M2232 788c18,-12 33,-28 46,-48 12,-20 19,-38 19,-53 0,-7 -2,-13 -6,-17 -4,-4 -9,-6 -16,-6 -15,0 -27,8 -38,25 -11,17 -17,37 -17,59 0,9 1,16 3,22 2,6 5,12 9,17zm-27 55c-17,8 -34,14 -51,19 -17,4 -34,7 -51,8l11 -35c12,-1 23,-2 33,-5 10,-2 20,-6 30,-10 -7,-9 -11,-19 -15,-30 -3,-11 -5,-24 -5,-39 0,-35 12,-65 36,-91 24,-26 52,-39 84,-39 18,0 32,5 43,16 11,11 16,26 16,44 0,21 -7,43 -23,68 -15,25 -35,47 -60,66 7,7 15,12 24,15 9,3 19,4 32,4l4 0 -10 35 -7 0c-20,0 -37,-2 -51,-6 -15,-4 -28,-11 -38,-20z"/>
  <g id="_527481112">
   <path class="fil2" d="M1594 3163l-36 -38 23 -22 8 8 -13 12 6 7 12 -12 8 8 -12 12 6 6 13 -12 8 9 -23 22zm30 -50c3,1 6,1 8,1 2,0 4,-1 6,-2 2,-1 3,-2 3,-4 0,-2 0,-3 0,-4 -1,-1 -2,-2 -3,-3 -1,0 -4,0 -8,1 -5,2 -9,2 -12,1 -3,-1 -5,-3 -8,-6 -3,-4 -3,-9 -2,-13 1,-4 4,-8 9,-11 2,-2 5,-3 8,-3 3,-1 5,-1 8,-1l2 11c-2,0 -4,0 -6,0 -2,0 -3,1 -5,2 -1,1 -2,2 -3,3 0,1 0,2 0,4 1,1 2,2 3,2 1,0 3,0 6,-1l1 0c6,-2 10,-2 12,-2 2,0 3,1 5,2 1,1 3,3 4,5 3,5 4,9 2,14 -1,5 -5,9 -10,12 -3,2 -6,3 -9,4 -3,1 -7,0 -10,0l0 -12zm59 -13l-14 -37 -11 4 -4 -12 35 -13 4 12 -11 4 14 37 -13 5zm28 -17c0,-2 0,-4 1,-5 1,-2 3,-3 5,-3 2,0 4,0 5,1 2,1 3,3 3,5 0,2 0,4 -1,5 -1,2 -3,3 -5,3 -2,0 -4,0 -5,-1 -2,-1 -3,-3 -3,-5zm115 1l-40 -5 27 -25c2,-2 3,-3 4,-4 1,-1 1,-2 1,-4 0,-2 0,-3 -1,-5 -1,-1 -2,-2 -4,-2 -2,0 -4,0 -5,1 -1,1 -2,3 -3,6l0 1 -12 -2 0 0c1,-6 3,-10 7,-13 4,-3 9,-4 15,-3 6,1 10,3 13,6 3,3 4,8 4,13 0,2 -1,5 -3,7 -1,2 -3,4 -6,7l-11 9 16 2 -1 11zm62 -8c-3,8 -6,13 -11,17 -5,3 -10,4 -16,2 -6,-2 -10,-6 -12,-11 -2,-6 -1,-13 1,-21 3,-8 6,-14 11,-17 5,-3 10,-4 16,-2 6,2 10,6 12,11 2,6 1,13 -1,21zm-25 -9c-2,5 -3,10 -2,12 0,3 1,5 4,5 2,1 4,0 6,-2 2,-2 4,-6 5,-11 2,-5 3,-9 2,-12 0,-3 -1,-5 -3,-5 -2,-1 -4,0 -6,2 -2,2 -4,6 -5,11zm43 47l21 -34 -9 -6 11 -7 15 10 -27 44 -11 -7zm65 17c2,2 4,2 6,2 2,0 4,-1 6,-3 2,-2 3,-4 2,-6 0,-2 -1,-4 -3,-6 -2,-2 -4,-2 -6,-2 -2,0 -4,1 -6,3 -2,2 -2,4 -2,6 0,2 1,4 3,6zm-5 7c-1,0 -2,-1 -2,-1 -1,-1 -2,-1 -2,-2 -3,-3 -5,-7 -5,-11 0,-4 2,-8 5,-12 4,-4 8,-6 13,-6 5,0 10,2 14,6 4,4 7,9 7,14 0,5 -2,10 -6,14 -2,2 -5,4 -8,6 -3,2 -8,3 -14,5l-13 3 -11 -10 21 -5z"/>
   <path class="fil2" d="M1519 3208l-6 13 18 2c1,0 1,0 3,0 1,0 3,0 5,1 -1,-1 -2,-2 -3,-2 -1,-1 -2,-1 -3,-2l-14 -12zm-10 -26l40 38 -7 16 -55 -5 6 -13 10 1 8 -18 -7 -6 6 -13zm-34 108l52 5 -3 32 -11 -1 2 -18 -9 -1 -1 17 -11 -1 1 -17 -20 -2 1 -14zm18 60l1 14 17 -7c1,0 1,0 2,-1 1,0 3,-1 4,-1 -1,0 -3,0 -4,-1 -1,0 -2,0 -3,-1l-18 -4zm-21 -19l53 14 1 18 -51 22 -1 -14 9 -3 -1 -20 -10 -2 -1 -14zm26 124l-4 -13 20 -10c1,-1 3,-1 5,-2 2,-1 4,-2 6,-3 -2,0 -5,1 -8,1 -1,0 -1,0 -2,0l-25 1 -3 -9 21 -15c0,0 1,-1 1,-1 3,-2 5,-4 7,-5 -2,1 -4,1 -6,1 -2,0 -4,1 -6,1l-22 4 -4 -13 52 -9 5 13 -23 16c0,0 0,0 -1,1 -2,1 -4,3 -5,3 1,0 2,0 3,-1 1,0 3,0 4,0l28 -1 5 13 -47 25zm8 15l45 -26 7 12 -45 26 -7 -12zm19 30l43 -30 8 12 -33 23 10 14 -10 7 -18 -26zm33 42l17 -17 7 -33 12 11 -4 15c0,0 0,0 0,0 0,2 -1,3 -2,4 1,-1 2,-1 4,-2 0,0 0,0 1,0l14 -5 12 11 -33 8 -17 17 -10 -10zm130 54c-2,3 -4,6 -6,9 -3,2 -6,4 -9,6 -3,1 -7,2 -11,2 -4,0 -7,-1 -11,-2 -3,-2 -6,-4 -9,-6 -3,-3 -4,-6 -6,-9 -1,-3 -2,-7 -2,-11 0,-4 1,-7 2,-10 2,-3 4,-6 6,-9 3,-2 6,-4 9,-6 3,-1 7,-2 11,-2 4,0 7,1 11,2 3,2 6,4 9,6 3,3 5,6 6,9 1,3 2,7 2,10 0,4 -1,7 -2,10zm-32 3c4,2 7,2 11,0 4,-2 6,-4 8,-8 2,-4 2,-8 1,-12 -1,-4 -4,-6 -7,-8 -4,-2 -7,-2 -11,0 -4,2 -6,4 -8,8 -2,4 -2,8 -1,12 1,4 4,6 7,8zm83 -18l2 26c0,1 0,2 0,4 0,1 0,3 0,4 1,-2 1,-3 2,-4 0,-1 1,-2 1,-3l11 -23 14 3 -24 48 -13 -3 -2 -23c0,-1 0,-2 0,-5 0,-1 0,-2 0,-2 0,0 -1,1 -1,2 -1,2 -2,4 -2,5l-10 21 -13 -3 -4 -54 14 3 1 26c0,1 0,3 0,4 0,1 0,3 0,4 0,-1 1,-2 1,-3 0,-1 1,-2 2,-4l11 -23 11 2zm34 58l-5 -52 14 -1 22 25c0,1 1,2 2,3 1,2 2,3 3,6 0,-2 -1,-4 -1,-6 0,-2 0,-3 -1,-4l-2 -26 14 -1 5 52 -14 1 -22 -25c0,-1 -1,-2 -2,-3 -1,-2 -2,-3 -3,-6 0,2 1,4 1,6 0,2 0,3 1,4l2 26 -14 1zm71 -8l-14 -50 31 -9 3 11 -17 5 2 9 16 -5 3 11 -16 5 2 8 17 -5 3 11 -31 9zm49 -15l-22 -47 10 -5c7,-3 13,-6 16,-6 3,-1 7,-1 10,0 4,1 7,2 11,5 3,3 6,6 8,10 2,4 3,8 3,12 0,4 -1,8 -3,11 -2,3 -4,5 -6,7 -3,2 -7,5 -13,7l-2 1 -10 5zm8 -17l2 -1c5,-2 8,-5 10,-8 1,-3 1,-7 -1,-12 -2,-5 -5,-7 -8,-8 -3,-1 -8,0 -13,2l-2 1 12 26zm72 -72l2 -2c2,-3 4,-5 4,-6 0,-1 0,-3 -2,-4 -1,-1 -3,-2 -4,-1 -1,0 -3,2 -6,4l-2 2 8 7zm14 31l-38 -36 10 -10c4,-4 7,-7 9,-9 2,-1 4,-2 6,-3 2,-1 4,-1 6,0 2,0 4,2 6,3 2,2 3,4 4,6 0,2 0,5 -2,8 3,-3 6,-4 9,-4 3,0 6,1 9,4 2,2 3,4 4,6 1,2 1,5 0,7 -1,2 -2,4 -3,6 -1,2 -4,5 -8,10l-10 11zm1 -17l3 -4c2,-2 4,-5 4,-6 0,-2 0,-3 -2,-4 -2,-1 -3,-2 -5,-2 -2,0 -3,2 -6,4l-4 4 8 8zm-6 -55l8 -12 21 14c3,2 5,3 7,4 1,1 3,1 4,1 1,0 3,0 4,-1 1,-1 3,-2 4,-4 1,-2 2,-3 2,-5 0,-2 0,-3 -1,-4 -1,-1 -2,-2 -3,-3 -1,-1 -3,-3 -7,-5l-3 -2 -18 -12 8 -12 23 15c5,3 8,6 10,8 2,2 3,4 4,7 1,3 1,6 0,9 -1,3 -2,7 -5,10 -2,4 -5,7 -8,9 -3,2 -5,3 -8,4 -3,0 -5,0 -8,-1 -3,-1 -6,-3 -11,-6l-5 -3 -19 -12zm63 -37c3,-1 5,-2 7,-4 2,-1 3,-3 4,-5 1,-2 1,-3 0,-5 0,-2 -1,-3 -3,-3 -2,-1 -3,-1 -4,0 -1,1 -3,2 -5,6 -3,4 -6,7 -9,8 -3,1 -6,1 -10,0 -5,-2 -8,-5 -9,-9 -2,-4 -2,-9 0,-14 1,-3 2,-5 4,-7 2,-2 4,-4 6,-5l8 8c-2,1 -3,2 -5,3 -1,1 -2,3 -3,4 -1,2 -1,3 0,4 0,1 1,2 2,3 1,0 2,0 3,0 1,-1 2,-2 4,-4l0 -1c4,-5 7,-8 9,-9 2,-1 3,-1 5,-1 2,0 4,1 6,1 5,2 9,5 10,10 2,5 2,10 -1,15 -1,3 -3,6 -5,9 -2,2 -5,4 -9,6l-7 -10zm32 -40l-51 -12 3 -14 51 12 -3 14zm8 -34l-52 -4 1 -14 28 -18c1,0 2,-1 3,-2 2,-1 4,-2 6,-2 -2,0 -4,0 -6,0 -2,0 -3,0 -4,0l-26 -2 1 -14 52 4 -1 14 -28 18c-1,0 -2,1 -3,2 -2,1 -4,2 -6,2 2,0 4,0 6,0 2,0 3,0 4,0l26 2 -1 14zm2 -72l-52 6 -4 -32 11 -1 2 18 9 -1 -2 -17 11 -1 2 17 9 -1 -2 -18 12 -1 4 32zm-26 -47c2,-3 3,-5 3,-8 1,-2 1,-4 0,-6 -1,-2 -1,-3 -3,-4 -1,-1 -3,-1 -4,-1 -2,0 -3,1 -3,3 -1,1 -1,4 -1,8 0,5 -1,9 -2,12 -2,3 -4,4 -8,6 -5,1 -9,1 -13,-1 -4,-2 -7,-6 -8,-11 -1,-3 -1,-5 -1,-8 0,-3 0,-5 1,-8l11 1c-1,2 -1,4 -2,6 0,2 0,4 0,5 0,2 1,3 2,4 1,1 2,1 3,1 1,0 2,-1 3,-2 1,-1 1,-3 1,-6l0 -1c0,-6 1,-10 2,-12 1,-2 2,-3 4,-4 2,-1 3,-2 5,-3 5,-2 10,-1 14,2 4,3 7,7 9,13 1,3 1,7 1,10 0,3 -1,7 -3,10l-12 -3zm-16 -46c1,-3 2,-6 2,-8 0,-2 0,-4 -1,-6 -1,-2 -2,-3 -3,-3 -1,-1 -3,-1 -4,0 -2,1 -3,2 -3,3 0,1 0,4 1,8 1,5 1,9 0,12 -1,3 -3,5 -7,7 -4,2 -9,3 -13,1 -4,-2 -8,-5 -10,-9 -1,-3 -2,-5 -3,-8 0,-3 -1,-5 0,-8l11 -1c0,2 -1,4 -1,6 0,2 1,3 1,5 1,2 2,3 3,3 1,1 2,1 4,0 1,-1 2,-1 2,-3 0,-1 0,-3 0,-6l0 -1c-1,-6 -1,-10 -1,-13 1,-2 2,-3 3,-5 1,-1 3,-3 5,-4 5,-3 10,-3 14,-1 5,2 8,5 11,11 2,3 3,6 3,10 0,3 0,7 -1,10l-12 -1z"/>
   <path class="fil2" d="M1599 3290l0 -47 10 0c7,0 12,0 15,1 3,1 6,2 8,3 3,2 5,5 7,8 2,3 2,7 2,11 0,4 -1,8 -2,11 -2,3 -4,6 -7,8 -2,2 -5,3 -8,3 -3,1 -7,1 -14,1l-2 0 -10 0zm13 -11l2 0c5,0 9,-1 11,-3 2,-2 3,-5 3,-10 0,-4 -1,-8 -3,-10 -2,-2 -6,-3 -11,-3l-2 0 0 26z"/>
   <polygon id="1" class="fil2" points="1654,3290 1654,3243 1683,3243 1683,3253 1666,3253 1666,3261 1682,3261 1682,3272 1666,3272 1666,3280 1683,3280 1683,3290 "/>
   <path id="12" class="fil2" d="M1697 3275c2,2 4,4 6,5 2,1 4,2 6,2 2,0 3,0 4,-1 1,-1 2,-2 2,-3 0,-2 0,-3 -1,-4 -1,-1 -3,-2 -6,-3 -5,-1 -8,-3 -10,-5 -2,-2 -3,-5 -3,-8 0,-4 1,-8 5,-11 3,-3 7,-4 12,-4 3,0 5,0 7,1 2,1 5,2 7,3l-4 9c-1,-1 -3,-2 -4,-3 -2,-1 -3,-1 -5,-1 -2,0 -3,0 -4,1 -1,1 -1,2 -1,3 0,1 0,2 1,3 1,1 2,1 5,2l1 0c5,1 9,3 10,5 1,1 2,3 3,4 1,2 1,3 1,5 0,5 -2,9 -5,12 -3,3 -8,5 -13,5 -3,0 -6,-1 -9,-2 -3,-1 -5,-3 -8,-5l6 -10z"/>
   <polygon id="123" class="fil2" points="1738,3290 1738,3243 1751,3243 1751,3290 "/>
   <path id="1234" class="fil2" d="M1787 3273l0 -10 25 0c0,0 0,1 0,1 0,0 0,1 0,2 0,8 -2,14 -6,19 -4,4 -10,7 -18,7 -4,0 -7,-1 -10,-2 -3,-1 -6,-3 -8,-5 -2,-2 -4,-5 -5,-8 -1,-3 -2,-6 -2,-10 0,-4 1,-7 2,-10 1,-3 3,-6 5,-8 2,-2 5,-4 8,-5 3,-1 6,-2 10,-2 5,0 9,1 12,3 4,2 7,5 9,8l-11 5c-1,-2 -3,-3 -4,-4 -2,-1 -4,-1 -6,-1 -4,0 -7,1 -9,4 -2,3 -3,6 -3,10 0,4 1,8 3,11 2,3 5,4 9,4 3,0 6,-1 8,-2 2,-2 3,-4 4,-6l-13 0z"/>
   <path id="12345" class="fil2" d="M1825 3290l0 -47 12 0 18 24c0,0 1,1 2,3 1,1 2,3 3,5 0,-2 0,-4 -1,-5 0,-2 0,-3 0,-4l0 -23 12 0 0 47 -12 0 -18 -24c0,0 -1,-1 -2,-3 -1,-1 -2,-3 -3,-5 0,2 0,4 1,5 0,2 0,3 0,4l0 23 -12 0z"/>
   <polygon id="123456" class="fil2" points="1885,3290 1885,3243 1914,3243 1914,3253 1897,3253 1897,3261 1913,3261 1913,3272 1897,3272 1897,3280 1914,3280 1914,3290 "/>
   <path id="1234567" class="fil2" d="M1926 3290l0 -47 10 0c7,0 12,0 15,1 3,1 6,2 8,3 3,2 5,5 7,8 2,3 2,7 2,11 0,4 -1,8 -2,11 -2,3 -4,6 -7,8 -2,2 -5,3 -8,3 -3,1 -7,1 -14,1l-2 0 -10 0zm13 -11l2 0c5,0 9,-1 11,-3 2,-2 3,-5 3,-10 0,-4 -1,-8 -3,-10 -2,-2 -6,-3 -11,-3l-2 0 0 26z"/>
   <polygon id="12345678" class="fil2" points="1746,3353 1746,3306 1759,3306 1759,3353 "/>
   <path id="123456789" class="fil2" d="M1774 3353l0 -47 12 0 18 24c0,0 1,1 2,3 1,1 2,3 3,5 0,-2 0,-4 -1,-5 0,-2 0,-3 0,-4l0 -23 12 0 0 47 -12 0 -18 -24c0,0 -1,-1 -2,-3 -1,-1 -2,-3 -3,-5 0,2 0,4 1,5 0,2 0,3 0,4l0 23 -12 0z"/>
   <path id="12345678910" class="fil2" d="M1573 3416l0 -47 12 0 18 24c0,0 1,1 2,3 1,1 2,3 3,5 0,-2 0,-4 -1,-5 0,-2 0,-3 0,-4l0 -23 12 0 0 47 -12 0 -18 -24c0,0 -1,-1 -2,-3 -1,-1 -2,-3 -3,-5 0,2 0,4 1,5 0,2 0,3 0,4l0 23 -12 0z"/>
   <polygon id="1234567891011" class="fil2" points="1633,3416 1633,3369 1662,3369 1662,3379 1646,3379 1646,3388 1661,3388 1661,3398 1646,3398 1646,3406 1662,3406 1662,3416 "/>
   <path id="123456789101112" class="fil2" d="M1706 3369l6 22c0,1 1,2 1,3 0,1 0,2 1,4 0,-2 1,-3 1,-4 0,-1 0,-2 1,-3l6 -22 13 0 -13 47 -12 0 -6 -20c0,-1 -1,-2 -1,-4 0,-1 0,-2 -1,-2 0,0 0,1 0,2 0,2 -1,4 -1,4l-6 20 -12 0 -13 -47 13 0 5 22c0,1 1,2 1,3 0,1 0,2 1,4 0,-1 0,-2 1,-3 0,-1 1,-2 1,-4l6 -22 10 0z"/>
   <path id="12345678910111213" class="fil2" d="M1788 3416l0 -47 10 0c7,0 12,0 15,1 3,1 6,2 8,3 3,2 5,5 7,8 2,3 2,7 2,11 0,4 -1,8 -2,11 -2,3 -4,6 -7,8 -2,2 -5,3 -8,3 -3,1 -7,1 -14,1l-2 0 -10 0zm13 -11l2 0c5,0 9,-1 11,-3 2,-2 3,-5 3,-10 0,-4 -1,-8 -3,-10 -2,-2 -6,-3 -11,-3l-2 0 0 26z"/>
   <polygon id="1234567891011121314" class="fil2" points="1842,3416 1842,3369 1871,3369 1871,3379 1854,3379 1854,3388 1870,3388 1870,3398 1854,3398 1854,3406 1871,3406 1871,3416 "/>
   <polygon id="123456789101112131415" class="fil2" points="1883,3416 1883,3369 1896,3369 1896,3405 1912,3405 1912,3416 "/>
   <polygon id="12345678910111213141516" class="fil2" points="1922,3416 1922,3369 1935,3369 1935,3387 1952,3387 1952,3369 1965,3369 1965,3416 1952,3416 1952,3397 1935,3397 1935,3416 "/>
   <polygon id="1234567891011121314151617" class="fil2" points="1980,3416 1980,3369 1992,3369 1992,3416 "/>
  </g>
  <g id="_527478832">
   <path class="fil3" d="M1390 433c-10,0 -21,-2 -31,-6l-3 -1c-20,-7 -44,-22 -65,-41 -55,-50 -104,-32 -105,-32l-1 0c-19,5 -31,24 -26,44 4,15 18,24 33,20 5,-1 10,-5 13,-10 4,-8 4,-15 0,-21 -4,-5 -10,-7 -15,-5 -3,1 -7,-1 -8,-5 -1,-3 1,-7 5,-8 11,-3 22,1 28,10 7,9 8,22 2,34 -4,8 -12,15 -21,17 -21,5 -43,-8 -48,-29 -6,-26 9,-52 35,-59 6,-2 59,-19 118,34 19,18 43,32 61,39l3 1c24,9 50,5 71,-10 20,-15 30,-37 29,-60 0,-2 0,-4 -1,-6 -2,-17 -11,-32 -26,-42 -21,-15 -44,-17 -62,-5 -16,10 -25,29 -23,48 1,10 7,19 15,25 13,9 26,10 37,4 10,-6 15,-17 14,-28 -1,-6 -4,-11 -8,-15 -5,-4 -10,-5 -16,-4 -4,0 -7,-2 -7,-5 0,-3 2,-7 5,-7 9,-1 18,1 25,7 7,6 12,14 13,23 2,16 -6,32 -20,41 -15,9 -34,8 -51,-4 -11,-8 -19,-20 -21,-34 -3,-24 8,-48 29,-60 22,-14 50,-11 75,6 18,12 29,30 32,51 0,2 0,4 1,6 2,28 -11,54 -34,71 -16,11 -34,17 -53,17z"/>
   <path class="fil3" d="M1129 433c-19,0 -37,-6 -53,-17 -23,-17 -36,-43 -34,-71 0,-2 0,-4 1,-6 3,-21 14,-39 32,-51 25,-17 53,-19 75,-6 21,13 32,36 29,60 -2,13 -9,26 -21,34 -17,12 -36,13 -51,4 -14,-8 -22,-25 -20,-41 1,-9 6,-17 13,-23 7,-6 16,-8 25,-7 3,0 6,4 5,7 0,3 -4,6 -7,5 -6,-1 -11,1 -16,4 -5,4 -8,9 -8,15 -1,11 4,23 14,28 11,7 25,5 37,-4 9,-6 14,-15 15,-25 2,-19 -6,-38 -23,-48 -18,-11 -41,-9 -62,5 -15,10 -24,25 -26,42 0,2 0,4 -1,6 -1,24 9,46 29,60 21,15 47,19 71,10l3 -1c18,-6 42,-21 61,-39 58,-53 112,-36 118,-34 26,7 41,33 35,59 -5,21 -27,34 -48,29 -9,-2 -17,-8 -21,-17 -6,-12 -6,-25 2,-34 7,-9 18,-12 28,-10 3,1 5,4 5,8 -1,3 -4,5 -8,5 -6,-1 -12,1 -15,5 -4,5 -4,13 0,21 3,5 7,9 13,10 14,3 29,-6 33,-20 5,-19 -7,-39 -26,-44l-1 0c-2,-1 -51,-18 -105,32 -21,19 -46,34 -65,41l-2 1c-10,4 -20,6 -31,6z"/>
   <path class="fil3" d="M1244 237l0 0 0 0zm15 -13c-3,0 -7,5 -9,14l0 0c-3,21 3,46 9,63 5,-17 11,-42 9,-63 -1,-9 -5,-14 -9,-14zm0 103c-3,0 -5,-2 -6,-4 -1,-2 -20,-50 -15,-86 2,-18 12,-25 21,-25 9,0 19,8 21,25 5,37 -14,84 -15,86 -1,2 -3,4 -6,4z"/>
   <path class="fil3" d="M1315 284l4 5c-5,3 -8,10 -11,16 6,-3 13,-6 16,-11 2,-2 0,-4 0,-5 -1,-1 -2,-2 -4,0l-4 -5zm-17 37c-2,0 -3,-1 -4,-2 -2,-2 -2,-4 -2,-6 1,-3 6,-25 20,-35 7,-4 15,-4 20,2 6,6 6,14 2,21 -9,14 -32,19 -35,20 0,0 -1,0 -1,0z"/>
   <path class="fil3" d="M1198 289c-1,0 -2,1 -2,1 -1,1 -2,2 0,5 3,5 10,8 16,11 -2,-6 -6,-13 -11,-16 -1,-1 -1,-1 -2,-1zm23 33l-1 0c-3,-1 -25,-6 -35,-20 -4,-7 -4,-15 2,-21 6,-6 14,-6 20,-2 14,9 19,32 20,35 0,2 0,4 -2,6 -1,1 -3,2 -4,2z"/>
  </g>
  <path class="fil2" d="M788 1499l0 -128 62 0c13,0 23,3 30,8 7,5 10,13 10,24 0,7 -2,13 -5,17 -3,5 -8,8 -15,11 8,2 14,5 18,10 4,5 6,12 6,20 0,13 -4,22 -11,28 -7,6 -19,9 -34,9l-62 0zm13 -73l45 0c11,0 19,-2 24,-5 5,-3 7,-9 7,-17 0,-8 -2,-13 -7,-17 -5,-3 -12,-5 -23,-5l-47 0 0 43zm0 60l48 0c12,0 20,-2 25,-6 5,-4 8,-10 8,-18 0,-9 -2,-15 -7,-19 -5,-4 -13,-6 -23,-6l-51 0 0 49z"/>
  <path id="1" class="fil2" d="M919 1371l13 0 0 79c0,14 3,24 10,31 7,7 18,10 32,10 15,0 26,-3 33,-10 7,-7 10,-17 10,-31l0 -79 13 0 0 82c0,16 -5,28 -14,37 -10,9 -23,13 -41,13 -18,0 -32,-4 -42,-13 -9,-8 -14,-21 -14,-37l0 -81z"/>
  <path id="12" class="fil2" d="M1056 1457l13 0 0 1c0,10 4,18 11,23 7,6 17,9 30,9 12,0 22,-2 29,-7 7,-5 11,-11 11,-19 0,-6 -2,-11 -6,-14 -4,-3 -13,-6 -26,-8l-27 -5c-10,-2 -18,-5 -23,-11 -5,-5 -8,-12 -8,-21 0,-11 4,-20 13,-27 9,-7 21,-10 36,-10 15,0 28,3 37,10 9,7 13,17 14,29l-13 0c-1,-9 -4,-16 -11,-21 -6,-5 -15,-7 -27,-7 -11,0 -20,2 -26,7 -6,4 -10,10 -10,18 0,6 2,11 7,14 5,3 13,6 25,8l24 4c12,2 20,6 26,11 5,5 8,13 8,22 0,12 -5,22 -14,29 -9,7 -22,10 -38,10 -17,0 -30,-4 -40,-12 -10,-8 -15,-18 -15,-32l0 -2z"/>
  <polygon id="123" class="fil2" points="1189,1499 1189,1371 1202,1371 1202,1499 "/>
  <polygon id="1234" class="fil2" points="1233,1499 1233,1371 1250,1371 1339,1486 1339,1371 1352,1371 1352,1499 1335,1499 1246,1384 1246,1499 "/>
  <polygon id="12345" class="fil2" points="1382,1499 1382,1371 1480,1371 1480,1383 1395,1383 1395,1428 1474,1428 1474,1440 1395,1440 1395,1487 1480,1487 1480,1499 "/>
  <path id="123456" class="fil2" d="M1499 1457l13 0 0 1c0,10 4,18 11,23 7,6 17,9 30,9 12,0 22,-2 29,-7 7,-5 11,-11 11,-19 0,-6 -2,-11 -6,-14 -4,-3 -13,-6 -26,-8l-27 -5c-10,-2 -18,-5 -23,-11 -5,-5 -8,-12 -8,-21 0,-11 4,-20 13,-27 9,-7 21,-10 36,-10 15,0 28,3 37,10 9,7 13,17 14,29l-13 0c-1,-9 -4,-16 -11,-21 -6,-5 -15,-7 -27,-7 -11,0 -20,2 -26,7 -6,4 -10,10 -10,18 0,6 2,11 7,14 5,3 13,6 25,8l24 4c12,2 20,6 26,11 5,5 8,13 8,22 0,12 -5,22 -14,29 -9,7 -22,10 -38,10 -17,0 -30,-4 -40,-12 -10,-8 -15,-18 -15,-32l0 -2z"/>
  <path id="1234567" class="fil2" d="M1627 1457l13 0 0 1c0,10 4,18 11,23 7,6 17,9 30,9 12,0 22,-2 29,-7 7,-5 11,-11 11,-19 0,-6 -2,-11 -6,-14 -4,-3 -13,-6 -26,-8l-27 -5c-10,-2 -18,-5 -23,-11 -5,-5 -8,-12 -8,-21 0,-11 4,-20 13,-27 9,-7 21,-10 36,-10 15,0 28,3 37,10 9,7 13,17 14,29l-13 0c-1,-9 -4,-16 -11,-21 -6,-5 -15,-7 -27,-7 -11,0 -20,2 -26,7 -6,4 -10,10 -10,18 0,6 2,11 7,14 5,3 13,6 25,8l24 4c12,2 20,6 26,11 5,5 8,13 8,22 0,12 -5,22 -14,29 -9,7 -22,10 -38,10 -17,0 -30,-4 -40,-12 -10,-8 -15,-18 -15,-32l0 -2z"/>
  <polygon id="12345678" class="fil2" points="561,1709 561,1581 581,1581 635,1697 690,1581 709,1581 709,1709 696,1709 697,1592 643,1709 628,1709 572,1592 573,1709 "/>
  <path id="123456789" class="fil2" d="M762 1657l59 0 -29 -65 -29 65zm-37 52l59 -128 15 0 58 128 -13 0 -18 -40 -70 0 -18 40 -13 0z"/>
  <polygon id="12345678910" class="fil2" points="874,1709 874,1581 891,1581 980,1696 980,1581 993,1581 993,1709 976,1709 887,1594 887,1709 "/>
  <path id="1234567891011" class="fil2" d="M1046 1657l59 0 -29 -65 -29 65zm-37 52l59 -128 15 0 58 128 -13 0 -18 -40 -70 0 -18 40 -13 0z"/>
  <path id="123456789101112" class="fil2" d="M1264 1686c-4,9 -11,15 -19,20 -9,5 -19,7 -30,7 -20,0 -36,-6 -48,-18 -12,-12 -18,-29 -18,-49 0,-21 6,-37 18,-49 12,-12 28,-18 49,-18 16,0 29,4 40,12 10,8 16,19 18,32l-14 0c-2,-10 -7,-18 -14,-23 -8,-5 -18,-8 -30,-8 -17,0 -30,5 -39,15 -10,10 -14,23 -14,40 0,17 5,30 14,40 10,10 22,15 38,15 14,0 25,-4 34,-12 9,-8 14,-17 14,-28l0 -6 -40 0 0 -11 53 0 0 66 -10 0 -1 -23z"/>
  <polygon id="12345678910111213" class="fil2" points="1303,1709 1303,1581 1401,1581 1401,1593 1315,1593 1315,1638 1394,1638 1394,1650 1315,1650 1315,1697 1401,1697 1401,1709 "/>
  <polygon id="1234567891011121314" class="fil2" points="1425,1709 1425,1581 1445,1581 1499,1697 1554,1581 1573,1581 1573,1709 1560,1709 1561,1592 1506,1709 1492,1709 1436,1592 1437,1709 "/>
  <polygon id="123456789101112131415" class="fil2" points="1603,1709 1603,1581 1701,1581 1701,1593 1616,1593 1616,1638 1695,1638 1695,1650 1616,1650 1616,1697 1701,1697 1701,1709 "/>
  <polygon id="12345678910111213141516" class="fil2" points="1725,1709 1725,1581 1741,1581 1831,1696 1831,1581 1843,1581 1843,1709 1826,1709 1737,1594 1737,1709 "/>
  <polygon id="1234567891011121314151617" class="fil2" points="1908,1709 1908,1593 1859,1593 1859,1581 1971,1581 1971,1593 1921,1593 1921,1709 "/>
  <path id="123456789101112131415161718" class="fil2" d="M720 1877l13 0 0 1c0,10 4,18 11,23 7,6 17,9 30,9 12,0 22,-2 29,-7 7,-5 11,-11 11,-19 0,-6 -2,-11 -6,-14 -4,-3 -13,-6 -26,-8l-27 -5c-10,-2 -18,-5 -23,-11 -5,-5 -8,-12 -8,-21 0,-11 4,-20 13,-27 9,-7 21,-10 36,-10 15,0 28,3 37,10 9,7 13,17 14,29l-13 0c-1,-9 -4,-16 -11,-21 -6,-5 -15,-7 -27,-7 -11,0 -20,2 -26,7 -6,4 -10,10 -10,18 0,6 2,11 7,14 5,3 13,6 25,8l24 4c12,2 20,6 26,11 5,5 8,13 8,22 0,12 -5,22 -14,29 -9,7 -22,10 -38,10 -17,0 -30,-4 -40,-12 -10,-8 -15,-18 -15,-32l0 -2z"/>
  <path id="12345678910111213141516171819" class="fil2" d="M981 1855c0,21 -6,37 -18,49 -12,12 -28,18 -49,18 -21,0 -37,-6 -49,-18 -12,-12 -18,-28 -18,-49 0,-21 6,-37 18,-49 12,-12 28,-18 49,-18 21,0 37,6 49,18 12,12 18,28 18,49zm-67 55c17,0 30,-5 40,-15 10,-10 14,-23 14,-40 0,-17 -5,-31 -14,-40 -10,-10 -23,-15 -40,-15 -17,0 -30,5 -40,15 -10,10 -14,23 -14,40 0,17 5,31 14,40 10,10 23,15 40,15z"/>
  <polygon id="1234567891011121314151617181920" class="fil2" points="1004,1919 1004,1791 1099,1791 1099,1803 1017,1803 1017,1847 1090,1847 1090,1860 1017,1860 1017,1919 "/>
  <polygon id="123456789101112131415161718192021" class="fil2" points="1161,1919 1161,1803 1112,1803 1112,1791 1224,1791 1224,1803 1174,1803 1174,1919 "/>
  <polygon id="12345678910111213141516171819202122" class="fil2" points="1270,1919 1227,1791 1241,1791 1278,1908 1315,1791 1331,1791 1367,1908 1405,1791 1418,1791 1375,1919 1358,1919 1323,1805 1286,1919 "/>
  <path id="1234567891011121314151617181920212223" class="fil2" d="M1454 1867l59 0 -29 -65 -29 65zm-37 52l59 -128 15 0 58 128 -13 0 -18 -40 -70 0 -18 40 -13 0z"/>
  <path id="123456789101112131415161718192021222324" class="fil2" d="M1624 1803l-46 0 0 49 47 0c12,0 21,-2 26,-6 5,-4 8,-10 8,-19 0,-9 -3,-15 -8,-19 -5,-4 -15,-6 -28,-6zm-58 116l0 -128 61 0c15,0 27,3 34,9 8,6 12,14 12,26 0,8 -2,15 -5,20 -4,5 -9,9 -17,11 7,1 11,3 14,6 3,3 5,9 6,18 0,3 1,8 1,14 1,12 2,20 5,24l-15 0c-2,-5 -3,-12 -3,-21 -1,-9 -1,-14 -1,-17 -1,-6 -3,-11 -7,-14 -4,-3 -10,-4 -18,-4l-54 0 0 55 -13 0z"/>
  <polygon id="12345678910111213141516171819202122232425" class="fil2" points="1700,1919 1700,1791 1799,1791 1799,1803 1713,1803 1713,1848 1792,1848 1792,1860 1713,1860 1713,1907 1799,1907 1799,1919 "/>
  <g id="_534165784">
   <path class="fil3" d="M1214 1138c-1,0 -3,0 -4,0 -7,0 -71,-1 -114,-79 -15,-26 -34,-50 -51,-63l-3 -2c-22,-18 -52,-23 -79,-14 -26,8 -45,28 -51,53 -1,2 -1,4 -1,6 -4,18 1,37 13,53 17,23 40,33 63,28 21,-5 36,-21 40,-42 2,-11 -1,-22 -8,-31 -10,-14 -24,-20 -38,-17 -12,3 -21,12 -24,25 -2,13 6,25 19,28 4,1 7,5 6,9 -1,4 -5,7 -9,6 -21,-4 -35,-25 -31,-46 4,-18 18,-33 36,-37 20,-5 40,4 54,23 10,13 13,29 10,44 -5,27 -26,48 -52,55 -29,7 -59,-6 -80,-33 -15,-19 -21,-43 -16,-66 0,-2 1,-5 2,-7 8,-31 31,-54 62,-64 32,-11 68,-4 94,17l2 2c19,14 40,39 56,67 40,72 98,71 100,71l1 0c10,1 21,-2 29,-9 8,-7 13,-16 14,-27 1,-16 -11,-31 -27,-32 -6,0 -12,2 -17,6 -7,6 -9,14 -7,21 2,6 8,10 14,11 4,0 8,4 7,9 0,4 -4,8 -9,7 -13,-1 -23,-9 -28,-21 -5,-13 -1,-27 11,-38 8,-8 19,-12 29,-11 25,2 44,24 42,49 -1,15 -8,28 -19,38 -10,9 -23,13 -36,13z"/>
   <path class="fil3" d="M1308 1138c-13,0 -26,-5 -36,-13 -11,-10 -18,-23 -19,-38 -2,-25 17,-47 42,-49 10,-1 21,3 29,11 11,11 15,25 11,38 -4,12 -15,20 -28,21 -4,0 -8,-3 -9,-7 0,-4 3,-8 7,-9 6,0 12,-5 14,-11 2,-7 0,-15 -7,-21 -5,-4 -11,-7 -17,-6 -16,1 -28,16 -27,32 1,11 6,20 14,27 8,7 18,10 29,9l1 0c2,0 60,1 100,-71 16,-28 37,-53 56,-68l2 -2c26,-21 62,-28 94,-17 31,10 54,34 62,64 1,2 1,5 2,7 4,23 -1,47 -16,66 -21,28 -51,40 -80,33 -27,-6 -47,-28 -52,-55 -3,-15 1,-31 10,-44 14,-19 34,-28 54,-23 18,4 32,19 36,37 4,21 -10,42 -31,46 -4,1 -9,-2 -9,-6 -1,-4 2,-9 6,-9 13,-2 21,-15 19,-28 -2,-12 -12,-22 -24,-25 -14,-3 -27,3 -38,17 -7,9 -10,21 -8,31 4,21 20,37 40,42 23,5 46,-5 63,-28 12,-16 17,-35 13,-53 0,-2 -1,-4 -1,-6 -7,-26 -26,-45 -51,-53 -27,-9 -57,-4 -79,14l-2 2c-17,13 -37,37 -52,63 -44,78 -107,79 -114,79 -1,0 -3,0 -4,0z"/>
   <path class="fil3" d="M1261 963c-7,13 -15,34 -12,51l0 0c1,7 7,10 12,10 5,0 10,-3 12,-10 3,-16 -5,-37 -12,-51zm0 77c-14,0 -25,-9 -27,-23 -6,-32 20,-73 21,-75 3,-5 11,-5 13,0 1,2 27,43 21,75 -3,14 -14,23 -27,23z"/>
   <path class="fil3" d="M2349 1060c-7,1 -10,7 -10,12 0,5 3,10 10,12 16,3 37,-5 51,-12 -13,-7 -34,-15 -51,-12zm8 40c-4,0 -7,0 -11,-1 -14,-3 -23,-14 -23,-28 0,-14 9,-25 23,-27 32,-6 73,20 75,21 2,1 4,4 4,7 0,3 -1,5 -4,7 -1,1 -34,22 -64,22z"/>
   <path class="fil3" d="M2294 1038c-2,0 -3,1 -5,2 -2,2 -3,4 -2,6 1,1 2,3 4,3 4,0 8,4 7,9 0,2 -1,4 -2,5 1,-1 2,-1 3,-2 3,-3 5,-6 5,-11 0,-6 -4,-11 -10,-12l-1 0zm-5 42l-2 0c-5,0 -38,-1 -60,-41 -7,-12 -16,-24 -24,-30l-1 -1c-10,-8 -23,-10 -36,-6 -11,4 -20,12 -23,24 0,1 0,2 -1,3 -2,8 0,16 6,23 8,10 18,14 27,12 9,-2 15,-9 17,-18 1,-4 0,-9 -3,-12 -4,-6 -9,-8 -15,-7 -4,1 -8,5 -9,9 -1,4 2,8 6,9 4,1 7,5 6,9 -1,4 -5,7 -9,6 -13,-2 -21,-15 -19,-28 2,-11 10,-19 21,-22 11,-3 23,2 31,13 5,7 8,16 6,25 -3,15 -14,27 -29,30 -16,4 -32,-3 -44,-18 -8,-11 -11,-24 -9,-36 0,-1 1,-3 1,-4 5,-17 17,-29 33,-35 17,-6 36,-2 51,9l1 1c10,7 20,20 29,35 16,28 37,32 44,33 -6,-2 -10,-6 -12,-12 -3,-8 -1,-17 6,-23 5,-5 11,-7 18,-6 15,1 26,14 24,29 -1,8 -5,16 -11,22 -6,5 -13,8 -20,8z"/>
   <path class="fil3" d="M2296 1082c1,1 2,3 2,5 0,4 -3,8 -7,9 -2,0 -3,1 -4,3 -1,2 0,4 2,6 1,1 3,2 5,2 6,-1 10,-6 10,-12 0,-4 -2,-8 -5,-11 -1,-1 -2,-2 -3,-2zm-118 79c-6,0 -11,-1 -17,-3 -17,-5 -29,-18 -33,-35 0,-1 -1,-3 -1,-4 -2,-12 1,-26 9,-36 11,-15 28,-22 44,-18 15,3 26,15 29,30 2,9 -1,18 -6,25 -8,11 -20,16 -31,13 -11,-2 -19,-11 -21,-22 -2,-13 6,-25 19,-28 4,-1 9,2 9,6 1,4 -2,9 -6,9 -4,1 -7,5 -6,9 1,5 4,8 9,9 5,1 11,-1 15,-7 3,-4 4,-8 3,-12 -2,-9 -8,-16 -17,-18 -10,-2 -20,2 -27,12 -5,7 -7,15 -6,23 0,1 0,2 1,3 3,11 11,20 23,24 12,4 26,2 36,-6l1 -1c8,-6 18,-18 25,-30 22,-40 55,-41 60,-41 8,-1 16,2 23,7 6,5 10,13 11,22 1,15 -10,28 -24,29 -6,1 -13,-2 -18,-6 -7,-7 -9,-15 -6,-23 2,-6 7,-10 12,-12 -7,1 -28,5 -44,33 -8,14 -19,27 -29,35l-1 1c-10,8 -22,12 -34,12z"/>
   <path class="fil3" d="M2157 1079l-532 0c-4,0 -8,-4 -8,-8 0,-4 4,-8 8,-8l532 0c4,0 8,4 8,8 0,4 -4,8 -8,8z"/>
   <path class="fil3" d="M897 1079l-532 0c-4,0 -8,-4 -8,-8 0,-4 4,-8 8,-8l532 0c4,0 8,4 8,8 0,4 -4,8 -8,8z"/>
   <path class="fil3" d="M121 1071c13,7 34,15 51,12 7,-1 10,-7 10,-12 0,-5 -3,-10 -10,-12 -16,-3 -37,5 -51,12zm52 20l0 0 0 0zm-9 9c-30,0 -63,-21 -64,-22 -2,-1 -4,-4 -4,-7 0,-3 1,-5 4,-7 2,-1 43,-27 75,-21 14,3 23,14 23,28 0,14 -9,25 -23,27 -3,1 -7,1 -11,1z"/>
   <path class="fil3" d="M226 1080c-1,1 -2,1 -3,2 -3,3 -5,6 -5,11 0,6 4,11 10,12 2,0 4,-1 5,-2 2,-2 3,-4 2,-6 -1,-2 -2,-3 -3,-3 -4,0 -8,-4 -7,-9 0,-2 1,-4 2,-5zm118 79c-12,0 -24,-4 -34,-12l-1 -1c-10,-7 -20,-20 -29,-35 -16,-28 -37,-32 -44,-33 6,2 10,6 12,12 3,8 0,17 -6,23 -5,5 -11,7 -18,6 -15,-1 -25,-14 -24,-29 1,-8 5,-16 11,-22 6,-5 14,-8 22,-7 5,0 38,1 60,41 7,12 16,24 24,30l1 1c10,8 23,10 36,6 11,-4 20,-12 23,-24 0,-1 0,-2 1,-3 2,-8 0,-16 -6,-23 -8,-10 -18,-14 -27,-12 -9,2 -15,9 -17,18 -1,4 0,9 3,12 4,6 10,8 15,7 4,-1 8,-5 9,-9 1,-4 -2,-8 -6,-9 -4,-1 -7,-5 -6,-9 1,-4 5,-7 9,-6 13,2 21,15 19,28 -2,11 -10,19 -21,22 -11,3 -23,-2 -31,-13 -5,-7 -8,-16 -6,-25 3,-15 14,-27 29,-30 16,-4 32,3 44,18 8,11 11,24 9,36 0,1 -1,3 -1,4 -4,17 -17,29 -33,35 -6,2 -11,3 -17,3z"/>
   <path class="fil3" d="M227 1037l0 0c-6,1 -10,6 -10,12 0,4 2,8 5,11 1,1 2,2 3,2 -1,-1 -2,-3 -2,-5 0,-4 3,-8 7,-9 2,0 3,-1 3,-3 1,-2 0,-4 -2,-6 -1,-1 -3,-2 -5,-2zm5 42c-7,0 -15,-3 -20,-8 -6,-5 -10,-13 -11,-21 -1,-15 10,-28 24,-29 6,-1 13,2 18,6 7,7 9,15 6,23 -2,6 -7,10 -12,12 7,-1 28,-5 44,-33 8,-14 19,-27 29,-35l1 -1c14,-11 33,-15 51,-9 17,5 29,18 33,35 0,1 1,3 1,4 2,12 -1,26 -9,36 -11,15 -28,22 -44,18 -15,-3 -26,-15 -29,-30 -2,-9 0,-18 6,-25 8,-11 20,-16 31,-13 11,2 19,11 21,22 2,13 -6,25 -19,28 -4,1 -9,-2 -9,-6 -1,-4 2,-9 6,-9 4,-1 7,-5 6,-9 -1,-5 -4,-8 -9,-9 -5,-1 -10,1 -15,7 -3,4 -4,8 -3,12 2,9 8,16 17,18 10,2 20,-2 27,-12 5,-7 7,-15 6,-23 0,-1 0,-2 -1,-3 -3,-11 -11,-20 -23,-24 -12,-4 -26,-2 -36,6l-1 1c-8,6 -18,18 -25,30 -22,40 -55,41 -60,41l-2 0z"/>
  </g>
  <g id="_540149528">
   <path class="fil4" d="M692 3073l2 11 -1 0 -2 -11 1 0zm-8 1l2 11 -2 0 -4 -7c0,-1 -1,-1 -1,-1 0,0 0,1 0,2l-1 8 -2 0 -2 -11 1 0 1 9 2 -9 1 0 4 9 -1 -9 1 0zm-16 3l3 10 -4 1c-1,0 -1,0 -2,0 -1,0 -1,0 -1,0 0,0 -1,0 -1,-1 0,0 -1,-1 -1,-1 0,-1 0,-2 0,-2 0,-1 1,-1 3,-2l3 -1 -1 -4 1 0zm0 6l-3 1c-1,0 -1,1 -2,1 0,0 0,1 0,2 0,0 0,1 1,1 0,0 1,0 1,0 0,0 1,0 1,0l3 -1 -1 -4zm-12 3c1,2 1,3 0,4 -1,1 -2,2 -3,3 -1,0 -2,0 -3,0 -1,0 -2,-1 -2,-1 -1,-1 -1,-2 -1,-3 0,-1 0,-2 0,-3 0,-1 1,-2 1,-2 1,-1 1,-1 2,-1 1,0 2,0 3,0 1,0 2,1 2,1 1,1 1,1 1,2zm-1 0c0,-1 -1,-2 -2,-3 -1,0 -2,-1 -3,0 -1,0 -2,1 -2,2 0,1 0,2 0,3 0,1 1,2 1,2 0,1 1,1 2,1 1,0 1,0 2,0 1,0 2,-1 2,-2 0,-1 0,-2 0,-4zm-16 0l4 10 -4 2c-1,0 -2,1 -2,1 -1,0 -1,0 -1,-1 0,0 -1,-1 -1,-1 0,-1 0,-1 0,-2 0,-1 1,-1 2,-2 0,0 -1,0 -1,0 -1,0 -1,-1 -2,-1l-3 -2 2 -1 2 2c1,0 1,1 1,1 0,0 1,0 1,0 0,0 0,0 1,0 0,0 0,0 1,0l2 -1 -2 -4 1 -1zm1 6l-3 1c-1,0 -1,0 -1,1 0,0 0,1 -1,1 0,0 0,1 0,1 0,0 0,1 1,1 0,0 1,0 2,0l3 -1 -1 -3zm-17 0l4 9 3 -1 1 1 -8 3 -1 -1 3 -1 -4 -9 1 -1zm-10 4l5 10 -7 4 -1 -1 6 -3 -1 -3 -5 3 -1 -1 5 -3 -2 -3 -6 3 -1 -1 7 -4zm-12 7l5 9 -3 2c-1,0 -1,1 -2,1 -1,0 -1,0 -2,0 -1,0 -1,0 -2,-1 -1,-1 -1,-1 -2,-2 0,-1 -1,-1 -1,-2 0,-1 0,-1 0,-2 0,-1 0,-1 0,-1 0,0 0,-1 1,-1 0,0 1,-1 1,-1l3 -2zm-1 2l-2 1c-1,0 -1,1 -1,1 0,0 0,1 -1,1 0,0 0,1 0,2 0,1 0,1 1,2 1,1 1,2 2,2 1,0 1,0 2,0 0,0 1,0 2,-1l2 -1 -4 -7zm-21 12l6 9 -6 4 -1 -1 5 -3 -2 -3 -4 3 -1 -1 4 -3 -3 -4 1 -1zm-11 8l7 8 -4 3c-1,1 -1,1 -2,1 -1,0 -1,0 -2,0 -1,0 -1,-1 -1,-1 0,-1 -1,-1 -1,-2 0,-1 0,-1 1,-2 0,0 -1,0 -1,0 -1,0 -1,0 -2,0l-3 -1 1 -1 2 1c1,0 1,0 2,1 0,0 1,0 1,0 0,0 0,0 1,0 0,0 0,0 1,0l1 -1 -3 -4 1 -1zm3 6l-2 2c-1,0 -1,1 -1,1 0,0 0,1 0,1 0,0 0,1 0,1 0,0 1,1 1,1 0,0 1,0 2,-1l3 -2 -2 -3zm-11 8c1,1 2,3 2,4 0,1 -1,3 -2,4 -1,1 -2,1 -3,1 -1,0 -2,0 -3,0 -1,0 -2,-1 -2,-2 -1,-1 -1,-2 -1,-3 0,-1 0,-2 0,-3 0,-1 1,-2 2,-2 1,-1 2,-1 3,-1 1,0 2,0 3,0 1,0 2,1 2,2zm-1 1c-1,-1 -2,-2 -3,-2 -1,0 -2,0 -3,1 -1,1 -1,2 -1,3 0,1 0,2 1,3 1,1 1,1 2,1 1,0 1,0 2,0 1,0 1,0 2,-1 1,-1 1,-1 1,-2 0,-1 0,-2 -1,-3zm-14 6l7 8 -2 1 -7 -4c-1,0 -1,-1 -1,-1 0,0 0,1 1,2l3 7 -1 1 -7 -8 1 -1 6 7 -4 -9 1 -1 8 5 -6 -7 1 -1zm-19 20l8 7 -2 3c-1,1 -1,1 -1,1 -1,0 -1,1 -2,1 -1,0 -1,0 -2,0 -1,0 -1,-1 -2,-1 -1,-1 -1,-1 -1,-2 0,-1 -1,-1 -1,-2 0,0 0,-1 0,-1 0,0 0,-1 0,-1 0,0 1,-1 1,-1l3 -3zm0 2l-1 2c0,1 -1,1 -1,1 0,0 0,1 0,1 0,0 0,1 1,1 0,1 1,1 1,2 1,1 2,1 2,1 1,0 1,0 2,0 0,0 1,-1 1,-1l1 -2 -6 -5zm-10 10l9 6 -5 6 -1 -1 4 -5 -3 -2 -3 5 -1 -1 3 -5 -3 -2 -4 5 -1 -1 5 -6zm-8 11l9 6 -1 1 -8 -5 -3 4 -1 -1 4 -6zm-7 11l9 5 -1 1 -4 -2 -3 5 4 2 -1 1 -9 -5 1 -1 4 3 3 -5 -4 -3 1 -1zm-8 13l9 5 -1 1 -9 -5 1 -1zm-15 33l10 4 -1 1 -10 -4 1 -1zm-3 8l10 3 0 1 -10 3 8 3 0 1 -10 -3 0 -1 10 -3 -8 -3 0 -1zm-5 14l10 3 -1 4c0,1 0,1 -1,2 0,1 -1,1 -1,1 -1,0 -1,1 -2,1 -1,0 -2,0 -3,0 -1,0 -1,-1 -2,-1 -1,0 -1,-1 -1,-1 0,0 -1,-1 -1,-1 0,0 0,-1 0,-1 0,-1 0,-1 0,-2l1 -4zm1 2l-1 2c0,1 0,1 0,2 0,0 0,1 0,1 0,0 1,1 1,1 0,0 1,1 2,1 1,0 2,0 3,0 1,0 1,-1 2,-1 0,0 0,-1 1,-2l1 -2 -8 -2zm-5 13l10 2 0 1 -10 -2 0 -1zm-1 7l10 6 0 2 -11 2 0 -2 3 -1 1 -4 -3 -2 0 -1zm4 4l-1 4 3 -1c1,0 2,0 2,0 -1,0 -1,-1 -2,-1l-3 -2zm-9 34l11 0 0 4c0,1 0,1 0,2 0,1 0,1 -1,2 0,1 -1,1 -2,1 -1,0 -2,0 -3,0 -1,0 -2,0 -2,0 -1,0 -1,0 -2,-1 0,0 -1,-1 -1,-1 0,0 0,-1 0,-1 0,-1 0,-1 0,-2l0 -4zm1 1l0 2c0,1 0,1 0,2 0,0 0,1 1,1 0,0 1,1 1,1 1,0 1,0 2,0 1,0 2,0 3,0 1,0 1,-1 1,-1 0,0 0,-1 0,-2l0 -2 -8 0zm-2 14l11 0 0 8 -1 0 0 -6 -3 0 0 6 -1 0 0 -6 -4 0 0 7 -1 0 0 -8zm4 13l0 1c-1,0 -1,0 -1,1 0,0 -1,1 -1,1 0,1 0,1 0,2 0,1 0,1 0,1 0,0 0,1 1,1 0,0 1,0 1,0 0,0 1,0 1,0 0,0 0,-1 1,-1 0,0 0,-1 0,-2 0,-1 0,-2 1,-2 0,-1 1,-1 1,-1 0,0 1,0 1,0 1,0 1,0 2,0 0,0 1,1 1,1 0,1 0,1 1,2 0,1 0,1 0,2 0,1 -1,1 -1,1 0,0 -1,1 -2,1l0 -1c1,0 1,0 1,-1 0,0 0,-1 0,-2 0,-1 0,-1 -1,-2 0,0 -1,-1 -1,-1 0,0 -1,0 -1,0 0,0 0,1 -1,2 0,1 0,2 -1,2 0,1 -1,1 -1,1 0,0 -1,1 -1,1 -1,0 -1,0 -2,0 -1,0 -1,-1 -1,-1 0,-1 -1,-1 -1,-2 0,-1 0,-2 0,-2 0,-1 1,-1 1,-2 1,0 1,-1 2,-1zm-2 15l11 -1 0 1 -11 1 0 -1zm6 12l1 0 1 5 -4 0c-1,-1 -1,-1 -2,-2 0,-1 -1,-1 -1,-2 0,-1 0,-2 0,-3 0,-1 1,-2 2,-2 1,-1 2,-1 3,-1 1,0 2,0 3,0 1,0 2,1 2,2 1,1 1,2 1,3 0,1 0,1 0,2 0,1 0,1 -1,2 0,0 -1,1 -2,1l-1 -1c1,0 1,0 1,-1 0,0 0,-1 1,-1 0,0 0,-1 0,-1 0,-1 0,-1 0,-2 0,0 -1,-1 -1,-1 0,0 -1,0 -1,-1 -1,0 -1,0 -2,0 -1,0 -2,0 -2,1 -1,0 -1,1 -1,2 0,1 0,1 0,2 0,1 0,1 1,2 0,1 1,1 1,1l2 0 0 -3zm-2 11l11 -2 0 1 -7 7 8 -1 0 1 -11 2 0 -1 7 -7 -8 1 0 -1zm3 15l10 -3 2 7 -1 0 -2 -6 -3 1 2 6 -1 0 -2 -6 -4 1 2 6 -1 0 -2 -8zm4 14l10 -3 1 4c0,1 0,1 0,2 0,1 0,1 0,2 0,1 -1,1 -1,2 -1,0 -1,1 -2,1 -1,0 -1,0 -2,0 -1,0 -1,0 -2,0 0,0 -1,0 -1,-1 0,0 -1,-1 -1,-1 0,0 -1,-1 -1,-2l-1 -4zm2 1l1 2c0,1 0,1 1,2 0,0 1,1 1,1 0,0 1,0 2,0 1,0 1,0 2,0 1,0 2,-1 2,-1 0,-1 1,-1 1,-2 0,0 0,-1 0,-2l-1 -2 -8 3zm7 23l10 -4 1 1 -10 4 -1 -1zm3 7l10 -4 1 1 -5 9 8 -3 1 1 -10 4 -1 -1 5 -9 -8 3 -1 -1zm12 23l9 -5 1 1 -5 9 7 -4 1 1 -9 5 -1 -1 5 -9 -7 4 -1 -1zm8 13l9 -6 4 7 -1 1 -3 -5 -3 2 3 5 -1 1 -3 -5 -3 2 3 6 -1 1 -4 -7zm9 13l7 -9 1 1 -5 6c0,1 -1,1 -1,2 1,0 2,-1 2,-1l7 -3 1 1 -3 5c-1,1 -2,2 -2,3 1,0 1,-1 2,-1l6 -3 1 1 -10 4 -1 -1 5 -7c0,-1 1,-1 1,-1 0,0 -1,0 -1,1l-8 3 -1 -1zm17 21l8 -7 3 3c1,1 1,1 1,2 0,1 0,1 1,2 0,1 0,1 0,2 0,1 -1,1 -2,2 -1,1 -1,1 -2,1 -1,0 -1,0 -2,1 -1,0 -1,0 -1,0 0,0 -1,0 -1,-1 0,0 -1,-1 -1,-1l-3 -3zm2 0l2 2c0,1 1,1 1,1 0,0 1,0 1,0 0,0 1,0 2,0 1,0 1,-1 2,-1 1,-1 1,-1 2,-2 0,-1 0,-1 0,-2 0,0 -1,-1 -1,-1l-2 -2 -6 6zm9 11l7 -8 6 5 -1 1 -5 -4 -2 2 4 4 -1 1 -4 -4 -3 3 5 5 -1 1 -6 -6zm10 10l7 -8 1 1 -6 7 4 3 -1 1 -5 -4zm10 8l7 -8 1 1 -3 3 4 4 3 -3 1 1 -7 8 -1 -1 3 -4 -4 -4 -3 4 -1 -1zm12 9l6 -9 1 1 -6 9 -1 -1zm26 17l5 -9 7 4 -1 1 -5 -3 -2 3 5 3 -1 1 -5 -3 -2 3 6 3 -1 1 -7 -4zm14 3l1 1c0,1 0,1 0,1 0,0 0,1 1,1 0,0 1,1 1,1 0,0 1,0 1,0 0,0 1,0 1,0 0,0 1,0 1,-1 0,0 0,-1 0,-1 0,0 0,-1 -1,-1 0,0 -1,-1 -1,-1 -1,-1 -1,-1 -2,-2 0,0 -1,-1 -1,-1 0,0 0,-1 0,-1 0,0 1,-1 1,-1 0,0 1,0 2,0 1,0 1,0 2,1 1,0 1,1 2,1 0,1 1,1 1,2 0,1 0,1 0,2l-1 -1c0,-1 0,-1 0,-2 0,-1 -1,-1 -1,-1 -1,0 -1,-1 -2,0 0,0 -1,0 -1,1 0,0 0,1 0,1 0,0 1,1 2,2 1,1 1,1 2,2 0,1 1,1 1,2 0,1 0,1 0,2 0,1 -1,1 -1,1 -1,0 -1,0 -2,0 -1,0 -1,0 -2,-1 -1,0 -2,-1 -2,-2 0,-1 -1,-1 -1,-2 0,-1 0,-1 0,-2zm14 10l4 -9 -3 -1 1 -1 8 4 -1 1 -3 -1 -4 9 -1 -1zm8 3l8 -8 1 1 0 12 -1 -1 0 -3 -4 -2 -2 3 -1 -1zm5 -3l3 1 0 -3c0,-1 0,-2 0,-2 0,1 -1,1 -1,2l-2 2zm10 8l3 -10 4 1c1,0 1,1 2,1 0,0 1,1 1,1 0,1 0,1 0,1 0,0 0,1 -1,1 0,0 -1,0 -1,1 1,0 1,1 1,1 0,1 0,1 0,2 0,0 0,1 -1,1 0,0 -1,1 -1,1 0,0 -1,0 -1,0 0,0 -1,0 -2,0l-4 -1zm3 -5l2 1c1,0 1,0 1,0 0,0 1,0 1,0 0,0 0,0 1,-1 0,0 0,-1 0,-1 0,0 0,-1 -1,-1 0,0 -1,0 -1,-1l-2 -1 -1 3zm-2 5l3 1c0,0 1,0 1,0 0,0 1,0 1,0 0,0 0,0 1,0 0,0 0,0 0,-1 0,0 0,-1 0,-1 0,0 0,-1 -1,-1 0,0 -1,0 -1,-1l-2 -1 -1 3zm12 5l3 -10 1 0 -3 9 5 1 0 1 -6 -2zm12 3l2 -10 1 0 -2 10 -1 0zm8 -2l1 0c0,1 0,1 0,1 0,0 0,1 1,1 0,0 1,0 2,1 1,0 1,0 1,0 0,0 1,0 1,0 0,0 0,-1 0,-1 0,0 0,-1 0,-1 0,0 0,-1 -1,-1 0,0 -1,0 -2,-1 -1,0 -2,-1 -2,-1 0,0 -1,-1 -1,-1 0,0 0,-1 0,-1 0,-1 0,-1 1,-1 0,0 1,-1 2,-1 1,0 1,0 2,0 1,0 1,0 2,1 1,0 1,1 1,1 0,1 0,1 0,2l-1 0c0,-1 0,-1 0,-2 0,0 -1,-1 -2,-1 -1,0 -1,0 -2,0 0,0 -1,1 -1,1 0,0 0,1 0,1 0,0 1,1 2,1 1,0 2,1 2,1 1,0 1,1 1,1 0,0 0,1 0,2 0,1 0,1 -1,2 0,0 -1,1 -2,1 -1,0 -1,0 -2,0 -1,0 -2,0 -2,-1 -1,0 -1,-1 -1,-2 0,-1 0,-1 0,-2zm14 6l1 -11 1 0 -1 4 6 1 1 -4 1 0 -1 11 -1 0 1 -5 -6 -1 -1 5 -1 0zm15 2l1 -11 8 1 0 1 -6 -1 0 3 6 1 0 1 -6 -1 0 4 7 1 0 1 -8 -1zm14 1l0 -11 4 0c1,0 1,0 2,0 1,0 1,0 2,1 1,0 1,1 1,2 0,1 0,2 0,3 0,1 0,2 0,2 0,1 0,1 -1,2 0,0 -1,1 -1,1 0,0 -1,0 -1,0 -1,0 -1,0 -2,0l-4 0zm1 -1l2 0c1,0 1,0 2,0 0,0 1,0 1,-1 0,0 1,-1 1,-1 0,-1 0,-1 0,-2 0,-1 0,-2 0,-3 0,-1 -1,-1 -1,-1 0,0 -1,0 -2,0l-2 0 0 8zm25 1l-1 -11 1 0 1 11 -1 0zm8 0l-1 -11 1 0 7 8 -1 -8 1 0 1 11 -1 0 -7 -8 1 8 -1 0zm32 -6l0 1 -7 1c0,0 0,-1 0,-1 0,-1 0,-1 1,-2 0,-1 1,-1 1,-2 1,-1 2,-2 2,-3 0,-1 0,-1 0,-2 0,-1 0,-1 -1,-1 0,0 -1,0 -2,0 -1,0 -1,0 -1,1 0,0 0,1 0,2l-1 0c0,-1 0,-2 1,-2 1,-1 1,-1 2,-1 1,0 2,0 3,0 1,0 1,1 1,2 0,0 0,1 0,1 0,0 0,1 -1,1 0,1 -1,1 -2,2 -1,1 -1,1 -1,2 0,0 0,1 0,1l5 -1zm4 -5c0,-1 0,-2 0,-3 0,-1 0,-1 1,-2 0,-1 1,-1 2,-1 1,0 1,0 2,0 0,0 1,0 1,1 0,0 1,1 1,1 0,1 1,1 1,2 0,1 0,2 0,3 0,1 0,1 -1,2 0,1 -1,1 -2,1 -1,0 -2,0 -3,-1 -1,-1 -2,-2 -2,-4zm1 0c0,2 1,3 1,3 1,0 1,1 2,1 1,0 1,-1 1,-1 0,-1 0,-2 0,-4 0,-2 -1,-3 -1,-3 -1,0 -1,-1 -2,-1 -1,0 -1,0 -1,1 0,1 0,2 0,4zm17 1l-1 0 -2 -8c0,0 -1,1 -1,1 0,0 -1,1 -1,1l0 -1c1,-1 1,-1 2,-2 0,-1 1,-1 1,-2l1 0 3 10zm6 -5l1 -1c0,1 1,1 1,1 0,0 1,0 1,0 0,0 1,0 1,-1 0,0 0,-1 0,-1 0,0 0,-1 0,-1 0,-1 0,-1 0,-2 0,0 0,0 0,0 0,0 0,1 -1,1 0,0 -1,1 -1,1 -1,0 -2,0 -2,0 -1,0 -1,-1 -2,-2 0,-1 0,-2 0,-3 0,-1 1,-1 2,-2 1,0 1,0 2,0 1,0 1,1 2,1 1,1 1,1 1,3 0,1 1,2 1,3 0,1 0,2 -1,2 0,1 -1,1 -2,1 -1,0 -2,0 -2,0 -1,0 -1,-1 -2,-2zm4 -6c0,-1 -1,-1 -1,-2 -1,0 -1,0 -2,0 -1,0 -1,1 -1,1 0,1 0,1 0,2 0,1 1,1 1,1 1,0 1,0 2,0 1,0 1,-1 1,-1 0,-1 0,-1 0,-2zm29 -4l-1 -11 1 -1 9 7 -1 1 -3 -2 -4 2 0 3 -1 1zm1 -5l3 -2 -2 -2c-1,-1 -1,-1 -2,-2 0,1 0,1 0,2l0 3zm22 -7l-6 -9 6 -4 1 1 -5 3 2 3 4 -3 1 1 -4 3 3 4 -1 1zm10 -6l-3 -11 1 -1 10 6 -1 1 -3 -2 -4 3 1 3 -1 1zm0 -5l3 -2 -3 -2c-1,-1 -1,-1 -2,-1 0,1 1,1 1,2l1 3zm13 -3l-7 -8 2 -1 7 4c1,0 1,1 1,1 0,0 0,-1 -1,-2l-3 -7 1 -1 7 8 -1 1 -6 -7 3 9 -1 1 -8 -5 6 7 -1 1zm13 -11l-7 -8 1 -1 7 8 -1 1zm6 -5l-7 -8 1 -1 7 7 4 -4 1 1 -5 5zm10 -10l-3 -3 -7 -1 1 -1 4 1c1,0 1,0 2,0 0,-1 0,-1 -1,-2l-1 -4 1 -1 2 7 3 3 -1 1zm10 -19c-1,-1 -2,-2 -2,-4 0,-1 0,-3 1,-4 1,-1 1,-1 2,-2 1,0 2,0 3,0 1,0 2,1 3,1 1,1 1,1 2,2 0,1 1,2 0,3 0,1 -1,2 -1,2 -1,1 -1,1 -2,2 -1,0 -2,0 -3,0 -1,0 -2,-1 -2,-1zm1 -1c1,1 2,1 3,1 1,0 2,-1 2,-1 1,-1 1,-2 1,-3 0,-1 -1,-2 -2,-3 -1,-1 -1,-1 -2,-1 -1,0 -1,0 -2,0 -1,0 -1,1 -2,1 -1,1 -1,2 -1,3 0,1 1,2 2,3zm14 -10l-10 -4 1 -1 7 3c1,0 1,1 2,1 -1,-1 -1,-1 -1,-2l-5 -6 1 -1 5 2c1,0 3,1 4,1 0,0 -1,-1 -2,-2l-5 -5 1 -1 7 9 -1 1 -8 -3c-1,0 -1,0 -1,0 0,0 1,1 1,1l5 7 -1 1zm9 -13l-9 -6 1 -1 10 0 -7 -4 1 -1 9 6 -1 1 -10 0 7 4 -1 1zm8 -13l-9 -5 4 -7 1 1 -3 5 3 2 3 -5 1 1 -3 5 3 2 3 -6 1 1 -4 7zm7 -12l-10 -5 2 -3c0,-1 1,-1 1,-2 0,0 1,-1 1,-1 1,0 1,0 2,0 1,0 2,0 2,1 1,0 1,1 2,1 0,0 1,1 1,1 0,0 0,1 0,1 0,0 0,1 0,1 0,1 0,1 -1,2l-2 3zm0 -2l1 -2c0,-1 1,-1 1,-2 0,0 0,-1 0,-1 0,0 0,-1 -1,-1 0,0 -1,-1 -2,-1 -1,-1 -2,-1 -3,-1 -1,0 -1,0 -2,1 0,0 -1,1 -1,2l-1 2 7 4z"/>
   <path class="fil4" d="M986 3443l-10 -4 1 -4c0,-1 1,-1 1,-2 0,0 1,-1 1,-1 1,0 1,0 1,0 0,0 1,0 1,1 0,0 0,1 1,1 0,-1 1,-1 1,-1 1,0 1,0 2,0 0,0 1,0 1,1 0,0 1,1 1,1 0,0 0,1 0,1 0,0 0,1 0,2l-1 4zm-5 -4l1 -2c0,-1 0,-1 0,-1 0,0 0,-1 0,-1 0,0 0,0 -1,-1 0,0 -1,0 -1,0 0,0 -1,0 -1,0 0,0 0,1 -1,1l-1 2 3 1zm5 2l1 -2c0,0 0,-1 0,-1 0,0 0,-1 0,-1 0,0 0,0 0,-1 0,0 0,0 -1,-1 0,0 -1,0 -1,0 0,0 -1,0 -1,1 0,0 0,1 -1,1l-1 2 3 1zm-2 -22l0 -1 6 2c1,0 2,1 2,1 1,0 1,1 1,2 0,1 0,2 0,3 0,1 -1,2 -1,2 -1,1 -1,1 -2,1 -1,0 -2,0 -3,0l-6 -2 0 -1 6 2c1,0 2,0 2,0 0,0 1,0 1,-1 0,0 1,-1 1,-1 0,-1 0,-2 0,-2 0,-1 -1,-1 -2,-1l-6 -2zm9 -5l0 -1c1,0 1,0 1,0 0,0 1,0 1,-1 0,0 1,-1 1,-2 0,-1 0,-1 0,-1 0,0 0,-1 0,-1 0,0 0,0 -1,-1 0,0 -1,0 -1,0 0,0 -1,0 -1,1 0,0 -1,1 -1,2 0,1 -1,1 -1,2 0,0 -1,1 -1,1 0,0 -1,0 -1,0 -1,0 -1,0 -1,-1 0,0 -1,-1 -1,-2 0,-1 0,-1 0,-2 0,-1 1,-1 1,-2 0,-1 1,-1 1,-1 1,0 1,0 2,0l0 1c-1,0 -1,0 -2,0 0,0 -1,1 -1,2 0,1 0,1 0,2 0,0 1,1 1,1 0,0 1,0 1,0 0,0 1,-1 1,-2 1,-1 1,-2 1,-2 0,-1 1,-1 1,-1 1,0 1,0 2,0 1,0 1,0 1,1 0,0 1,1 1,2 0,1 0,1 0,2 0,1 -1,2 -1,2 0,1 -1,1 -2,1 -1,0 -1,0 -2,0zm7 -14l-10 -2 0 -1 10 2 0 1zm2 -8l-11 -2 0 -1 9 -4 -8 -1 0 -1 11 2 0 1 -9 4 8 1 0 1zm2 -15l-11 -1 1 -8 1 0 -1 6 3 0 1 -6 1 0 -1 6 4 0 1 -7 1 0 -1 8zm-2 -14l0 -1c1,0 1,0 1,0 0,0 1,-1 1,-1 0,0 0,-1 0,-2 0,-1 0,-1 0,-1 0,0 0,-1 -1,-1 0,0 -1,0 -1,0 0,0 -1,0 -1,0 0,0 0,0 -1,1 0,0 0,1 -1,2 0,1 -1,2 -1,2 0,0 -1,1 -1,1 0,0 -1,0 -1,0 -1,0 -1,0 -1,-1 0,0 -1,-1 -1,-1 0,-1 0,-1 0,-2 0,-1 0,-1 1,-2 0,-1 1,-1 1,-1 1,0 1,0 2,0l0 1c-1,0 -1,0 -2,1 0,0 -1,1 -1,2 0,1 0,1 0,2 0,0 1,1 1,1 0,0 1,0 1,0 0,0 1,-1 1,-2 0,-1 1,-2 1,-2 0,-1 1,-1 1,-1 0,0 1,0 2,0 1,0 1,0 2,1 0,0 1,1 1,1 0,1 0,1 0,2 0,1 0,2 -1,2 0,1 -1,1 -1,1 -1,0 -1,0 -2,0zm1 -14l0 -1c1,0 1,0 1,0 0,0 1,-1 1,-1 0,0 0,-1 0,-2 0,-1 0,-1 0,-1 0,0 0,-1 -1,-1 0,0 -1,0 -1,0 0,0 -1,0 -1,0 0,0 0,1 -1,1 0,0 0,1 -1,2 0,1 0,2 -1,2 0,1 -1,1 -1,1 0,0 -1,0 -1,0 -1,0 -1,0 -2,0 0,0 -1,-1 -1,-1 0,-1 0,-1 0,-2 0,-1 0,-1 0,-2 0,-1 1,-1 1,-1 1,0 1,0 2,0l0 1c-1,0 -1,0 -2,1 0,0 -1,1 -1,2 0,1 0,1 0,2 0,0 1,1 1,1 0,0 1,0 1,0 0,0 1,-1 1,-2 0,-1 1,-2 1,-2 0,-1 1,-1 1,-1 0,0 1,0 2,0 1,0 1,0 2,1 0,0 1,1 1,1 0,1 0,1 0,2 0,1 0,2 0,2 0,1 -1,1 -1,2 -1,0 -1,1 -2,1zm2 -38l-11 1 -1 -4c0,-1 0,-1 0,-2 0,-1 0,-1 0,-1 0,0 0,-1 1,-1 0,0 1,0 1,-1 1,0 2,0 2,1 1,0 1,1 1,3l0 3 4 -1 0 1zm-6 -1l0 -3c0,-1 0,-2 -1,-2 0,0 -1,0 -2,0 0,0 -1,0 -1,0 0,0 0,1 -1,1 0,0 0,1 0,1l0 3 4 -1zm4 -13l-11 2 -1 -5c0,-1 0,-2 0,-2 0,-1 0,-1 1,-1 0,0 1,-1 1,-1 1,0 1,0 2,0 1,0 1,1 1,2 0,0 0,-1 0,-1 0,0 1,-1 1,-1l3 -2 0 2 -2 2c-1,1 -1,1 -1,1 0,0 0,1 -1,1 0,0 0,0 0,1 0,0 0,0 0,1l0 2 5 -1 0 1zm-6 0l-1 -3c0,-1 0,-1 0,-1 0,0 0,-1 -1,-1 0,0 -1,0 -1,0 0,0 -1,0 -1,1 0,0 0,1 0,2l1 3 3 -1zm3 -14l-10 2 -2 -8 1 0 1 6 3 -1 -1 -6 1 0 1 6 4 -1 -1 -6 1 0 2 8zm-3 -14l-10 3 -1 -2 7 -5c1,0 1,-1 1,-1 0,0 -1,0 -2,0l-8 0 -1 -2 10 -3 0 1 -9 2 9 1 0 1 -8 5 9 -3 0 1zm-5 -16l-10 3 0 -1 10 -3 0 1zm-15 -10l-1 -1 6 -2c1,0 2,-1 3,-1 1,0 1,0 2,1 1,0 1,1 1,2 0,1 1,2 0,2 0,1 0,1 -1,2 -1,0 -1,1 -2,1l-6 2 -1 -1 6 -2c1,0 1,-1 2,-1 0,0 1,-1 1,-1 0,0 0,-1 0,-2 0,-1 -1,-2 -1,-2 -1,0 -2,0 -3,0l-6 2zm7 -11l-10 5 -1 -2 6 -6c1,-1 1,-1 1,-1 0,0 -1,0 -2,0l-8 1 -1 -2 10 -5 1 1 -8 4 9 -1 1 1 -7 7 8 -4 1 1zm-15 -22l-1 -1c0,0 1,-1 1,-1 0,0 0,-1 0,-1 0,-1 0,-1 -1,-2 0,0 -1,-1 -1,-1 0,0 -1,0 -1,0 0,0 -1,0 -1,0 0,0 0,0 -1,1 0,0 0,1 0,1 0,0 0,1 0,2 0,1 0,2 0,2 0,1 0,1 0,1 0,0 -1,1 -1,1 0,0 -1,0 -2,0 -1,0 -1,0 -2,-1 -1,0 -1,-1 -1,-2 0,-1 -1,-1 -1,-2 0,-1 0,-1 0,-2 0,-1 1,-1 1,-1l1 1c-1,0 -1,1 -1,1 0,1 0,1 0,2 0,1 1,1 1,1 0,0 1,0 1,0 0,0 1,0 1,-1 0,0 0,-1 0,-2 0,-1 -1,-2 -1,-2 0,-1 0,-1 0,-2 0,0 1,-1 1,-1 0,0 1,0 2,0 1,0 1,0 2,1 1,0 1,1 1,2 0,1 1,2 1,2 0,1 0,1 0,2 0,1 -1,1 -1,1zm-9 -11c-1,1 -3,1 -4,1 -1,0 -2,-1 -3,-2 -1,-1 -1,-2 -1,-3 0,-1 0,-2 1,-3 0,-1 1,-2 2,-2 1,-1 2,-1 3,-1 1,0 2,0 3,1 1,0 1,1 2,2 1,1 1,2 1,3 0,1 0,2 -1,3 0,1 -1,1 -2,2zm-1 -1c1,-1 2,-2 2,-3 0,-1 0,-2 0,-3 -1,-1 -1,-1 -2,-2 -1,0 -2,0 -3,1 -1,0 -1,1 -2,2 0,1 -1,1 -1,2 0,1 0,1 1,2 1,1 1,1 2,2 1,0 2,0 3,-1zm-4 -15l-9 6 -4 -6 1 -1 3 5 3 -2 -3 -4 1 -1 3 4 4 -3 1 1zm-10 -13l-7 6 2 3 -1 1 -5 -7 1 -1 2 3 7 -6 1 1zm-8 -10l-6 9 -1 -1 4 -6c0,-1 1,-1 1,-2 -1,1 -2,1 -2,1l-7 4 -1 -1 3 -5c1,-1 1,-2 2,-3 -1,0 -1,1 -2,1l-6 4 -1 -1 10 -5 1 1 -4 7c0,1 -1,1 -1,1 0,0 1,0 1,-1l7 -4 1 1zm-10 -11l-10 5 -1 -1 4 -11 1 1 -1 3 3 3 3 -2 1 1zm-5 1l-3 -2 -1 3c0,1 -1,2 -1,2 1,0 1,-1 2,-1l3 -1zm-6 -12l-7 8 -4 -3c-1,-1 -1,-1 -1,-2 0,0 0,-1 0,-2 0,-1 0,-1 1,-2 0,-1 1,-1 2,-1 1,0 2,0 2,1 0,0 0,-1 0,-1 0,-1 0,-1 0,-2l1 -3 1 1 0 3c0,1 0,1 0,2 0,0 0,1 0,1 0,0 0,0 0,1 0,0 0,0 1,1l1 1 3 -4 1 1zm-5 4l-2 -2c0,0 -1,-1 -1,-1 0,0 -1,0 -1,0 0,0 -1,0 -1,1 0,0 0,1 0,1 0,0 0,1 1,2l3 2 2 -3zm-6 -13l-7 8 -6 -5 1 -1 5 4 2 -3 -5 -4 1 -1 5 4 2 -3 -5 -4 1 -1 6 5zm-31 -21l-5 9 -2 -1 1 -8c0,-1 0,-1 0,-2 0,0 -1,1 -1,1l-6 5 -2 -1 5 -9 1 1 -4 8 7 -6 1 1 -2 9 4 -8 1 1zm-14 -8l-9 8 -1 -1 1 -12 1 1 0 3 4 2 3 -2 1 1zm-5 3l-3 -2 0 3c0,1 0,2 0,2 0,-1 1,-1 1,-2l2 -2zm-9 -9l-4 10 -3 -1c-1,0 -1,-1 -2,-1 -1,0 -1,-1 -1,-1 0,-1 0,-1 0,-2 0,-1 0,-2 1,-2 0,-1 1,-1 1,-2 0,0 1,-1 1,-1 0,0 1,0 1,0 0,0 1,0 1,0 1,0 1,0 2,1l4 2zm-2 1l-2 -1c-1,0 -1,0 -2,0 0,0 -1,0 -1,0 0,0 -1,0 -1,1 0,0 -1,1 -1,2 0,1 -1,2 -1,3 0,1 0,1 1,2 0,0 1,1 2,1l2 1 3 -7zm-12 -6l-4 10 -7 -3 0 -1 6 2 1 -3 -6 -2 0 -1 6 2 1 -3 -6 -2 0 -1 7 3zm-24 -8l-3 10 -4 -1c-1,0 -1,0 -2,-1 0,0 -1,-1 -1,-1 0,-1 0,-1 0,-1 0,0 0,-1 1,-1 0,0 1,-1 1,-1 -1,0 -1,-1 -1,-1 0,-1 0,-1 0,-2 0,0 0,-1 1,-1 0,0 1,-1 1,-1 0,0 1,0 1,0 0,0 1,0 2,0l4 1zm-3 6l-2 -1c-1,0 -1,0 -1,0 0,0 -1,0 -1,0 0,0 0,0 -1,1 0,0 0,1 0,1 0,0 0,1 1,1 0,0 1,0 2,1l2 1 1 -3zm1 -5l-3 -1c0,0 -1,0 -1,0 0,0 -1,0 -1,0 0,0 0,0 -1,0 0,0 0,0 0,1 0,0 0,1 0,1 0,0 0,1 1,1 0,0 1,0 1,1l2 1 1 -4zm-15 -5l-1 4 3 7 -2 0 -1 -4c0,-1 0,-1 -1,-2 0,0 -1,1 -2,2l-3 3 -2 0 5 -5 1 -4 1 0zm-21 -4l-1 11 -1 0 1 -4 -6 -1 -1 4 -1 0 1 -11 1 0 -1 5 6 1 1 -5 1 0zm-14 -1l-5 10 -2 0 -4 -11 2 0 1 3 4 0 1 -3 2 0zm-3 4l-4 0 1 3c0,1 0,2 1,2 0,-1 0,-1 1,-2l1 -3zm-12 -5l0 11 -1 0 -5 -9 0 8 -1 0 0 -11 1 0 5 9 0 -8 1 0zm-15 0l0 11 -4 0c-1,0 -1,0 -2,0 -1,0 -1,0 -2,-1 -1,0 -1,-1 -1,-2 0,-1 0,-2 0,-3 0,-1 0,-2 0,-2 0,-1 0,-1 1,-2 0,0 1,-1 1,-1 0,0 1,0 1,-1 0,0 1,0 2,0l4 0zm-1 1l-2 0c-1,0 -1,0 -2,0 0,0 -1,0 -1,1 0,0 -1,1 -1,1 0,1 0,1 0,2 0,1 0,2 1,3 0,1 1,1 1,1 0,0 1,0 2,0l2 0 0 -8z"/>
   <path class="fil3" d="M448 3342c0,-157 128,-285 285,-285 157,0 285,128 285,285 0,157 -128,285 -285,285 -157,0 -285,-128 -285,-285zm594 0c0,-171 -138,-309 -309,-309 -171,0 -309,138 -309,309 0,171 138,309 309,309 171,0 309,-138 309,-309z"/>
   <path class="fil3" d="M557 3342c0,-97 79,-176 176,-176 97,0 176,79 176,176 0,97 -79,176 -176,176 -97,0 -176,-79 -176,-176zm-6 0c0,100 81,182 182,182 100,0 182,-81 182,-182 0,-100 -81,-182 -182,-182 -100,0 -182,81 -182,182z"/>
   <g>
    <path class="fil3" d="M819 3436c-7,0 -14,-1 -20,-4l-2 -1c-13,-4 -29,-15 -43,-27 -36,-33 -69,-21 -69,-21l0 0c-13,3 -20,16 -17,29 2,10 12,16 22,13 4,-1 7,-3 8,-7 3,-5 3,-10 0,-14 -2,-3 -6,-4 -10,-4 -2,1 -5,-1 -5,-3 -1,-2 1,-4 3,-5 7,-2 14,1 19,6 5,6 5,15 1,23 -3,6 -8,10 -14,11 -14,3 -28,-5 -32,-19 -4,-17 6,-34 23,-39 4,-1 39,-13 78,23 13,12 28,21 40,25l2 1c16,6 33,3 47,-7 13,-10 20,-24 19,-40 0,-1 0,-2 0,-4 -1,-11 -8,-21 -17,-28 -14,-10 -29,-11 -41,-4 -11,7 -17,19 -15,32 1,6 5,12 10,16 9,6 18,7 25,3 6,-4 10,-11 9,-19 0,-4 -2,-7 -6,-10 -3,-2 -7,-3 -10,-3 -2,0 -4,-1 -5,-4 0,-2 1,-4 4,-5 6,-1 12,1 17,4 5,4 8,9 9,15 1,11 -4,21 -13,27 -10,6 -23,5 -34,-3 -8,-5 -13,-13 -14,-22 -2,-16 5,-32 19,-40 15,-9 33,-8 50,4 12,8 19,20 21,34 0,1 0,3 0,4 1,19 -7,36 -23,47 -10,8 -22,11 -35,11z"/>
    <path class="fil3" d="M647 3436c-12,0 -24,-4 -35,-11 -15,-11 -24,-29 -23,-47 0,-1 0,-3 0,-4 2,-14 9,-25 21,-34 17,-11 35,-13 50,-4 14,8 21,24 19,40 -1,9 -6,17 -14,22 -11,8 -24,9 -34,3 -9,-6 -14,-16 -13,-27 1,-6 4,-11 9,-15 5,-4 11,-5 17,-4 2,0 4,2 4,5 0,2 -2,4 -5,4 -4,-1 -7,1 -10,3 -3,2 -5,6 -6,10 -1,8 3,15 9,19 7,4 16,3 25,-3 6,-4 9,-10 10,-16 2,-13 -4,-25 -15,-32 -12,-7 -27,-6 -41,4 -10,7 -16,17 -17,28 0,1 0,2 0,4 -1,16 6,30 19,40 14,10 31,13 47,7l2 -1c12,-4 28,-14 40,-26 39,-35 74,-24 78,-23 17,4 27,22 23,39 -3,14 -18,23 -32,19 -6,-1 -11,-6 -14,-11 -4,-8 -4,-16 1,-23 4,-6 12,-8 19,-6 2,1 4,3 3,5 -1,2 -3,4 -5,3 -4,-1 -8,0 -10,4 -3,4 -3,9 0,14 2,3 5,6 8,7 10,2 19,-4 22,-13 3,-13 -5,-26 -17,-29l0 0c-1,0 -33,-12 -69,21 -14,13 -30,23 -43,27l-2 1c-7,2 -13,4 -20,4z"/>
    <path class="fil3" d="M723 3307l0 0 0 0zm10 -9c-2,0 -5,3 -6,9l0 0c-2,14 2,31 6,42 3,-11 7,-28 6,-42 -1,-6 -3,-9 -6,-9zm0 68c-2,0 -3,-1 -4,-3 -1,-1 -13,-33 -10,-57 1,-12 8,-17 14,-17 6,0 12,5 14,17 3,24 -10,56 -10,57 -1,2 -2,3 -4,3z"/>
    <path class="fil3" d="M770 3338l2 3c-3,2 -6,6 -7,10 4,-2 8,-4 10,-7 1,-2 0,-3 0,-3 0,0 -2,-1 -3,0l-2 -3zm-11 25c-1,0 -2,0 -3,-1 -1,-1 -1,-2 -1,-4 0,-2 4,-17 13,-23 4,-3 10,-2 13,1 4,4 4,9 1,14 -6,9 -21,13 -23,13 0,0 -1,0 -1,0z"/>
    <path class="fil3" d="M693 3341c-1,0 -1,0 -2,1 0,0 -1,2 0,3 2,3 6,6 10,7 -2,-4 -4,-8 -7,-10 -1,0 -1,0 -1,0zm15 22l-1 0c-2,0 -17,-4 -23,-13 -3,-4 -2,-10 1,-14 4,-4 9,-4 13,-1 9,6 13,21 13,23 0,1 0,3 -1,4 -1,1 -2,1 -3,1z"/>
   </g>
   <path class="fil2" d="M640 3506l-22 39 -5 -3 22 -39 5 3zm-16 -8l-30 33 -4 -4 6 -42 -23 26 -4 -4 30 -33 4 4 -6 42 23 -26 4 4zm-35 -32l-36 26 -9 -13c-2,-3 -3,-5 -4,-7 -1,-2 -1,-5 -1,-7 0,-3 1,-6 3,-9 2,-3 4,-5 8,-8 3,-2 5,-3 8,-4 3,-1 5,-1 7,-1 2,0 4,0 6,1 2,1 3,2 5,3 2,1 3,3 5,5l9 13zm-8 -2l-5 -8c-2,-2 -3,-4 -5,-5 -1,-1 -3,-2 -4,-2 -2,0 -4,0 -6,1 -2,1 -5,2 -8,4 -4,3 -6,5 -7,8 -1,3 -1,5 -1,7 0,2 2,4 4,7l5 8 28 -19zm-70 -48l-2 -6 24 -9c4,-2 8,-2 10,-2 3,0 5,1 8,3 2,2 4,5 6,9 1,4 2,7 2,10 0,3 -2,6 -4,8 -2,2 -5,4 -10,6l-24 9 -2 -5 24 -9c4,-1 6,-3 8,-4 1,-1 2,-3 3,-5 0,-2 0,-4 -1,-7 -2,-4 -4,-7 -6,-8 -2,-1 -6,-1 -12,1l-24 9zm22 -29l-1 -5c2,-1 4,-1 5,-2 1,-1 2,-3 3,-5 1,-2 1,-4 0,-7 0,-2 -1,-4 -2,-6 -1,-2 -2,-3 -3,-3 -1,-1 -3,-1 -4,-1 -1,0 -3,1 -3,2 -1,1 -2,2 -2,4 0,1 -1,4 -1,8 0,4 -1,7 -2,9 -1,2 -2,4 -4,5 -2,1 -3,2 -5,2 -2,0 -4,0 -6,-1 -2,-1 -4,-3 -5,-5 -1,-2 -2,-5 -2,-8 0,-3 0,-6 1,-9 1,-3 2,-5 4,-6 2,-2 4,-3 7,-3l1 6c-3,1 -5,2 -6,4 -1,2 -2,5 -1,8 0,4 1,6 3,7 1,1 3,2 5,2 2,0 3,-1 4,-2 1,-1 2,-4 2,-9 0,-5 1,-8 2,-10 1,-3 2,-5 4,-6 2,-1 4,-2 6,-3 2,0 5,0 7,1 2,1 4,3 6,5 1,2 2,5 3,8 0,4 0,7 -1,10 -1,3 -2,5 -4,7 -2,2 -5,3 -8,3zm11 -58l-39 -3 -1 15 -5 0 3 -35 5 0 -1 15 39 3 -1 6zm3 -28l-42 -14 6 -19c1,-4 3,-6 4,-8 1,-2 3,-3 6,-3 2,-1 5,0 7,0 3,1 5,3 7,5 1,3 2,6 1,10 1,-1 2,-2 3,-3 2,-1 4,-2 7,-3l14 -3 -2 7 -11 3c-3,1 -5,1 -7,2 -2,1 -3,1 -4,2 -1,1 -1,1 -2,2 0,1 -1,2 -1,3l-2 6 19 6 -2 6zm-22 -14l4 -12c1,-3 1,-5 1,-6 0,-2 -1,-3 -1,-4 -1,-1 -2,-2 -3,-2 -2,-1 -4,-1 -6,0 -2,1 -3,3 -4,6l-5 13 14 5zm39 -30l-40 -20 3 -5 40 20 -3 5zm9 -16l-35 -27 20 -25 4 3 -16 21 11 8 15 -19 4 3 -15 19 12 9 17 -22 4 3 -20 26zm58 -59l-18 -41 8 -4 22 24c2,2 4,4 5,5 0,-2 0,-4 -1,-7l-3 -33 7 -3 18 41 -5 2 -15 -34 3 39 -5 2 -27 -29 15 35 -5 2zm67 -42l-1 -5 19 -3 3 16c-2,3 -5,5 -8,7 -3,2 -6,3 -9,3 -4,1 -8,1 -12,-1 -4,-1 -7,-3 -9,-7 -2,-3 -4,-7 -5,-11 -1,-4 -1,-8 1,-12 1,-4 3,-7 6,-10 3,-2 7,-4 11,-5 3,-1 6,-1 9,0 3,1 5,2 7,3 2,2 3,4 5,7l-5 2c-1,-2 -2,-4 -3,-5 -1,-1 -3,-2 -5,-2 -2,0 -4,0 -6,0 -3,0 -5,1 -7,2 -2,1 -3,2 -4,4 -1,2 -2,3 -2,5 -1,3 -1,6 0,9 1,4 2,7 4,9 2,2 4,4 7,5 3,1 6,1 9,0 3,0 5,-1 7,-3 2,-1 4,-3 5,-4l-1 -8 -13 2zm32 13l5 -44 9 1 7 33c1,3 1,5 1,7 1,-2 2,-4 3,-7l14 -29 8 1 -5 44 -6 -1 5 -37 -17 35 -5 -1 -8 -39 -5 38 -6 -1zm64 12l12 -37 -14 -5 2 -5 34 11 -2 5 -14 -5 -12 37 -6 -2zm21 8l3 -6 6 3 -3 6 -6 -3zm58 22l4 4c-2,2 -2,3 -3,5 0,2 0,4 0,6 1,2 2,4 3,6 1,2 3,3 5,4 2,1 3,1 5,1 1,0 3,-1 4,-2 1,-1 2,-2 2,-3 0,-1 0,-3 -1,-5 0,-1 -2,-4 -4,-7 -2,-4 -3,-6 -4,-8 -1,-2 -1,-4 0,-6 1,-2 2,-3 3,-5 2,-1 4,-2 6,-3 2,0 5,0 7,1 2,1 5,3 6,5 2,2 4,5 5,8 1,3 1,5 0,7 -1,2 -2,4 -4,6l-4 -4c2,-2 3,-4 3,-7 0,-2 -1,-5 -3,-7 -2,-3 -5,-4 -7,-5 -2,0 -4,0 -5,1 -1,1 -2,2 -2,4 0,2 1,4 3,9 2,4 4,7 4,9 1,3 1,5 0,7 -1,2 -2,4 -4,6 -2,2 -4,3 -6,3 -2,0 -5,0 -8,-1 -3,-1 -5,-3 -7,-5 -3,-3 -4,-6 -5,-9 -1,-3 -1,-6 0,-8 1,-3 2,-5 4,-7zm36 32c7,-3 13,-4 18,-3 6,2 10,5 13,11 2,4 3,7 3,11 0,4 -1,7 -4,11 -2,3 -5,6 -9,8 -4,2 -8,3 -12,3 -4,0 -8,-1 -11,-3 -3,-2 -6,-5 -7,-8 -2,-4 -3,-7 -3,-11 0,-4 2,-7 4,-11 2,-3 5,-6 9,-7zm3 5c-5,3 -8,6 -9,10 -1,4 -1,8 1,12 2,4 5,6 9,7 4,1 9,0 14,-2 3,-2 6,-4 8,-6 2,-2 3,-5 3,-8 0,-3 0,-5 -2,-8 -2,-4 -5,-6 -9,-7 -4,-1 -9,0 -15,3zm1 52l43 -10 7 29 -5 1 -5 -24 -13 3 5 20 -5 1 -5 -20 -20 5 -1 -6zm9 50l39 -1 -1 -15 5 0 1 35 -5 0 -1 -15 -39 1 0 -6zm-2 36l46 -1 -1 6 -30 0c-3,0 -6,0 -9,0 4,2 7,3 8,4l27 15 -2 7 -23 1c-6,0 -11,0 -16,0 3,1 6,3 9,4l26 13 -1 6 -41 -22 1 -6 35 -2c3,0 5,0 5,0 -2,-1 -3,-2 -5,-2l-31 -17 1 -6zm-11 44l31 37 -3 6 -48 -6 3 -6 14 2 9 -16 -9 -11 3 -5zm10 20l-7 13 13 2c4,1 7,1 10,2 -2,-2 -4,-4 -6,-6l-9 -11zm-34 21l33 30 -13 14c-3,3 -5,5 -7,6 -2,1 -4,1 -6,1 -2,0 -4,-2 -6,-3 -2,-2 -4,-5 -4,-8 0,-3 1,-6 3,-10 -2,1 -3,1 -4,1 -2,0 -5,0 -8,0l-14 -3 5 -5 11 2c3,1 6,1 7,1 2,0 3,0 4,0 1,0 2,-1 3,-1 1,0 1,-1 2,-2l5 -5 -14 -13 4 -4zm14 21l-9 9c-2,2 -3,4 -4,5 -1,1 -1,3 0,4 0,1 1,3 2,4 2,1 3,2 5,2 2,0 4,-1 6,-4l10 -10 -11 -10zm-47 12l26 36 -26 19 -3 -4 21 -15 -8 -11 -20 14 -3 -4 20 -14 -9 -12 -22 16 -3 -4 27 -20z"/>
   <path class="fil2" d="M684 3538l2 -10 4 1c1,0 1,0 2,1 0,0 1,1 1,1 0,0 0,1 0,1 0,0 0,1 -1,1 0,0 -1,1 -1,1 1,0 1,1 1,1 0,1 0,1 0,2 0,0 0,1 -1,1 0,0 -1,1 -1,1 0,0 -1,0 -1,0 0,0 -1,0 -2,0l-4 -1zm3 -6l2 1c1,0 1,0 1,0 0,0 1,0 1,0 0,0 0,0 0,-1 0,0 0,-1 0,-1 0,0 0,-1 -1,-1 0,0 -1,0 -2,-1l-2 0 -1 3zm-1 5l3 1c0,0 1,0 1,0 0,0 1,0 1,0 0,0 0,0 1,0 0,0 0,0 0,-1 0,0 0,-1 0,-1 0,0 0,-1 -1,-1 0,0 -1,0 -1,-1l-2 -1 -1 4zm13 4l1 -4 -3 -7 2 0 1 4c0,1 1,1 1,2 0,0 1,-1 2,-2l3 -3 2 0 -5 5 -1 4 -1 0zm16 2l1 -11 5 0c1,0 2,0 2,0 0,0 1,1 1,1 0,1 0,1 0,2 0,1 0,1 -1,2 -1,0 -1,1 -2,1 0,0 1,0 1,1 0,0 1,1 1,2l2 3 -2 0 -1 -2c0,-1 -1,-1 -1,-2 0,0 0,-1 -1,-1 0,0 0,0 -1,0 0,0 0,0 -1,0l-2 0 0 5 -1 0zm2 -6l3 0c1,0 1,0 2,0 0,0 1,0 1,-1 0,0 0,-1 0,-1 0,-1 0,-1 0,-1 0,0 -1,-1 -2,-1l-3 0 0 4zm15 6c-1,0 -1,1 -1,1 0,0 -1,0 -1,0 -1,0 -1,0 -2,-1 0,0 -1,-1 -1,-2 0,0 0,-1 0,-1 0,0 0,-1 1,-1 0,0 1,0 1,0 0,0 1,0 1,0 1,0 2,0 2,0 0,0 0,0 0,0 0,-1 0,-1 0,-1 0,0 -1,0 -1,0 -1,0 -1,0 -1,0 0,0 -1,1 -1,1l-1 0c0,-1 0,-1 1,-1 0,0 1,-1 1,-1 1,0 1,0 2,0 1,0 1,0 2,0 0,0 1,0 1,1 0,0 0,1 0,1 0,0 0,1 0,1l0 2c0,1 0,2 0,2 0,0 0,1 0,1l-1 0c0,0 0,-1 0,-1zm0 -3c0,0 -1,0 -2,0 -1,0 -1,0 -1,0 0,0 0,0 -1,0 0,0 0,0 0,1 0,0 0,1 0,1 0,0 1,0 1,0 1,0 1,0 1,0 0,0 1,-1 1,-1 0,0 0,-1 0,-1l0 0zm6 4l-3 -8 1 0 1 4 1 2c0,0 0,-1 0,-2l1 -5 1 0 1 4 0 1 0 -2 1 -5 1 0 -2 8 -1 0 -1 -5 0 -1 -1 6 -1 0zm11 0l1 0c0,0 0,1 1,1 0,0 1,0 1,0 1,0 1,0 1,0 0,0 0,-1 1,-1 0,0 0,-1 0,-2 -1,1 -1,1 -2,1 -1,0 -2,0 -3,-1 -1,-1 -1,-2 -1,-3 0,-1 0,-1 0,-2 0,-1 1,-1 1,-2 0,0 1,-1 2,-1 1,0 2,0 2,1l0 -1 1 0 1 7c0,1 0,2 0,3 0,1 -1,1 -1,1 -1,0 -1,1 -2,1 -1,0 -2,0 -2,0 -1,0 -1,-1 -1,-2zm1 -5c0,1 0,2 1,2 0,0 1,1 2,1 1,0 1,0 1,-1 0,0 1,-1 0,-2 0,-1 0,-2 -1,-2 0,0 -1,-1 -2,-1 -1,0 -1,0 -1,1 0,1 -1,1 0,2zm9 4l1 0c0,0 0,1 1,1 0,0 1,0 1,0 1,0 1,0 1,-1 0,0 0,-1 1,-1 0,0 0,-1 0,-2 0,1 -1,1 -2,1 -1,0 -2,0 -3,-1 -1,-1 -1,-2 -1,-3 0,-1 0,-1 0,-2 0,-1 1,-1 1,-2 0,0 1,-1 2,-1 1,0 2,0 2,1l0 -1 1 0 1 7c0,1 0,2 0,3 0,1 -1,1 -1,1 0,0 -1,1 -2,1 -1,0 -2,0 -2,0 -1,0 -1,-1 -1,-2zm1 -5c0,1 0,2 1,2 0,0 1,1 2,1 1,0 1,0 1,-1 0,-1 0,-1 0,-2 0,-1 0,-2 -1,-2 0,0 -1,-1 -2,-1 -1,0 -1,0 -1,1 0,1 0,1 0,2zm14 1c0,0 -1,1 -1,1 0,0 -1,0 -1,1 -1,0 -2,0 -2,0 -1,0 -1,-1 -1,-1 0,0 0,-1 0,-1 0,0 0,-1 1,-1 0,0 1,0 1,-1 0,0 1,0 1,0 1,0 2,-1 2,-1 0,0 0,0 0,0 0,-1 0,-1 -1,-1 0,0 -1,0 -2,0 -1,0 -1,0 -1,1 0,0 0,1 0,1l-1 0c0,-1 0,-1 0,-1 0,0 1,-1 1,-1 0,0 1,0 2,-1 1,0 1,0 2,0 0,0 1,0 1,0 0,0 0,0 1,1 0,0 0,1 0,1l0 2c0,1 0,2 1,2 0,0 0,1 1,1l-1 0c0,0 0,-1 0,-1zm-1 -3c0,0 -1,1 -2,1 -1,0 -1,0 -1,0 0,0 0,0 0,1 0,0 0,0 0,1 0,0 0,1 1,1 0,0 1,0 1,0 0,0 1,0 1,-1 0,0 1,-1 1,-1 0,0 0,-1 0,-1l0 0zm6 3l-2 -8 1 0 0 1c0,-1 0,-1 1,-1 0,0 0,0 1,0 0,0 1,0 1,0l0 1c0,0 -1,0 -1,0 0,0 -1,0 -1,0 0,0 0,0 0,1 0,0 0,1 0,2l1 4 -1 0z"/>
   <g>
   </g>
   <g style="clip-path:url(#id0)">
    <g id="_535639776">
     <path class="fil5" d="M658 3183l149 0c-3,-1 -6,-3 -9,-4l-132 0c-3,1 -6,2 -9,4z"/>
     <path class="fil5" d="M857 3218l-249 0c-1,1 -2,2 -4,4l256 0c-1,-1 -2,-3 -4,-4z"/>
     <path class="fil5" d="M887 3256l-308 0c-1,1 -1,2 -2,4l312 0c-1,-1 -1,-3 -2,-4z"/>
     <path class="fil5" d="M903 3295l-340 0c0,1 -1,2 -1,4l342 0c0,-1 -1,-3 -1,-4z"/>
     <path class="fil5" d="M909 3334l-352 0c0,1 0,2 0,4l352 0c0,-1 0,-2 0,-4z"/>
     <path class="fil5" d="M906 3373l-347 0c0,1 0,3 1,4l345 0c0,-1 0,-2 1,-4z"/>
    </g>
   </g>
   <path class="fil0" d="M707 3305c2,-14 11,-27 26,-27 15,0 24,14 26,27 1,6 1,14 0,21 1,-1 1,-1 2,-1 9,-6 21,-5 29,3 1,1 2,2 3,4 2,-2 5,-4 7,-5 20,-12 44,-9 63,4 14,10 24,25 26,42 0,2 0,3 0,5 1,23 -9,44 -27,57 -12,9 -27,14 -42,14 -8,0 -16,-1 -24,-4 -7,3 -15,4 -23,2 -9,-2 -17,-9 -22,-17 -2,-5 -4,-10 -4,-15l0 0c-4,-4 -9,-7 -13,-10 -5,3 -9,6 -13,10l0 0c0,5 -2,10 -4,15 -4,8 -12,15 -22,17 -8,2 -16,1 -23,-2 -8,3 -16,4 -24,4 -15,0 -30,-5 -42,-14 -18,-13 -29,-35 -27,-57 0,-2 0,-3 0,-5 2,-17 12,-32 26,-42 19,-13 43,-16 63,-4 3,2 5,3 7,5 1,-1 2,-2 3,-4 8,-8 20,-9 29,-3 1,0 1,1 2,1 -1,-7 -1,-15 0,-21zm26 213c97,0 176,-79 176,-176 0,-97 -79,-176 -176,-176 -97,0 -176,79 -176,176 0,97 79,176 176,176z"/>
   <path class="fil2" d="M695 3472c1,-2 1,-4 1,-6 0,-2 1,-3 1,-4 0,0 0,0 0,0 0,0 0,0 0,0 0,0 -1,0 -1,1 0,0 -1,1 -1,1 -1,1 -1,2 -1,3 0,1 0,2 0,3 0,1 0,1 0,2 0,0 1,1 1,1zm-1 1c-1,0 -2,-1 -2,-1 -1,-1 -1,-2 -1,-3 0,-1 0,-2 1,-3 0,-1 1,-2 2,-3 1,-1 1,-1 2,-2 1,0 1,-1 2,-1 1,0 1,0 2,1 0,0 1,1 1,2 0,0 0,1 0,2 0,1 0,1 0,2 0,1 0,2 -1,3 0,1 -1,2 -1,2 -1,2 -2,3 -3,4 -1,1 -2,1 -3,1 -1,0 -2,0 -2,-1 -1,0 -1,-1 -1,-2 0,0 0,-1 0,-1 0,0 0,0 1,0 0,0 1,1 1,1 0,0 1,0 1,0 1,0 1,0 2,-1 1,0 1,-1 1,-1zm6 2c0,0 -1,1 -1,1 0,0 -1,0 -1,0l0 -1c1,0 1,0 2,-1 1,-1 1,-2 1,-3 0,-1 0,-2 1,-3 0,-1 1,-2 1,-2 1,0 1,0 1,0 0,0 0,0 0,0 0,0 0,1 -1,2 0,1 -1,2 -1,3 1,-2 2,-3 3,-4 1,-1 2,-1 3,-1 0,0 1,0 1,0 0,0 0,1 0,1 0,0 0,2 -1,4l0 1c0,0 0,1 0,1 0,0 0,1 0,1 0,0 0,0 0,1 0,0 1,0 1,0l0 1 0 0c-1,0 -2,0 -3,0 -1,0 -1,-1 -1,-1 0,0 0,-1 0,-1 0,-1 1,-1 1,-2l0 0c0,-1 1,-1 1,-1 0,0 0,0 0,0 0,0 0,0 0,0 0,0 -1,1 -2,2 -1,1 -2,2 -2,4 0,0 0,1 0,1 0,1 -1,1 -2,1 0,0 0,0 -1,0 0,0 0,0 0,0 0,0 0,0 0,0 0,0 0,0 0,0zm9 1l0 -1c0,0 1,0 1,0 0,0 1,0 1,0 0,0 0,0 0,-1 0,0 0,0 0,-1 0,-1 0,-2 0,-2 0,-1 1,-2 1,-2 1,-1 1,-1 2,-2 1,0 2,-1 2,-1 0,0 1,0 1,0 0,0 1,0 1,0l2 -5c0,0 0,0 0,-1 0,-1 1,-2 2,-2 1,0 1,0 1,0 0,0 0,0 0,1 0,0 0,0 0,1 0,0 0,0 0,1l-2 4c-1,2 -1,3 -2,5 0,1 -1,2 -1,3 0,0 0,1 0,1 0,0 1,0 1,0l0 1 0 0c-1,0 -2,0 -2,0 0,0 -1,-1 -1,-1 0,0 0,-1 0,-1 0,0 0,-1 0,-1 -1,1 -1,2 -2,3 -1,1 -2,1 -2,1 0,0 -1,0 -1,0 0,0 -1,0 -1,-1 0,0 -1,0 -1,0 0,0 -1,0 -2,0zm10 -8c0,0 0,0 0,0 0,0 0,0 0,0 -1,0 -1,0 -2,1 -1,0 -1,1 -2,2 0,1 -1,1 -1,2 0,1 0,1 0,2 0,0 0,1 0,1 0,0 0,0 1,0 1,0 1,-1 2,-2 1,-1 2,-3 2,-5zm2 8l0 -1c0,0 1,0 1,0 0,0 1,0 1,0 0,0 0,0 0,0 0,0 0,0 0,0 0,-1 0,-2 1,-4 0,0 0,-1 0,-1 0,0 0,0 0,-1 0,-1 1,-2 1,-2 0,0 1,0 1,0 0,0 1,0 1,1 0,0 0,0 -1,1 0,1 -1,1 -1,2 0,1 -1,2 -1,2 0,1 0,1 0,1 0,0 0,0 0,1 0,0 0,0 0,0 0,0 1,0 2,-1 1,-1 1,-2 2,-3 0,-1 1,-2 1,-3 0,-1 1,-2 1,-2 0,0 1,0 1,0 0,0 1,0 1,1 0,0 0,0 0,1 0,1 -1,1 -1,2 0,1 -1,2 -1,2 0,1 0,1 0,1 0,0 0,1 0,1 0,0 1,0 1,0l0 1 0 0c-1,0 -2,0 -2,0 0,0 -1,-1 -1,-1 0,0 0,-1 0,-1 0,0 0,-1 0,-1 -1,2 -2,3 -3,3 -1,1 -1,1 -2,1 0,0 -1,0 -1,0 0,0 -1,0 -1,-1 0,0 -1,0 -1,1 0,0 -1,0 -2,0zm16 -3c0,0 1,0 1,0 0,0 0,0 0,1 1,0 1,0 2,-1 0,-1 1,-1 1,-2 0,0 0,-1 0,-1 0,0 0,-1 0,-1 0,1 -1,1 -1,2 -1,1 -1,1 -2,2zm-4 3l0 -1c1,0 2,-1 3,-2 1,-1 2,-3 3,-5 0,0 0,0 0,0 0,0 0,0 0,-1 0,-1 0,-1 1,-1 0,0 1,-1 2,-1 0,0 1,0 1,0 0,0 0,0 0,1 0,0 0,1 0,1 0,0 0,1 -1,1 1,1 1,1 1,2 0,1 0,1 0,2 0,1 0,1 0,2 0,1 0,1 -1,1 0,0 0,0 1,0 0,0 0,0 1,0l0 0 0 1 0 0c0,0 -1,0 -1,0 0,0 -1,0 -1,0 0,0 -1,0 -1,0 0,0 -1,0 -1,0 -1,0 -1,0 -2,0 0,0 -1,0 -1,-1 0,0 -1,0 -1,1 0,0 -1,0 -1,0zm10 0l0 -1c1,0 1,0 2,-1 0,0 1,-1 1,-3l1 -3 -1 0c0,0 0,0 0,0 0,0 0,0 0,0 0,0 0,0 0,0 0,0 0,0 0,0l0 -1c0,0 0,0 0,0 0,0 0,0 1,0l1 0 1 -3c0,0 0,0 0,-1 0,-1 1,-1 1,-1 0,0 1,0 1,0 0,0 0,0 0,0 0,0 0,0 0,1 0,0 0,0 0,1l-1 4 2 0c0,0 0,0 0,0 0,0 0,0 0,0 0,0 0,0 0,0 0,0 0,0 0,0l0 1c0,0 0,0 0,0 0,0 0,0 -1,0l-2 0 -1 3c0,0 0,1 0,1 0,0 0,1 0,1 0,0 0,1 1,1 0,0 1,0 2,0l0 1 0 0c-1,0 -2,0 -2,0 -1,0 -1,-1 -1,-1 0,0 -1,1 -2,1 -1,0 -1,0 -2,0zm7 0l0 -1c1,0 2,-1 2,-2 1,-1 2,-3 3,-5 0,0 0,0 0,-1 0,0 0,0 0,-1 0,-1 0,-1 0,-1 0,0 1,-1 1,-1 0,0 1,0 1,0 0,0 0,0 0,1 0,0 0,0 0,0 0,0 0,0 0,0 0,0 1,1 1,1 1,1 2,1 2,2 0,0 0,1 -1,2 -1,1 -1,2 -1,2 0,0 0,0 0,1 0,0 1,0 2,0l0 1 0 0c-1,0 -2,0 -3,0 -1,0 -1,-1 -1,-1 0,-1 0,-1 1,-3 1,-1 1,-2 1,-2 0,0 0,0 0,0 0,0 0,0 -1,-1 -1,3 -2,5 -3,6 -1,1 -2,2 -4,2zm10 0l0 -1c1,0 2,0 2,-1 1,-1 1,-2 2,-4 0,0 0,-1 0,-1 0,-1 1,-2 2,-2 0,0 0,0 1,0 0,0 0,0 0,0 0,0 0,1 0,1 0,1 0,1 -1,1l-1 3 0 0c0,1 0,1 0,1 0,0 0,1 0,1 0,0 1,0 1,0l0 1 0 0c-1,0 -2,0 -2,0 0,0 -1,-1 -1,-1 0,0 -1,1 -1,1 0,0 -1,0 -2,0zm7 -13c0,0 -1,0 -1,0 0,0 0,-1 0,-1 0,-1 0,-1 0,-1 0,0 1,-1 1,-1 0,0 1,0 1,0 0,0 0,1 0,1 0,1 0,1 0,1 0,0 -1,1 -1,1zm4 10c1,0 1,-1 2,-2 1,-1 1,-2 1,-2 0,0 0,-1 0,-1 0,0 0,0 -1,0 -1,0 -1,0 -2,1 0,1 -1,1 -1,2 0,0 0,1 0,1 0,0 0,0 0,1zm-1 2c-1,0 -1,1 -2,1 -1,0 -1,0 -2,0l0 -1c0,0 1,0 1,0 0,0 1,0 1,0 0,0 0,-1 -1,-1 0,0 0,-1 0,-2 0,-1 0,-3 1,-4 1,-1 2,-2 3,-2 1,0 1,0 2,1 0,0 1,1 1,2 0,1 0,2 -1,3 -1,1 -1,2 -2,3 0,0 1,0 1,1 0,0 1,0 1,0l0 0 0 1 0 0c-1,0 -1,0 -2,0 -1,0 -1,0 -2,-1z"/>
  </g>
 </g>
</svg>
