<svg height="512pt" viewBox="-137 0 512 512.01418" width="512pt" xmlns="http://www.w3.org/2000/svg"><path d="m40.316406 401.6875c-16.753906-3.140625-33.242187 6.597656-38.582031 22.785156-5.339844 16.183594 2.121094 33.824219 17.453125 41.269532-9.011719 6.476562-12.808594 18.035156-9.390625 28.59375 3.414063 10.5625 13.261719 17.707031 24.359375 17.679687h170.667969c11.097656.027344 20.945312-7.117187 24.359375-17.679687 3.417968-10.558594-.378906-22.117188-9.390625-28.59375 15.398437-7.40625 22.914062-25.082032 17.5625-41.304688-5.351563-16.226562-21.910157-25.960938-38.691407-22.75-4.8125-5.769531-11.929687-9.113281-19.441406-9.140625v-17.066406h4.269532c13.617187.046875 25.527343-9.152344 28.925781-22.339844 3.394531-13.183594-2.589844-26.996094-14.535157-33.53125l38.191407-139.746094c13.640625-61.101562-22.085938-122.402343-81.976563-140.648437-5.433594-1.796875-9.082031-6.910156-9.007812-12.632813v-.96875c.054687-6.757812-2.632813-13.246093-7.449219-17.988281-5.3125-5.449219-12.800781-8.214844-20.382813-7.519531-13.441406 1.496093-23.554687 12.953125-23.367187 26.476562.070313 5.726563-3.578125 10.835938-9.015625 12.628907-59.890625 18.246093-95.617188 79.546874-81.96875 140.648437.027344.125.058594.25.09375.375l38.097656 139.371094c-11.949218 6.535156-17.9375 20.347656-14.539062 33.535156 3.394531 13.191406 15.3125 22.390625 28.933594 22.339844h4.265624v17.066406c-7.511718.027344-14.628906 3.371094-19.441406 9.140625zm19.441406 7.925781h37.394532c-7.484375 6.398438-11.796875 15.753907-11.796875 25.601563s4.3125 19.199218 11.796875 25.597656h-45.929688v-42.664062c.003906-4.710938 3.824219-8.53125 8.535156-8.535157zm59.734376 42.667969c-9.425782 0-17.070313-7.640625-17.070313-17.066406 0-9.425782 7.644531-17.066406 17.070313-17.066406 9.425781 0 17.066406 7.640624 17.066406 17.066406-.011719 9.421875-7.648438 17.054687-17.066406 17.066406zm-85.335938-34.132812v34.132812c-9.425781 0-17.066406-7.640625-17.066406-17.066406 0-9.425782 7.640625-17.066406 17.066406-17.066406zm170.667969 76.800781h-170.667969c-4.710938 0-8.53125-3.824219-8.53125-8.535157 0-4.710937 3.820312-8.535156 8.53125-8.535156h170.667969c4.710937 0 8.53125 3.824219 8.53125 8.535156 0 4.710938-3.820313 8.535157-8.53125 8.535157zm17.066406-59.734375c-.011719 9.421875-7.644531 17.054687-17.066406 17.066406v-34.132812c9.421875.011718 17.054687 7.644531 17.066406 17.066406zm-34.132813-17.066406v42.664062h-45.929687c7.484375-6.398438 11.796875-15.75 11.796875-25.597656s-4.3125-19.203125-11.796875-25.601563h37.394531c4.710938.003907 8.53125 3.824219 8.535156 8.535157zm-169.792968-277.730469c5.4375-39.847657 33.460937-72.941407 71.867187-84.871094 12.613281-4.011719 21.164063-15.742187 21.125-28.980469-.167969-4.648437 3.148438-8.699218 7.742188-9.453125 2.382812-.191406 4.738281.613281 6.507812 2.226563 1.765625 1.609375 2.789063 3.882812 2.816407 6.273437v.96875c-.035157 13.226563 8.511718 24.953125 21.117187 28.964844 38.421875 11.933594 66.449219 45.042969 71.875 84.90625 1.554687 11.761719 1.046875 23.703125-1.5 35.289063l-38.277344 140.003906h-25.738281l18.863281-94.238282c10.300781-1.425781 18.703125-8.949218 21.253907-19.027343 2.550781-10.078125-1.261719-20.699219-9.644532-26.851563-8.378906-6.152344-19.652344-6.609375-28.503906-1.15625l-7.03125-31.261718c-.871094-3.878907-4.300781-6.640626-8.273438-6.664063-3.941406.054687-7.359374 2.730469-8.363281 6.542969l-15.054687 62.730468-13.507813-46.074218c-1.046875-3.566406-4.28125-6.046875-8-6.128906-3.726562-.117188-7.085937 2.226562-8.265625 5.765624l-5.59375 16.324219c-4.359375-3.25-9.648437-5.011719-15.089844-5.027343-13.414062-.03125-24.570312 10.320312-25.535156 23.703124-.96875 13.378907 8.582032 25.230469 21.863282 27.125l18.863281 94.238282h-25.738281l-38.230469-139.816406c-2.582031-11.65625-3.105469-23.675782-1.546875-35.511719zm82.921875 175.328125-19.535157-97.570313c7.089844-4.230469 11.6875-11.640625 12.335938-19.871093l2.730469-7.984376 14.964843 51.027344c1.070313 3.636719 4.402344 6.132813 8.191407 6.132813h.210937c3.863282-.097657 7.183594-2.777344 8.089844-6.535157l13.96875-58.175781 3.421875 15.230469c.558594 8.347656 5.179687 15.894531 12.363281 20.179688l-19.535156 97.566406zm-32.597657-110.933594c-4.710937 0-8.53125-3.820312-8.53125-8.53125 0-4.714844 3.820313-8.535156 8.53125-8.535156 4.714844 0 8.535157 3.820312 8.535157 8.535156-.003907 4.710938-3.824219 8.527344-8.535157 8.53125zm102.402344 0c-4.714844 0-8.535156-3.820312-8.535156-8.53125 0-4.714844 3.820312-8.535156 8.535156-8.535156 4.710938 0 8.53125 3.820312 8.53125 8.535156-.003906 4.710938-3.820312 8.527344-8.53125 8.53125zm-128 140.800781c.007813-7.066406 5.734375-12.792969 12.800782-12.800781h128c7.066406 0 12.796874 5.730469 12.796874 12.800781 0 7.070313-5.730468 12.800781-12.796874 12.800781h-128c-7.066407-.007812-12.792969-5.734374-12.800782-12.800781zm34.132813 29.867188h85.332031v17.066406h-85.332031zm0 0"/><path d="m50.96875 138.617188c7.449219-29.773438 37.917969-45.492188 38.226562-45.644532 4.214844-2.113281 5.917969-7.242187 3.804688-11.453125-2.109375-4.214843-7.238281-5.917969-11.453125-3.804687-1.535156.765625-37.75 19.253906-47.125 56.761718-.835937 2.988282.015625 6.199219 2.226563 8.378907 2.210937 2.179687 5.433593 2.988281 8.410156 2.105469 2.980468-.878907 5.242187-3.308594 5.914062-6.34375zm0 0"/></svg>