<svg height="512pt" viewBox="0 0 512.00008 512" width="512pt" xmlns="http://www.w3.org/2000/svg"><path d="m500.867188 168.925781c-14.335938-5.230469-47.105469-14.167969-105.527344-15.226562h-.316406c-7.167969-.097657-13.597657 4.394531-15.972657 11.160156-20.394531 5.546875-64.652343 23.179687-71.765625 72.875-8.285156 58.269531-23.53125 120.917969-96.523437 134.757813l6.582031-2.734376c2.839844-1.148437 4.84375-3.734374 5.25-6.773437.40625-3.035156-.84375-6.058594-3.28125-7.917969-2.433594-1.855468-5.679688-2.265625-8.503906-1.074218l-1.761719.734374 4.269531-55.496093 8.277344-124.054688.03125-.492187c.128906-.765625.210938-1.535156.242188-2.308594 0-.152344-.039063-.511719-.050782-.769531l.007813-.113281c.007812-.085938-.035157-.164063-.027344-.25-.015625-.167969 0-.238282-.03125-.433594-.019531-.542969-.085937-1.078125-.191406-1.609375-.011719-.078125-.046875-.144531-.058594-.222657-.085937-.488281-.210937-.964843-.382813-1.429687-6.070312-27.125-60.714843-39.546875-110.199218-39.546875-49.390625 0-103.917969 12.375-110.160156 39.402344-.222657.570312-.382813 1.164062-.472657 1.769531l-.007812.03125c-.050781.257813-.039063.425781-.070313.65625-.113281.539063-.175781 1.085937-.1796872 1.636719l.0117187.164062c-.0234375.246094-.0546875.519532-.0546875.714844.00390625 1.15625.113281 2.308594.328125 3.445312l8.207031 123.195313c.585938 31.628906 5.195313 63.050781 13.714844 93.519531h-5.183594c-4.710937 0-8.53125 3.820313-8.53125 8.53125 0 4.714844 3.820313 8.535156 8.53125 8.535156h8.964844c.582031 6.566407 1.859375 13.054688 3.804688 19.351563l-8.242188 3.414063c-2.839844 1.152343-4.84375 3.738281-5.253906 6.773437-.40625 3.039063.847656 6.058594 3.28125 7.917969 2.4375 1.859375 5.683594 2.269531 8.503906 1.074218l8.242188-3.414062c3.078124 5.835938 6.765624 11.324219 11 16.378906l-6.34375 6.34375c-2.199219 2.144532-3.078126 5.308594-2.292969 8.28125.78125 2.972656 3.105469 5.296875 6.078125 6.078125 2.972656.785157 6.136718-.09375 8.285156-2.292969l6.339844-6.34375c5.054687 4.234376 10.546875 7.921876 16.375 11l-3.410156 8.246094c-1.238282 2.828125-.851563 6.105469 1.011718 8.570313 1.867188 2.464843 4.917969 3.726562 7.976563 3.300781 3.0625-.425781 5.652343-2.46875 6.777343-5.347656l3.40625-8.238282c6.300782 1.949219 12.792969 3.222657 19.363282 3.804688v8.964844c0 4.714844 3.820312 8.535156 8.53125 8.535156 4.714844 0 8.535156-3.820312 8.535156-8.535156v-8.964844c6.570312-.582031 13.058594-1.855469 19.359375-3.804688l3.40625 8.238282c1.863281 4.257812 6.789063 6.242187 11.082031 4.464844 4.292969-1.777344 6.375-6.664063 4.683594-10.988282l-2.648438-6.414062c73.726563-1.933594 137.6875-14.0625 176.882813-116 12.203125-30.984375 20.820313-63.265625 25.691406-96.207032 4.25-26.015624 5.902344-35.960937 25.648438-46.703124 4.066406 7.464843 13.042969 10.753906 20.96875 7.683593 26.648437-10.742187 54.617187-17.871093 83.160156-21.191406 8.90625-.644531 15.792969-8.074219 15.765625-17.003906v-11.636719c0-7.140625-4.441406-13.527344-11.132812-16.011719zm-338.960938 129.65625c-4.351562-1.796875-9.335938.269531-11.140625 4.621094l-3.40625 8.238281c-6.300781-1.949218-12.789063-3.226562-19.359375-3.808594v-8.964843c0-4.714844-3.820312-8.535157-8.535156-8.535157-4.710938 0-8.53125 3.820313-8.53125 8.535157v8.964843c-6.570313.582032-13.058594 1.855469-19.359375 3.804688l-3.40625-8.238281c-1.863281-4.257813-6.789063-6.242188-11.082031-4.464844-4.292969 1.777344-6.375 6.664063-4.6875 10.992187l3.414062 8.242188c-5.832031 3.078125-11.320312 6.765625-16.375 11l-6.34375-6.34375c-3.34375-3.261719-8.6875-3.226562-11.988281.074219-3.304688 3.304687-3.335938 8.648437-.078125 11.992187l6.34375 6.339844c-5.964844 7.117188-10.832032 15.089844-14.4375 23.644531-4.378906-21.652343-6.832032-43.652343-7.332032-65.738281 2.59375-6.097656 33.933594-17.335938 85.332032-17.335938 51.519531 0 82.898437 11.292969 85.308594 17.03125l-3.390626 44.007813c-8.0625-10.226563-18.195312-18.632813-29.730468-24.671875l3.410156-8.242188c1.800781-4.355468-.269531-9.34375-4.625-11.144531zm35.652344-19.585937c-21.5-11.019532-60.34375-14.460938-86.625-14.460938s-65.125 3.441406-86.625 14.457032l-2.234375-33.496094c12.972656-7.824219 45.679687-15.097656 88.859375-15.097656 43.179687 0 75.878906 7.269531 88.851562 15.09375zm-86.625-133.929688c55.894531 0 92.238281 15.515625 93.761718 26.664063l-3.683593 55.363281c-19.777344-8.546875-52.707031-13.761719-90.078125-13.761719s-70.316406 5.214844-90.085938 13.765625l-3.691406-55.3125v-.019531c1.453125-11.148437 37.828125-26.699219 93.777344-26.699219zm-68.25 256c0-36.628906 25.875-68.160156 61.804687-75.308594 35.925781-7.144531 71.898438 12.082032 85.914063 45.925782 14.019531 33.839844 2.179687 72.871094-28.277344 93.226562-30.453125 20.351563-71.046875 16.351563-96.949219-9.546875-14.449219-14.367187-22.550781-33.921875-22.492187-54.296875zm306.933594-130.023437c-4.699219 31.785156-13.015626 62.929687-24.785157 92.828125-31.933593 83.054687-78.535156 100.15625-139.632812 104.125.199219-.195313.425781-.367188.625-.566406 6.691406-6.683594 12.335937-14.339844 16.742187-22.707032l8.242188 3.414063c2.820312 1.195312 6.066406.785156 8.503906-1.074219 2.433594-1.859375 3.6875-4.882812 3.28125-7.917969-.410156-3.039062-2.414062-5.625-5.253906-6.773437l-8.242188-3.414063c1.945313-6.300781 3.222656-12.789062 3.804688-19.355469h8.964844c4.710937 0 8.53125-3.820312 8.53125-8.535156 0-4.710937-3.820313-8.53125-8.53125-8.53125h-8.964844c-.085938-.964844-.230469-1.910156-.34375-2.867187 92.738281-16.792969 105.433594-105.988281 111.621094-149.527344 5.308593-37.082031 36.542968-52.09375 56.046874-57.910156l7.035157 28.136719c-30.28125 15.53125-32.980469 32.082031-37.644531 60.675781zm57.347656-52.210938-12.007813-48.046875.078125-.019531c58.023438 1.054687 89.25 10.277344 99.898438 14.171875l.191406 11.605469c-30.269531 3.34375-59.9375 10.84375-88.160156 22.289062zm0 0"/><path d="m143.589844 425.191406c11.542968-11.511718 13.339844-29.574218 4.296875-43.136718-9.042969-13.558594-26.410157-18.84375-41.472657-12.613282-15.0625 6.226563-23.628906 22.230469-20.453124 38.21875 3.175781 15.988282 17.207031 27.507813 33.503906 27.507813 9.046875 0 17.722656-3.589844 24.125-9.976563zm-36.179688-36.179687c6.660156-6.660157 17.457032-6.660157 24.117188 0 6.660156 6.65625 6.660156 17.457031 0 24.113281-6.660156 6.660156-17.457032 6.660156-24.117188 0-3.207031-3.191406-5.011718-7.53125-5.011718-12.058594 0-4.523437 1.800781-8.863281 5.011718-12.058594zm0 0"/><path d="m132.792969 444.84375c-2.960938.84375-5.234375 3.21875-5.953125 6.207031-.71875 2.992188.226562 6.140625 2.476562 8.238281 2.253906 2.097657 5.457032 2.820313 8.390625 1.894532 20.132813-6.015625 35.882813-21.765625 41.898438-41.898438 1.355469-4.515625-1.203125-9.273437-5.71875-10.628906s-9.273438 1.207031-10.628907 5.722656c-4.375 14.636719-15.828124 26.089844-30.464843 30.464844zm0 0"/><path d="m106.140625 357.253906c2.960937-.84375 5.234375-3.21875 5.953125-6.210937.71875-2.992188-.226562-6.136719-2.476562-8.234375-2.253907-2.097656-5.457032-2.824219-8.390626-1.894532-20.132812 6.015626-35.882812 21.765626-41.898437 41.898438-1.351563 4.511719 1.210937 9.265625 5.722656 10.625.792969.238281 1.621094.359375 2.449219.363281 3.769531-.003906 7.089844-2.476562 8.175781-6.085937 4.375-14.636719 15.828125-26.089844 30.464844-30.460938zm0 0"/><path d="m51.199219 256c0 4.710938-3.820313 8.535156-8.53125 8.535156-4.714844 0-8.535157-3.824218-8.535157-8.535156s3.820313-8.535156 8.535157-8.535156c4.710937 0 8.53125 3.824218 8.53125 8.535156zm0 0"/><path d="m85.332031 247.464844c0 4.714844-3.820312 8.535156-8.53125 8.535156-4.714843 0-8.535156-3.820312-8.535156-8.535156 0-4.710938 3.820313-8.53125 8.535156-8.53125 4.710938 0 8.53125 3.820312 8.53125 8.53125zm0 0"/><path d="m119.464844 247.464844c0 4.714844-3.820313 8.535156-8.53125 8.535156-4.714844 0-8.535156-3.820312-8.535156-8.535156 0-4.710938 3.820312-8.53125 8.535156-8.53125 4.710937 0 8.53125 3.820312 8.53125 8.53125zm0 0"/><path d="m153.601562 247.464844c0 4.714844-3.820312 8.535156-8.535156 8.535156-4.710937 0-8.53125-3.820312-8.53125-8.535156 0-4.710938 3.820313-8.53125 8.53125-8.53125 4.714844 0 8.535156 3.820312 8.535156 8.53125zm0 0"/><path d="m187.734375 256c0 4.710938-3.820313 8.535156-8.535156 8.535156-4.710938 0-8.53125-3.824218-8.53125-8.535156s3.820312-8.535156 8.53125-8.535156c4.714843 0 8.535156 3.824218 8.535156 8.535156zm0 0"/><path d="m221.925781 17.449219c-3.15625-.15625-6.316406-.078125-9.460937.238281-6.707032.503906-9.691406.488281-12.148438-1.816406-17.175781-16.039063-46.972656-22.257813-65.191406-4.378906-3.636719 3.894531-6.515625 8.433593-8.5 13.378906-1.203125 3.371094-3.144531 6.433594-5.683594 8.960937-2.410156 1.355469-5.078125 2.179688-7.832031 2.425781-2.339844.378907-4.648437.902344-6.925781 1.558594-20.859375 6.890625-33.175782 28.390625-28.574219 49.871094 3.003906 16.082031 15.917969 28.46875 32.117187 30.792969 2.554688.4375 5.144532.65625 7.738282.65625 15.371094.195312 29.6875-7.785157 37.601562-20.957031 1.085938-2.027344 2.96875-3.507813 5.191406-4.085938 2.734376-.570312 5.5-.96875 8.285157-1.199219 7.304687-.28125 14.429687-2.335937 20.765625-5.988281 1.234375-.765625 2.457031-1.625 3.675781-2.488281 1.890625-1.550781 4.085937-2.691407 6.441406-3.351563 2.566407.273438 5.089844.855469 7.515625 1.738282 2.332032.765624 4.707032 1.402343 7.109375 1.910156 12.675781 2.5 25.671875-2.4375 33.492188-12.726563 7.632812-9.761719 9.191406-22.960937 4.039062-34.230469-5.441406-11.671874-16.808593-19.453124-29.65625-20.308593zm12.082031 44.136719c-3.875 5.160156-10.371093 7.636718-16.699218 6.371093-1.792969-.390625-3.5625-.875-5.300782-1.457031-3.832031-1.355469-7.828124-2.191406-11.882812-2.488281-6.242188.113281-12.246094 2.398437-16.980469 6.46875-.941406.667969-1.882812 1.335937-2.851562 1.9375-4.160157 2.222656-8.789063 3.425781-13.507813 3.503906-3.476562.292969-6.929687.808594-10.34375 1.539063-6.828125 1.652343-12.671875 6.058593-16.140625 12.171874-5.871093 9.347657-16.878906 14.125-27.714843 12.027344-9.152344-1.160156-16.511719-8.097656-18.207032-17.164062-2.953125-12.925782 4.289063-26.003906 16.808594-30.363282 1.640625-.457031 3.304688-.820312 4.984375-1.085937 5.464844-.617187 10.691406-2.578125 15.210937-5.714844 4.792969-4.113281 8.476563-9.359375 10.722657-15.265625 1.179687-3.0625 2.867187-5.90625 4.992187-8.402344 4.175782-4.003906 9.785156-6.164062 15.566406-5.988281 9.660157.363281 18.878907 4.144531 26.007813 10.671875 6.996094 5.753906 16.195313 8.085938 25.089844 6.355469 2.328125-.234375 4.667969-.3125 7.007812-.226563 6.550781.433594 12.363281 4.347657 15.234375 10.253907 2.535156 5.550781 1.765625 12.050781-1.996094 16.855469zm0 0"/><path d="m271.773438 34.132812c0 18.851563 15.285156 34.132813 34.132812 34.132813 18.851562 0 34.136719-15.28125 34.136719-34.132813 0-18.851562-15.285157-34.132812-34.136719-34.132812-18.839844.0195312-34.109375 15.289062-34.132812 34.132812zm51.203124 0c0 9.425782-7.644531 17.066407-17.070312 17.066407s-17.066406-7.640625-17.066406-17.066407c0-9.425781 7.640625-17.066406 17.066406-17.066406 9.421875.011719 17.058594 7.644532 17.070312 17.066406zm0 0"/><path d="m348.574219 59.734375c0 14.136719 11.460937 25.597656 25.601562 25.597656 14.136719 0 25.597657-11.460937 25.597657-25.597656 0-14.140625-11.460938-25.601563-25.597657-25.601563-14.132812.015626-25.585937 11.46875-25.601562 25.601563zm34.132812 0c0 4.710937-3.820312 8.53125-8.53125 8.53125-4.714843 0-8.535156-3.820313-8.535156-8.53125 0-4.714844 3.820313-8.535156 8.535156-8.535156 4.710938.003906 8.527344 3.824219 8.53125 8.535156zm0 0"/><path d="m435.199219 76.800781c0 4.710938-3.820313 8.53125-8.53125 8.53125-4.714844 0-8.535157-3.820312-8.535157-8.53125 0-4.714843 3.820313-8.535156 8.535157-8.535156 4.710937 0 8.53125 3.820313 8.53125 8.535156zm0 0"/></svg>