<svg height="512pt" viewBox="0 0 512 512" width="512pt" xmlns="http://www.w3.org/2000/svg"><path d="m300 122c-49.628906 0-90 40.371094-90 90s40.371094 90 90 90 90-40.371094 90-90-40.371094-90-90-90zm15 120h-30v-60h30zm0 0"/><path d="m420 32c-33.078125 0-60 26.921875-60 60s26.921875 60 60 60 60-26.921875 60-60-26.921875-60-60-60zm0 0"/><path d="m285 0c-24.808594 0-45 20.191406-45 45s20.191406 45 45 45 45-20.191406 45-45-20.191406-45-45-45zm0 0"/><path d="m436.109375 340.597656-77.488281 81.402344c-7.382813 0-71.515625 0-143.621094 0v-30h130c0-33.136719-26.863281-60-60-60h-74.996094c-13.683594-18.21875-35.46875-30-60.003906-30-21.769531 0-41.375 9.277344-55.074219 24.089844-19.820312 21.433594-45.964843 35.910156-75.15625 35.910156h-19.769531v150h379.984375l132.015625-165.015625c-17.441406-25.894531-54.367188-29-75.890625-6.386719zm0 0"/></svg>