<svg height="511pt" viewBox="0 -63 511.12261 511" width="511pt" xmlns="http://www.w3.org/2000/svg"><path d="m482.453125 197.300781c-12.980469 7.1875-25.386719 15.367188-37.117187 24.457031-2.171876-8.601562-6.519532-16.5-12.632813-22.929687-.625-.609375-1.335937-1.117187-2.117187-1.507813 1.800781-56.699218 14.144531-112.566406 36.398437-164.746093 1.542969-1.742188 2.375-4 2.328125-6.328125v-.042969c.003906-.183594.023438-.359375.023438-.542969 0-8.71875-4.683594-15.300781-65.28125-20.570312-37.3125-3.238282-86.859376-5.027344-139.519532-5.027344-52.65625 0-102.207031 1.789062-139.519531 5.027344-60.597656 5.269531-65.28125 11.851562-65.28125 20.570312 0 .183594.019531.363282.023437.542969v.039063c-.046874 2.335937.785157 4.601562 2.335938 6.34375 16.933594 39.300781 28.085938 80.847656 33.109375 123.34375-34.15625 5.40625-95.19921875 24.441406-95.19921875 91.597656-.24218725 36.230468 15.26562475 70.773437 42.49999975 94.667968 32.828125 28.222657 74.855469 43.445313 118.140625 42.789063 6.449219 0 12.917969-.320313 19.40625-.964844 46.371094-4.640625 100.757813-26.578125 161.660157-65.191406l.085937-.039063c28.132813-14.328124 54.273437-25.292968 77.34375-34.96875 33.207031-13.925781 59.433594-24.925781 73.300781-38.792968 11.589844-11.589844 24.617188-34.375 15.757813-46.460938-2.914063-3.96875-10.121094-9.402344-25.746094-1.265625zm-69.015625 1.835938c-26.652344 4.300781-53.640625 6.21875-80.632812 5.722656-40.292969 0-64.410157 11.699219-89.941407 24.082031-15.207031 7.730469-30.9375 14.378906-47.078125 19.898438l-46.574218-25.839844c-4.121094-2.289062-9.316407-.800781-11.605469 3.320312-2.285157 4.121094-.800781 9.316407 3.320312 11.601563l31.484375 17.46875c-1.21875.289063-2.339844.597656-3.589844.875-20.015624 4.460937-35.015624 2.363281-44.59375-6.199219-3.875-3.578125-6.910156-7.96875-8.886718-12.859375 1.28125-24.984375.5625-50.027343-2.152344-74.894531v-.050781l-.011719-.03125c-4.300781-41.472657-14.035156-82.195313-28.957031-121.128907 13.507812 2.390626 27.125 4.105469 40.800781 5.128907 37.308594 3.242187 86.859375 5.03125 139.515625 5.03125 52.660156 0 102.207032-1.792969 139.519532-5.03125 13.675781-1.023438 27.289062-2.734375 40.789062-5.128907-19.273438 50.539063-29.890625 103.96875-31.402344 158.035157zm-300.660156 63.585937c13.917968 12.488282 34.015625 15.925782 59.742187 10.203125 27.042969-6.195312 53.183594-15.8125 77.792969-28.625 25.765625-12.503906 46.117188-22.371093 82.492188-22.371093 30.429687.816406 60.863281-1.671876 90.757812-7.429688 4.96875 5.664062 6.5 13.566406 4.007812 20.675781-.050781.105469-.167968.21875-.242187.324219-1.433594 1.027344-2.847656 2.113281-4.117187 3.167969l-.222657.175781c-14.015625 6.148438-28.511719 11.144531-43.339843 14.933594-26.691407 6.574218-52.488282 16.34375-76.835938 29.101562-29.4375 16.570313-60.605469 29.871094-92.941406 39.65625-32.535156 9.542969-74.96875 16.628906-92.460938-3.761718-37.050781-43.222657-35.925781-70.523438-22.515625-91.53125 1.792969 13.503906 8.09375 26.007812 17.882813 35.480468zm151.757812-245.59375c56.652344-.824218 113.292969 2.027344 169.578125 8.53125-56.285156 6.503906-112.925781 9.355469-169.578125 8.535156-56.648437.820313-113.292968-2.03125-169.574218-8.535156 56.28125-6.503906 112.925781-9.355468 169.574218-8.53125zm-86.1875 349.90625c-44.867187 5.289063-89.921875-8.292968-124.394531-37.496094-23.613281-20.6875-37.070313-50.617187-36.882813-82.011718 0-52.535156 46.675782-69.316406 79.933594-74.621094.730469 8.054688 1.273438 16.167969 1.5625 24.34375-.8125.40625-1.554687.9375-2.195312 1.578125-49.75 49.75-21.808594 96.171875 8.089844 131.054687 11.925781 13.914063 30.234374 19.1875 51.140624 19.1875 64.917969-.003906 154.816407-50.855468 155.992188-51.558593 21.9375-11.46875 45.15625-20.289063 69.171875-26.285157-12.460937 9.226563-28.101563 20.417969-47.023437 32.5-.167969.085938-.296876.21875-.457032.316407-.089844.050781-.195312.050781-.285156.109375-58.804688 37.347656-110.839844 58.503906-154.652344 62.882812zm302.023438-134.074218c-11.308594 11.304687-35.542969 21.574218-66.285156 34.476562 4.714843-3.65625 9.402343-7.320312 14.035156-10.941406l5.773437-4.519532c.207031-.167968.417969-.308593.625-.476562.992188-.679688 1.949219-1.414062 2.863281-2.195312.117188-.085938.234376-.191407.355469-.273438l-.011719-.007812c.277344-.195313.542969-.402344.800782-.625 16.246094-13.398438 33.574218-25.429688 51.808594-35.964844 1.101562-.582032 2.238281-1.101563 3.402343-1.550782-2.550781 8.355469-7.144531 15.945313-13.367187 22.078126zm0 0"/><path d="m145.070312 315.792969c31.671876-1.34375 62.507813-10.558594 89.722657-26.816407 21.074219-13.226562 43.371093-24.398437 66.585937-33.355468 4.449219-1.507813 6.84375-6.332032 5.355469-10.789063s-6.300781-6.871093-10.765625-5.398437c-24.417969 9.292968-47.851562 20.984375-69.957031 34.910156-24.613281 14.5625-52.398438 22.929688-80.960938 24.382812-4.710937.007813-8.527343 3.832032-8.523437 8.542969.003906 4.714844 3.828125 8.53125 8.542968 8.523438zm0 0"/><path d="m229.328125 72.714844c-2.289063-4.117188-7.484375-5.597656-11.601563-3.3125l-34.257812 19.03125-34.257812-19.027344c-2.671876-1.5625-5.976563-1.558594-8.644532.011719-2.664062 1.574219-4.269531 4.464843-4.195312 7.558593.074218 3.09375 1.816406 5.90625 4.554687 7.34375l24.976563 13.875-24.976563 13.875c-2.738281 1.441407-4.480469 4.25-4.554687 7.34375-.074219 3.09375 1.53125 5.988282 4.195312 7.558594 2.667969 1.570313 5.972656 1.578125 8.644532.011719l34.257812-19.027344 34.257812 19.027344c2.671876 1.566406 5.980469 1.558594 8.644532-.011719 2.667968-1.570312 4.273437-4.464844 4.199218-7.558594-.078124-3.09375-1.820312-5.902343-4.558593-7.34375l-24.976563-13.875 24.976563-13.875c1.980469-1.097656 3.441406-2.9375 4.0625-5.113281.625-2.179687.355469-4.511719-.746094-6.492187zm0 0"/><path d="m229.328125 149.515625c-2.289063-4.117187-7.484375-5.597656-11.601563-3.3125l-34.257812 19.03125-34.257812-19.027344c-2.671876-1.566406-5.976563-1.558593-8.644532.011719-2.664062 1.570312-4.269531 4.464844-4.195312 7.558594.074218 3.09375 1.816406 5.902344 4.554687 7.34375l24.976563 13.875-24.976563 13.875c-2.738281 1.441406-4.480469 4.25-4.554687 7.34375-.074219 3.09375 1.53125 5.984375 4.195312 7.558594 2.667969 1.570312 5.972656 1.574218 8.644532.011718l34.257812-19.027344 34.257812 19.027344c2.671876 1.5625 5.980469 1.558594 8.644532-.011718 2.667968-1.574219 4.273437-4.464844 4.199218-7.558594-.078124-3.09375-1.820312-5.902344-4.558593-7.34375l-24.976563-13.875 24.976563-13.875c1.980469-1.097656 3.441406-2.9375 4.0625-5.117188.625-2.175781.355469-4.511718-.746094-6.488281zm0 0"/><path d="m399.394531 59.964844c-41.332031 8.261718-117.03125 8.363281-117.792969 8.363281-4.710937 0-8.53125 3.820313-8.53125 8.53125 0 4.714844 3.820313 8.535156 8.53125 8.535156 3.167969 0 78.144532-.101562 121.144532-8.703125 4.582031-.960937 7.53125-5.4375 6.613281-10.027344-.917969-4.589843-5.367187-7.582031-9.964844-6.707031zm0 0"/></svg>